SplineFontDB: 3.2
FontName: Apertura-Medium
FullName: Apertura-Medium
FamilyName: Apertura Md
Weight: Medium
Copyright: Generated in 2008 by FontLab Studio. Copyright info pending.
Version: 1.000 2008 initial release
ItalicAngle: 0
UnderlinePosition: -150
UnderlineWidth: 50
Ascent: 750
Descent: 250
InvalidEm: 0
sfntRevision: 0x00010000
LayerCount: 2
Layer: 0 1 "Back" 1
Layer: 1 1 "Fore" 0
XUID: [1021 616 1186098319 31044]
StyleMap: 0x0000
FSType: 4
OS2Version: 2
OS2_WeightWidthSlopeOnly: 0
OS2_UseTypoMetrics: 0
CreationTime: 1228901131
ModificationTime: 1643832342
PfmFamily: 81
TTFWeight: 450
TTFWidth: 5
LineGap: 0
VLineGap: 0
Panose: 0 0 0 0 0 0 0 0 0 0
OS2TypoAscent: 750
OS2TypoAOffset: 0
OS2TypoDescent: -250
OS2TypoDOffset: 0
OS2TypoLinegap: 0
OS2WinAscent: 949
OS2WinAOffset: 0
OS2WinDescent: 327
OS2WinDOffset: 0
HheadAscent: 750
HheadAOffset: 0
HheadDescent: -250
HheadDOffset: 0
OS2SubXSize: 700
OS2SubYSize: 650
OS2SubXOff: 0
OS2SubYOff: 140
OS2SupXSize: 700
OS2SupYSize: 650
OS2SupXOff: 0
OS2SupYOff: 477
OS2StrikeYSize: 50
OS2StrikeYPos: 250
OS2CapHeight: 700
OS2XHeight: 500
OS2Vendor: 'pyrs'
OS2CodePages: 20000113.00000000
OS2UnicodeRanges: 8000002f.4000004b.00000000.00000000
Lookup: 1 0 0 "'aalt' Access All Alternates in Latin lookup 0" { "'aalt' Access All Alternates in Latin lookup 0 subtable"  } ['aalt' ('latn' <'dflt' > ) ]
Lookup: 3 0 0 "'aalt' Access All Alternates in Latin lookup 1" { "'aalt' Access All Alternates in Latin lookup 1 subtable"  } ['aalt' ('latn' <'dflt' > ) ]
Lookup: 4 0 1 "'liga' Standard Ligatures in Latin lookup 2" { "'liga' Standard Ligatures in Latin lookup 2 subtable"  } ['liga' ('latn' <'dflt' > ) ]
Lookup: 1 0 0 "'ss01' Style Set 1 in Latin lookup 3" { "'ss01' Style Set 1 in Latin lookup 3 subtable"  } ['ss01' ('latn' <'dflt' > ) ]
Lookup: 1 0 0 "'onum' Oldstyle Figures in Latin lookup 4" { "'onum' Oldstyle Figures in Latin lookup 4 subtable" ("oldstyle") } ['onum' ('latn' <'dflt' > ) ]

StartChar: exclam
Encoding: 33 33 4
Width: 272
GlyphClass: 2
Flags: W
LayerCount: 2
Fore
SplineSet
89 220 m 1,0,-1
 81 700 l 1,1,-1
 196 700 l 1,2,-1
 188 220 l 1,3,-1
 89 220 l 1,0,-1
70 58 m 0,4,5
 70 86 70 86 90 106 c 128,-1,6
 110 126 110 126 137 126 c 0,7,8
 166 126 166 126 185.5 106 c 128,-1,9
 205 86 205 86 205 58 c 0,10,11
 205 31 205 31 185.5 11 c 128,-1,12
 166 -9 166 -9 137 -9 c 0,13,14
 110 -9 110 -9 90 11 c 128,-1,15
 70 31 70 31 70 58 c 0,4,5
EndSplineSet
Validated: 1
EndChar

StartChar: quotedbl
Encoding: 34 34 5
Width: 399
GlyphClass: 2
Flags: W
LayerCount: 2
Fore
SplineSet
79 460 m 1,0,-1
 69 700 l 1,1,-1
 165 700 l 1,2,-1
 165 460 l 1,3,-1
 79 460 l 1,0,-1
245 460 m 1,4,-1
 235 700 l 1,5,-1
 331 700 l 1,6,-1
 331 460 l 1,7,-1
 245 460 l 1,4,-1
EndSplineSet
Validated: 1
EndChar

StartChar: numbersign
Encoding: 35 35 6
Width: 589
GlyphClass: 2
Flags: W
LayerCount: 2
Fore
SplineSet
293 0 m 1,0,-1
 325 186 l 1,1,-1
 213 186 l 1,2,-1
 181 0 l 1,3,-1
 90 0 l 1,4,-1
 122 186 l 1,5,-1
 18 186 l 1,6,-1
 18 276 l 1,7,-1
 137 276 l 1,8,-1
 160 410 l 1,9,-1
 51 410 l 1,10,-1
 51 500 l 1,11,-1
 176 500 l 1,12,-1
 210 700 l 1,13,-1
 301 700 l 1,14,-1
 267 500 l 1,15,-1
 379 500 l 1,16,-1
 413 700 l 1,17,-1
 504 700 l 1,18,-1
 470 500 l 1,19,-1
 571 500 l 1,20,-1
 571 410 l 1,21,-1
 454 410 l 1,22,-1
 431 276 l 1,23,-1
 538 276 l 1,24,-1
 538 186 l 1,25,-1
 416 186 l 1,26,-1
 384 0 l 1,27,-1
 293 0 l 1,0,-1
251 410 m 1,28,-1
 228 276 l 1,29,-1
 340 276 l 1,30,-1
 363 410 l 1,31,-1
 251 410 l 1,28,-1
EndSplineSet
Validated: 1
EndChar

StartChar: dollar
Encoding: 36 36 7
Width: 548
GlyphClass: 2
Flags: W
LayerCount: 2
Fore
SplineSet
53 33 m 1,0,-1
 76 124 l 1,1,2
 175 88 175 88 255 88 c 0,3,4
 308 88 308 88 345 114.5 c 128,-1,5
 382 141 382 141 382 192 c 0,6,7
 382 234 382 234 351.5 260 c 128,-1,8
 321 286 321 286 246 310 c 0,9,10
 53 376 53 376 53 509 c 0,11,12
 53 592 53 592 103.5 642 c 128,-1,13
 154 692 154 692 234 706 c 1,14,-1
 234 810 l 1,15,-1
 330 810 l 1,16,-1
 330 708 l 1,17,18
 401 700 401 700 482 667 c 1,19,-1
 458 575 l 1,20,21
 364 612 364 612 286 612 c 0,22,23
 237 612 237 612 203 586 c 128,-1,24
 169 560 169 560 169 513 c 0,25,26
 169 476 169 476 200 449 c 128,-1,27
 231 422 231 422 303 397 c 0,28,29
 396 363 396 363 447 316.5 c 128,-1,30
 498 270 498 270 498 197 c 0,31,32
 498 116 498 116 451.5 66 c 128,-1,33
 405 16 405 16 330 -1 c 1,34,-1
 330 -100 l 1,35,-1
 234 -100 l 1,36,-1
 234 -9 l 1,37,38
 142 -5 142 -5 53 33 c 1,0,-1
EndSplineSet
Validated: 1
EndChar

StartChar: percent
Encoding: 37 37 8
Width: 677
GlyphClass: 2
Flags: W
LayerCount: 2
Fore
SplineSet
89 164 m 1,0,-1
 549 614 l 1,1,-1
 607 556 l 1,2,-1
 147 106 l 1,3,-1
 89 164 l 1,0,-1
55 563 m 0,4,5
 55 625 55 625 98 668 c 128,-1,6
 141 711 141 711 208 711 c 0,7,8
 274 711 274 711 317.5 668 c 128,-1,9
 361 625 361 625 361 563 c 128,-1,10
 361 501 361 501 317.5 457.5 c 128,-1,11
 274 414 274 414 208 414 c 0,12,13
 141 414 141 414 98 457 c 128,-1,14
 55 500 55 500 55 563 c 0,4,5
134 563 m 0,15,16
 134 529 134 529 154 506.5 c 128,-1,17
 174 484 174 484 208 484 c 0,18,19
 241 484 241 484 261.5 506.5 c 128,-1,20
 282 529 282 529 282 563 c 0,21,22
 282 596 282 596 261.5 618.5 c 128,-1,23
 241 641 241 641 208 641 c 0,24,25
 174 641 174 641 154 618.5 c 128,-1,26
 134 596 134 596 134 563 c 0,15,16
316 139 m 128,-1,28
 316 202 316 202 359 244.5 c 128,-1,29
 402 287 402 287 469 287 c 0,30,31
 535 287 535 287 578.5 244 c 128,-1,32
 622 201 622 201 622 139 c 128,-1,33
 622 77 622 77 578.5 33.5 c 128,-1,34
 535 -10 535 -10 469 -10 c 0,35,36
 402 -10 402 -10 359 33 c 128,-1,27
 316 76 316 76 316 139 c 128,-1,28
395 139 m 0,37,38
 395 105 395 105 415 82.5 c 128,-1,39
 435 60 435 60 469 60 c 0,40,41
 502 60 502 60 522.5 82.5 c 128,-1,42
 543 105 543 105 543 139 c 0,43,44
 543 172 543 172 522.5 194.5 c 128,-1,45
 502 217 502 217 469 217 c 0,46,47
 435 217 435 217 415 194.5 c 128,-1,48
 395 172 395 172 395 139 c 0,37,38
EndSplineSet
Validated: 1
EndChar

StartChar: ampersand
Encoding: 38 38 9
Width: 658
GlyphClass: 2
Flags: W
LayerCount: 2
Fore
SplineSet
540 130 m 1,0,-1
 622 35 l 1,1,-1
 532 -25 l 1,2,-1
 463 57 l 1,3,4
 374 -10 374 -10 275 -10 c 0,5,6
 169 -10 169 -10 107.5 38.5 c 128,-1,7
 46 87 46 87 46 169 c 0,8,9
 46 232 46 232 82 278.5 c 128,-1,10
 118 325 118 325 191 378 c 1,11,-1
 163 412 l 2,12,13
 111 475 111 475 111 542 c 0,14,15
 111 614 111 614 160.5 657 c 128,-1,16
 210 700 210 700 300 700 c 0,17,18
 377 700 377 700 427.5 660 c 128,-1,19
 478 620 478 620 478 555 c 0,20,21
 478 520 478 520 462 489.5 c 128,-1,22
 446 459 446 459 426 439.5 c 128,-1,23
 406 420 406 420 366 387 c 2,24,-1
 338 366 l 1,25,-1
 474 207 l 1,26,27
 499 239 499 239 535 295 c 1,28,-1
 605 228 l 1,29,30
 578 176 578 176 540 130 c 1,0,-1
160 178 m 0,31,32
 160 135 160 135 191 110.5 c 128,-1,33
 222 86 222 86 280 86 c 0,34,35
 344 86 344 86 400 131 c 1,36,-1
 252 307 l 1,37,38
 207 274 207 274 183.5 244 c 128,-1,39
 160 214 160 214 160 178 c 0,31,32
276 438 m 1,40,-1
 291 449 l 2,41,42
 336 481 336 481 353.5 501 c 128,-1,43
 371 521 371 521 371 554 c 0,44,45
 371 579 371 579 349.5 595.5 c 128,-1,46
 328 612 328 612 297 612 c 0,47,48
 270 612 270 612 245.5 592.5 c 128,-1,49
 221 573 221 573 221 543 c 0,50,51
 221 501 221 501 259 459 c 2,52,-1
 276 438 l 1,40,-1
EndSplineSet
Validated: 1
EndChar

StartChar: quotesingle
Encoding: 39 39 10
Width: 261
GlyphClass: 2
Flags: W
LayerCount: 2
Fore
SplineSet
92 460 m 1,0,-1
 82 700 l 1,1,-1
 178 700 l 1,2,-1
 178 460 l 1,3,-1
 92 460 l 1,0,-1
EndSplineSet
Validated: 1
EndChar

StartChar: parenleft
Encoding: 40 40 11
Width: 345
GlyphClass: 2
Flags: W
LayerCount: 2
Fore
SplineSet
159 270 m 128,-1,1
 159 125 159 125 202 14.5 c 128,-1,2
 245 -96 245 -96 300 -145 c 1,3,-1
 258 -196 l 1,4,5
 174 -136 174 -136 114.5 -16.5 c 128,-1,6
 55 103 55 103 55 270 c 0,7,8
 55 443 55 443 115 569 c 128,-1,9
 175 695 175 695 258 756 c 1,10,-1
 300 704 l 1,11,12
 246 652 246 652 202.5 533.5 c 128,-1,0
 159 415 159 415 159 270 c 128,-1,1
EndSplineSet
Validated: 1
EndChar

StartChar: parenright
Encoding: 41 41 12
Width: 345
GlyphClass: 2
Flags: W
LayerCount: 2
Fore
SplineSet
187 290 m 128,-1,1
 187 435 187 435 144 545.5 c 128,-1,2
 101 656 101 656 46 705 c 1,3,-1
 88 756 l 1,4,5
 172 696 172 696 231.5 576.5 c 128,-1,6
 291 457 291 457 291 290 c 0,7,8
 291 117 291 117 231 -9 c 128,-1,9
 171 -135 171 -135 88 -196 c 1,10,-1
 46 -144 l 1,11,12
 100 -92 100 -92 143.5 26.5 c 128,-1,0
 187 145 187 145 187 290 c 128,-1,1
EndSplineSet
Validated: 1
EndChar

StartChar: asterisk
Encoding: 42 42 13
Width: 459
GlyphClass: 2
Flags: W
LayerCount: 2
Fore
SplineSet
12 238 m 1,0,-1
 12 333 l 1,1,-1
 160 326 l 1,2,-1
 80 455 l 1,3,-1
 163 502 l 1,4,-1
 230 377 l 1,5,-1
 297 502 l 1,6,-1
 381 454 l 1,7,-1
 301 328 l 1,8,-1
 447 335 l 1,9,-1
 447 240 l 1,10,-1
 299 245 l 1,11,-1
 379 118 l 1,12,-1
 296 71 l 1,13,-1
 229 196 l 1,14,-1
 162 71 l 1,15,-1
 79 119 l 1,16,-1
 157 243 l 1,17,-1
 12 238 l 1,0,-1
EndSplineSet
Validated: 1
EndChar

StartChar: plus
Encoding: 43 43 14
Width: 481
GlyphClass: 2
Flags: W
LayerCount: 2
Fore
SplineSet
436 243 m 1,0,-1
 291 243 l 1,1,-1
 291 98 l 1,2,-1
 191 98 l 1,3,-1
 191 243 l 1,4,-1
 46 243 l 1,5,-1
 46 329 l 1,6,-1
 191 329 l 1,7,-1
 191 474 l 1,8,-1
 291 474 l 1,9,-1
 291 329 l 1,10,-1
 436 329 l 1,11,-1
 436 243 l 1,0,-1
EndSplineSet
Validated: 1
EndChar

StartChar: comma
Encoding: 44 44 15
Width: 214
GlyphClass: 2
Flags: W
LayerCount: 2
Fore
SplineSet
48 46 m 0,0,1
 48 74 48 74 63.5 92 c 128,-1,2
 79 110 79 110 105 110 c 0,3,4
 133 110 133 110 151 90.5 c 128,-1,5
 169 71 169 71 169 39 c 0,6,7
 169 -54 169 -54 76 -141 c 1,8,-1
 27 -110 l 1,9,10
 61 -71 61 -71 75 -22 c 0,11,12
 73 -17 73 -17 66.5 -6.5 c 128,-1,13
 60 4 60 4 57 10 c 128,-1,14
 54 16 54 16 51 26 c 128,-1,15
 48 36 48 36 48 46 c 0,0,1
EndSplineSet
Validated: 1
EndChar

StartChar: hyphen
Encoding: 45 45 16
Width: 391
GlyphClass: 2
Flags: W
LayerCount: 2
Fore
SplineSet
346 283 m 1,0,-1
 46 283 l 1,1,-1
 46 369 l 1,2,-1
 346 369 l 1,3,-1
 346 283 l 1,0,-1
EndSplineSet
Validated: 1
EndChar

StartChar: period
Encoding: 46 46 17
Width: 226
GlyphClass: 2
Flags: W
LayerCount: 2
Fore
SplineSet
46 58 m 0,0,1
 46 86 46 86 66 106 c 128,-1,2
 86 126 86 126 113 126 c 0,3,4
 141 126 141 126 161 106 c 128,-1,5
 181 86 181 86 181 58 c 0,6,7
 181 31 181 31 161 11 c 128,-1,8
 141 -9 141 -9 113 -9 c 0,9,10
 86 -9 86 -9 66 11 c 128,-1,11
 46 31 46 31 46 58 c 0,0,1
EndSplineSet
Validated: 1
EndChar

StartChar: slash
Encoding: 47 47 18
Width: 384
GlyphClass: 2
Flags: W
LayerCount: 2
Fore
SplineSet
0 -110 m 1,0,-1
 280 730 l 1,1,-1
 384 730 l 1,2,-1
 104 -110 l 1,3,-1
 0 -110 l 1,0,-1
EndSplineSet
Validated: 1
EndChar

StartChar: zero
Encoding: 48 48 19
Width: 607
GlyphClass: 2
Flags: W
LayerCount: 2
Fore
SplineSet
41 350 m 128,-1,1
 41 512 41 512 107.5 611 c 128,-1,2
 174 710 174 710 303 710 c 128,-1,3
 432 710 432 710 499 610.5 c 128,-1,4
 566 511 566 511 566 350 c 0,5,6
 566 188 566 188 499.5 89 c 128,-1,7
 433 -10 433 -10 303 -10 c 0,8,9
 174 -10 174 -10 107.5 89 c 128,-1,0
 41 188 41 188 41 350 c 128,-1,1
153 350 m 128,-1,11
 153 84 153 84 303 84 c 0,12,13
 454 84 454 84 454 350 c 128,-1,14
 454 616 454 616 303 616 c 0,15,10
 153 616 153 616 153 350 c 128,-1,11
EndSplineSet
Validated: 1
Substitution2: "'onum' Oldstyle Figures in Latin lookup 4 subtable" zero.onum
Substitution2: "'aalt' Access All Alternates in Latin lookup 0 subtable" zero.onum
EndChar

StartChar: one
Encoding: 49 49 20
Width: 353
GlyphClass: 2
Flags: W
LayerCount: 2
Fore
SplineSet
154 0 m 1,0,-1
 154 606 l 1,1,-1
 32 606 l 1,2,-1
 32 700 l 1,3,-1
 266 700 l 1,4,-1
 266 0 l 1,5,-1
 154 0 l 1,0,-1
EndSplineSet
Validated: 1
Substitution2: "'onum' Oldstyle Figures in Latin lookup 4 subtable" one.onum
Substitution2: "'aalt' Access All Alternates in Latin lookup 0 subtable" one.onum
EndChar

StartChar: two
Encoding: 50 50 21
Width: 542
GlyphClass: 2
Flags: W
LayerCount: 2
Fore
SplineSet
512 0 m 1,0,-1
 66 0 l 1,1,-1
 66 66 l 1,2,-1
 258 295 l 2,3,4
 334 386 334 386 357.5 429.5 c 128,-1,5
 381 473 381 473 379 523 c 0,6,7
 378 565 378 565 348.5 589 c 128,-1,8
 319 613 319 613 277 613 c 0,9,10
 194 613 194 613 102 556 c 1,11,-1
 64 639 l 1,12,13
 170 710 170 710 285 710 c 0,14,15
 377 710 377 710 434 662.5 c 128,-1,16
 491 615 491 615 491 528 c 0,17,18
 491 462 491 462 459 404.5 c 128,-1,19
 427 347 427 347 349 254 c 2,20,-1
 218 99 l 1,21,-1
 220 94 l 1,22,-1
 512 94 l 1,23,-1
 512 0 l 1,0,-1
EndSplineSet
Validated: 33
Substitution2: "'onum' Oldstyle Figures in Latin lookup 4 subtable" two.onum
Substitution2: "'aalt' Access All Alternates in Latin lookup 0 subtable" two.onum
EndChar

StartChar: three
Encoding: 51 51 22
Width: 501
GlyphClass: 2
Flags: W
LayerCount: 2
Fore
SplineSet
122 330 m 1,0,-1
 122 420 l 1,1,-1
 186 420 l 2,2,3
 249 420 249 420 290.5 447 c 128,-1,4
 332 474 332 474 332 521 c 128,-1,5
 332 568 332 568 297 594 c 128,-1,6
 262 620 262 620 208 620 c 0,7,8
 112 620 112 620 57 597 c 1,9,-1
 43 681 l 1,10,11
 109 710 109 710 208 710 c 0,12,13
 309 710 309 710 374.5 660 c 128,-1,14
 440 610 440 610 440 525 c 0,15,16
 440 478 440 478 412.5 440 c 128,-1,17
 385 402 385 402 339 381 c 1,18,-1
 339 375 l 1,19,20
 394 353 394 353 427 307 c 128,-1,21
 460 261 460 261 460 200 c 0,22,23
 460 110 460 110 391.5 55 c 128,-1,24
 323 0 323 0 218 0 c 0,25,26
 110 0 110 0 41 29 c 1,27,-1
 57 113 l 1,28,29
 116 90 116 90 218 90 c 0,30,31
 277 90 277 90 314.5 119.5 c 128,-1,32
 352 149 352 149 352 204 c 0,33,34
 352 266 352 266 311.5 298 c 128,-1,35
 271 330 271 330 206 330 c 2,36,-1
 122 330 l 1,0,-1
EndSplineSet
Validated: 1
Substitution2: "'onum' Oldstyle Figures in Latin lookup 4 subtable" three.onum
Substitution2: "'aalt' Access All Alternates in Latin lookup 0 subtable" three.onum
EndChar

StartChar: four
Encoding: 52 52 23
Width: 606
GlyphClass: 2
Flags: W
LayerCount: 2
Fore
SplineSet
381 0 m 1,0,-1
 381 147 l 1,1,-1
 35 147 l 1,2,-1
 35 211 l 1,3,-1
 254 700 l 1,4,-1
 368 700 l 1,5,-1
 165 241 l 1,6,-1
 381 241 l 1,7,-1
 381 430 l 1,8,-1
 493 430 l 1,9,-1
 493 241 l 1,10,-1
 584 241 l 1,11,-1
 584 147 l 1,12,-1
 493 147 l 1,13,-1
 493 0 l 1,14,-1
 381 0 l 1,0,-1
EndSplineSet
Validated: 1
Substitution2: "'onum' Oldstyle Figures in Latin lookup 4 subtable" four.onum
Substitution2: "'aalt' Access All Alternates in Latin lookup 0 subtable" four.onum
EndChar

StartChar: five
Encoding: 53 53 24
Width: 503
GlyphClass: 2
Flags: W
LayerCount: 2
Fore
SplineSet
49 356 m 1,0,-1
 49 700 l 1,1,-1
 425 700 l 1,2,-1
 425 606 l 1,3,-1
 161 606 l 1,4,-1
 161 450 l 1,5,-1
 214 450 l 2,6,7
 324 450 324 450 393 390.5 c 128,-1,8
 462 331 462 331 462 230 c 0,9,10
 462 127 462 127 387 63.5 c 128,-1,11
 312 0 312 0 196 0 c 0,12,13
 103 0 103 0 41 19 c 1,14,-1
 58 110 l 1,15,16
 122 94 122 94 196 94 c 0,17,18
 265 94 265 94 307.5 128 c 128,-1,19
 350 162 350 162 350 230 c 0,20,21
 350 293 350 293 313.5 324.5 c 128,-1,22
 277 356 277 356 214 356 c 2,23,-1
 49 356 l 1,0,-1
EndSplineSet
Validated: 1
Substitution2: "'onum' Oldstyle Figures in Latin lookup 4 subtable" five.onum
Substitution2: "'aalt' Access All Alternates in Latin lookup 0 subtable" five.onum
EndChar

StartChar: six
Encoding: 54 54 25
Width: 604
GlyphClass: 2
Flags: W
LayerCount: 2
Fore
SplineSet
422 710 m 1,0,-1
 442 618 l 1,1,2
 273 596 273 596 202 473 c 0,3,4
 173 421 173 421 164 352 c 1,5,-1
 170 350 l 1,6,7
 197 382 197 382 243 401.5 c 128,-1,8
 289 421 289 421 341 421 c 0,9,10
 430 421 430 421 492 362.5 c 128,-1,11
 554 304 554 304 554 211 c 0,12,13
 554 112 554 112 480.5 51 c 128,-1,14
 407 -10 407 -10 304 -10 c 0,15,16
 189 -9 189 -9 119.5 71 c 128,-1,17
 50 151 50 151 50 266 c 0,18,19
 50 388 50 388 98 491.5 c 128,-1,20
 146 595 146 595 247 653 c 0,21,22
 317 694 317 694 422 710 c 1,0,-1
184 156 m 0,23,24
 225 84 225 84 307 84 c 0,25,26
 366 84 366 84 406 116.5 c 128,-1,27
 446 149 446 149 446 205 c 0,28,29
 446 264 446 264 409 295.5 c 128,-1,30
 372 327 372 327 312 327 c 0,31,32
 263 326 263 326 222 302.5 c 128,-1,33
 181 279 181 279 159 239 c 1,34,35
 164 186 164 186 184 156 c 0,23,24
EndSplineSet
Validated: 1
Substitution2: "'onum' Oldstyle Figures in Latin lookup 4 subtable" six.onum
Substitution2: "'aalt' Access All Alternates in Latin lookup 0 subtable" six.onum
EndChar

StartChar: seven
Encoding: 55 55 26
Width: 467
GlyphClass: 2
Flags: W
LayerCount: 2
Fore
SplineSet
445 634 m 1,0,-1
 226 0 l 1,1,-1
 114 0 l 1,2,-1
 333 606 l 1,3,-1
 13 606 l 1,4,-1
 13 700 l 1,5,-1
 445 700 l 1,6,-1
 445 634 l 1,0,-1
EndSplineSet
Validated: 1
Substitution2: "'onum' Oldstyle Figures in Latin lookup 4 subtable" seven.onum
Substitution2: "'aalt' Access All Alternates in Latin lookup 0 subtable" seven.onum
EndChar

StartChar: eight
Encoding: 56 56 27
Width: 616
GlyphClass: 2
Flags: W
LayerCount: 2
Fore
SplineSet
89 520 m 0,0,1
 89 598 89 598 153 654 c 128,-1,2
 217 710 217 710 307 710 c 128,-1,3
 397 710 397 710 461.5 654 c 128,-1,4
 526 598 526 598 526 520 c 0,5,6
 526 473 526 473 497.5 432.5 c 128,-1,7
 469 392 469 392 425 370 c 1,8,-1
 425 364 l 1,9,10
 482 341 482 341 519 294.5 c 128,-1,11
 556 248 556 248 556 195 c 0,12,13
 556 108 556 108 483.5 49 c 128,-1,14
 411 -10 411 -10 307 -10 c 0,15,16
 204 -10 204 -10 131.5 49 c 128,-1,17
 59 108 59 108 59 195 c 0,18,19
 59 248 59 248 95.5 294.5 c 128,-1,20
 132 341 132 341 189 364 c 1,21,-1
 189 370 l 1,22,23
 145 392 145 392 117 432.5 c 128,-1,24
 89 473 89 473 89 520 c 0,0,1
167 202 m 0,25,26
 167 150 167 150 207.5 117 c 128,-1,27
 248 84 248 84 307 84 c 0,28,29
 367 84 367 84 407.5 117 c 128,-1,30
 448 150 448 150 448 202 c 0,31,32
 448 251 448 251 407 284.5 c 128,-1,33
 366 318 366 318 307 318 c 0,34,35
 249 318 249 318 208 284.5 c 128,-1,36
 167 251 167 251 167 202 c 0,25,26
197 514 m 0,37,38
 197 471 197 471 229.5 441.5 c 128,-1,39
 262 412 262 412 307 412 c 0,40,41
 354 412 354 412 386 441.5 c 128,-1,42
 418 471 418 471 418 514 c 0,43,44
 418 558 418 558 386 587 c 128,-1,45
 354 616 354 616 307 616 c 0,46,47
 261 616 261 616 229 587 c 128,-1,48
 197 558 197 558 197 514 c 0,37,38
EndSplineSet
Validated: 1
Substitution2: "'onum' Oldstyle Figures in Latin lookup 4 subtable" eight.onum
Substitution2: "'aalt' Access All Alternates in Latin lookup 0 subtable" eight.onum
EndChar

StartChar: nine
Encoding: 57 57 28
Width: 604
GlyphClass: 2
Flags: W
LayerCount: 2
Fore
SplineSet
182 -10 m 1,0,-1
 162 82 l 1,1,2
 333 104 333 104 402 219 c 0,3,4
 431 270 431 270 440 338 c 1,5,-1
 434 340 l 1,6,7
 407 309 407 309 361 289 c 128,-1,8
 315 269 315 269 264 269 c 0,9,10
 175 269 175 269 112.5 329 c 128,-1,11
 50 389 50 389 50 485 c 0,12,13
 50 586 50 586 123.5 648 c 128,-1,14
 197 710 197 710 300 710 c 0,15,16
 415 709 415 709 484.5 626.5 c 128,-1,17
 554 544 554 544 554 426 c 0,18,19
 554 307 554 307 506 206 c 128,-1,20
 458 105 458 105 357 48 c 0,21,22
 285 6 285 6 182 -10 c 1,0,-1
420 544 m 0,23,24
 381 616 381 616 297 616 c 0,25,26
 239 616 239 616 198.5 582.5 c 128,-1,27
 158 549 158 549 158 491 c 0,28,29
 158 427 158 427 195 393 c 128,-1,30
 232 359 232 359 292 359 c 0,31,32
 341 360 341 360 382 383 c 128,-1,33
 423 406 423 406 445 446 c 1,34,35
 442 508 442 508 420 544 c 0,23,24
EndSplineSet
Validated: 1
Substitution2: "'onum' Oldstyle Figures in Latin lookup 4 subtable" nine.onum
Substitution2: "'aalt' Access All Alternates in Latin lookup 0 subtable" nine.onum
EndChar

StartChar: colon
Encoding: 58 58 29
Width: 211
GlyphClass: 2
Flags: W
LayerCount: 2
Fore
SplineSet
50 398 m 0,0,1
 50 426 50 426 70 446 c 128,-1,2
 90 466 90 466 117 466 c 0,3,4
 145 466 145 466 165 446 c 128,-1,5
 185 426 185 426 185 398 c 0,6,7
 185 371 185 371 165 351 c 128,-1,8
 145 331 145 331 117 331 c 0,9,10
 90 331 90 331 70 351 c 128,-1,11
 50 371 50 371 50 398 c 0,0,1
50 58 m 0,12,13
 50 86 50 86 70 106 c 128,-1,14
 90 126 90 126 117 126 c 0,15,16
 145 126 145 126 165 106 c 128,-1,17
 185 86 185 86 185 58 c 0,18,19
 185 31 185 31 165 11 c 128,-1,20
 145 -9 145 -9 117 -9 c 0,21,22
 90 -9 90 -9 70 11 c 128,-1,23
 50 31 50 31 50 58 c 0,12,13
EndSplineSet
Validated: 1
EndChar

StartChar: semicolon
Encoding: 59 59 30
Width: 211
GlyphClass: 2
Flags: W
LayerCount: 2
Fore
SplineSet
53 394 m 0,0,1
 53 422 53 422 73 442 c 128,-1,2
 93 462 93 462 120 462 c 0,3,4
 148 462 148 462 168 442 c 128,-1,5
 188 422 188 422 188 394 c 0,6,7
 188 367 188 367 168 347 c 128,-1,8
 148 327 148 327 120 327 c 0,9,10
 93 327 93 327 73 347 c 128,-1,11
 53 367 53 367 53 394 c 0,0,1
54 46 m 0,12,13
 54 74 54 74 69.5 92 c 128,-1,14
 85 110 85 110 111 110 c 0,15,16
 139 110 139 110 157 90.5 c 128,-1,17
 175 71 175 71 175 39 c 0,18,19
 175 -54 175 -54 82 -141 c 1,20,-1
 33 -110 l 1,21,22
 67 -71 67 -71 81 -22 c 0,23,24
 79 -17 79 -17 72.5 -6.5 c 128,-1,25
 66 4 66 4 63 10 c 128,-1,26
 60 16 60 16 57 26 c 128,-1,27
 54 36 54 36 54 46 c 0,12,13
EndSplineSet
Validated: 1
EndChar

StartChar: less
Encoding: 60 60 31
Width: 531
GlyphClass: 2
Flags: W
LayerCount: 2
Fore
SplineSet
486 381 m 1,0,-1
 176 262 l 1,1,-1
 176 256 l 1,2,-1
 486 138 l 1,3,-1
 486 35 l 1,4,-1
 46 220 l 1,5,-1
 46 299 l 1,6,-1
 486 484 l 1,7,-1
 486 381 l 1,0,-1
EndSplineSet
Validated: 1
EndChar

StartChar: equal
Encoding: 61 61 32
Width: 506
GlyphClass: 2
Flags: W
LayerCount: 2
Fore
SplineSet
460 151 m 1,0,-1
 46 151 l 1,1,-1
 46 237 l 1,2,-1
 460 237 l 1,3,-1
 460 151 l 1,0,-1
460 319 m 1,4,-1
 46 319 l 1,5,-1
 46 405 l 1,6,-1
 460 405 l 1,7,-1
 460 319 l 1,4,-1
EndSplineSet
Validated: 1
EndChar

StartChar: greater
Encoding: 62 62 33
Width: 531
GlyphClass: 2
Flags: W
LayerCount: 2
Fore
SplineSet
46 138 m 1,0,-1
 356 256 l 1,1,-1
 356 262 l 1,2,-1
 46 381 l 1,3,-1
 46 484 l 1,4,-1
 486 299 l 1,5,-1
 486 220 l 1,6,-1
 46 35 l 1,7,-1
 46 138 l 1,0,-1
EndSplineSet
Validated: 1
EndChar

StartChar: question
Encoding: 63 63 34
Width: 429
GlyphClass: 2
Flags: W
LayerCount: 2
Fore
SplineSet
251 230 m 1,0,-1
 167 200 l 1,1,2
 132 243 132 243 132 282 c 0,3,4
 132 328 132 328 151 362.5 c 128,-1,5
 170 397 170 397 209 438 c 0,6,7
 211 441 211 441 219 449.5 c 128,-1,8
 227 458 227 458 229 461 c 128,-1,9
 231 464 231 464 237.5 472 c 128,-1,10
 244 480 244 480 246.5 483.5 c 128,-1,11
 249 487 249 487 253.5 494 c 128,-1,12
 258 501 258 501 260 506 c 128,-1,13
 262 511 262 511 264 518 c 128,-1,14
 266 525 266 525 267 531.5 c 128,-1,15
 268 538 268 538 268 545 c 0,16,17
 268 576 268 576 247 594.5 c 128,-1,18
 226 613 226 613 191 613 c 0,19,20
 142 613 142 613 67 585 c 1,21,-1
 46 672 l 1,22,23
 130 710 130 710 210 710 c 0,24,25
 287 709 287 709 335.5 665.5 c 128,-1,26
 384 622 384 622 384 553 c 0,27,28
 384 530 384 530 380.5 513 c 128,-1,29
 377 496 377 496 364 476.5 c 128,-1,30
 351 457 351 457 347 451 c 128,-1,31
 343 445 343 445 319.5 421 c 128,-1,32
 296 397 296 397 293 394 c 0,33,34
 233 334 233 334 233 287 c 0,35,36
 233 255 233 255 251 230 c 1,0,-1
123 58 m 0,37,38
 123 86 123 86 143 106 c 128,-1,39
 163 126 163 126 190 126 c 0,40,41
 218 126 218 126 238 106 c 128,-1,42
 258 86 258 86 258 58 c 0,43,44
 258 31 258 31 238 11 c 128,-1,45
 218 -9 218 -9 190 -9 c 0,46,47
 163 -9 163 -9 143 11 c 128,-1,48
 123 31 123 31 123 58 c 0,37,38
EndSplineSet
Validated: 1
EndChar

StartChar: at
Encoding: 64 64 35
Width: 951
GlyphClass: 2
Flags: W
LayerCount: 2
Fore
SplineSet
458 450 m 0,0,1
 516 450 516 450 559 418 c 1,2,-1
 559 440 l 1,3,-1
 651 440 l 1,4,-1
 651 150 l 2,5,6
 651 109 651 109 668 84 c 128,-1,7
 685 59 685 59 711 59 c 0,8,9
 818 59 818 59 818 270 c 0,10,11
 818 409 818 409 725.5 505.5 c 128,-1,12
 633 602 633 602 485 602 c 0,13,14
 336 602 336 602 241.5 493 c 128,-1,15
 147 384 147 384 147 230 c 0,16,17
 147 67 147 67 243.5 -37.5 c 128,-1,18
 340 -142 340 -142 485 -142 c 0,19,20
 533 -142 533 -142 578 -130 c 1,21,-1
 580 -211 l 1,22,23
 534 -220 534 -220 485 -220 c 0,24,25
 301 -220 301 -220 178 -93.5 c 128,-1,26
 55 33 55 33 55 230 c 0,27,28
 55 429 55 429 175 554.5 c 128,-1,29
 295 680 295 680 485 680 c 0,30,31
 667 680 667 680 786.5 565 c 128,-1,32
 906 450 906 450 906 270 c 0,33,34
 906 203 906 203 886 141 c 128,-1,35
 866 79 866 79 819 32.5 c 128,-1,36
 772 -14 772 -14 707 -14 c 0,37,38
 670 -14 670 -14 635.5 5 c 128,-1,39
 601 24 601 24 581 59 c 1,40,41
 531 -10 531 -10 448 -10 c 0,42,43
 373 -10 373 -10 320 53 c 128,-1,44
 267 116 267 116 267 210 c 0,45,46
 267 306 267 306 323 378 c 128,-1,47
 379 450 379 450 458 450 c 0,0,1
561 116 m 1,48,49
 559 136 559 136 559 147 c 2,50,-1
 559 346 l 1,51,52
 522 372 522 372 466 372 c 0,53,54
 422 372 422 372 390.5 323 c 128,-1,55
 359 274 359 274 359 210 c 0,56,57
 359 148 359 148 390 108 c 128,-1,58
 421 68 421 68 466 68 c 0,59,60
 531 68 531 68 561 116 c 1,48,49
EndSplineSet
Validated: 1
EndChar

StartChar: A
Encoding: 65 65 36
Width: 662
GlyphClass: 2
Flags: W
LayerCount: 2
Fore
SplineSet
526 0 m 1,0,-1
 462 183 l 1,1,-1
 199 183 l 1,2,-1
 135 0 l 1,3,-1
 13 0 l 1,4,-1
 277 700 l 1,5,-1
 384 700 l 1,6,-1
 648 0 l 1,7,-1
 526 0 l 1,0,-1
318 523 m 1,8,-1
 231 275 l 1,9,-1
 430 275 l 1,10,-1
 344 523 l 1,11,-1
 334 569 l 1,12,-1
 328 569 l 1,13,-1
 318 523 l 1,8,-1
EndSplineSet
Validated: 1
Substitution2: "'smcp' Lowercase to Small Capitals in Latin lookup 5 subtable" A.smcp
Substitution2: "'aalt' Access All Alternates in Latin lookup 0 subtable" A.smcp
EndChar

StartChar: B
Encoding: 66 66 37
Width: 624
GlyphClass: 2
Flags: W
LayerCount: 2
Fore
SplineSet
78 0 m 1,0,-1
 78 700 l 1,1,-1
 284 700 l 2,2,3
 406 700 406 700 474.5 646 c 128,-1,4
 543 592 543 592 543 510 c 0,5,6
 543 461 543 461 516.5 422.5 c 128,-1,7
 490 384 490 384 444 365 c 1,8,-1
 444 359 l 1,9,10
 509 343 509 343 546 296.5 c 128,-1,11
 583 250 583 250 583 190 c 0,12,13
 583 108 583 108 514.5 54 c 128,-1,14
 446 0 446 0 324 0 c 2,15,-1
 78 0 l 1,0,-1
338 310 m 2,16,-1
 190 310 l 1,17,-1
 190 94 l 1,18,-1
 328 94 l 2,19,20
 398 94 398 94 434.5 122 c 128,-1,21
 471 150 471 150 471 196 c 0,22,23
 471 247 471 247 437.5 278.5 c 128,-1,24
 404 310 404 310 338 310 c 2,16,-1
288 606 m 2,25,-1
 190 606 l 1,26,-1
 190 400 l 1,27,-1
 298 400 l 2,28,29
 364 400 364 400 397.5 429 c 128,-1,30
 431 458 431 458 431 505 c 0,31,32
 431 549 431 549 395 577.5 c 128,-1,33
 359 606 359 606 288 606 c 2,25,-1
EndSplineSet
Validated: 1
Substitution2: "'smcp' Lowercase to Small Capitals in Latin lookup 5 subtable" B.smcp
Substitution2: "'aalt' Access All Alternates in Latin lookup 0 subtable" B.smcp
EndChar

StartChar: C
Encoding: 67 67 38
Width: 578
GlyphClass: 2
Flags: W
LayerCount: 2
Fore
SplineSet
153 350 m 0,0,1
 153 236 153 236 222 160 c 128,-1,2
 291 84 291 84 393 84 c 0,3,4
 483 84 483 84 538 107 c 1,5,-1
 562 18 l 1,6,7
 492 -10 492 -10 393 -10 c 0,8,9
 243 -10 243 -10 142 93 c 128,-1,10
 41 196 41 196 41 350 c 128,-1,11
 41 504 41 504 142 607 c 128,-1,12
 243 710 243 710 393 710 c 0,13,14
 493 710 493 710 562 681 c 1,15,-1
 538 593 l 1,16,17
 477 616 477 616 393 616 c 0,18,19
 292 616 292 616 222.5 537.5 c 128,-1,20
 153 459 153 459 153 350 c 0,0,1
EndSplineSet
Validated: 1
Substitution2: "'smcp' Lowercase to Small Capitals in Latin lookup 5 subtable" C.smcp
Substitution2: "'aalt' Access All Alternates in Latin lookup 0 subtable" C.smcp
EndChar

StartChar: D
Encoding: 68 68 39
Width: 682
GlyphClass: 2
Flags: W
LayerCount: 2
Fore
SplineSet
78 0 m 1,0,-1
 78 700 l 1,1,-1
 279 700 l 2,2,3
 440 700 440 700 540.5 600.5 c 128,-1,4
 641 501 641 501 641 350 c 128,-1,5
 641 199 641 199 540.5 99.5 c 128,-1,6
 440 0 440 0 279 0 c 2,7,-1
 78 0 l 1,0,-1
279 606 m 2,8,-1
 190 606 l 1,9,-1
 190 94 l 1,10,-1
 279 94 l 2,11,12
 392 94 392 94 460.5 166 c 128,-1,13
 529 238 529 238 529 350 c 0,14,15
 529 457 529 457 460 531.5 c 128,-1,16
 391 606 391 606 279 606 c 2,8,-1
EndSplineSet
Validated: 1
Substitution2: "'smcp' Lowercase to Small Capitals in Latin lookup 5 subtable" D.smcp
Substitution2: "'aalt' Access All Alternates in Latin lookup 0 subtable" D.smcp
EndChar

StartChar: E
Encoding: 69 69 40
Width: 548
GlyphClass: 2
Flags: W
LayerCount: 2
Fore
SplineSet
507 0 m 1,0,-1
 78 0 l 1,1,-1
 78 700 l 1,2,-1
 507 700 l 1,3,-1
 507 606 l 1,4,-1
 190 606 l 1,5,-1
 190 405 l 1,6,-1
 491 405 l 1,7,-1
 491 311 l 1,8,-1
 190 311 l 1,9,-1
 190 94 l 1,10,-1
 507 94 l 1,11,-1
 507 0 l 1,0,-1
EndSplineSet
Validated: 1
Substitution2: "'smcp' Lowercase to Small Capitals in Latin lookup 5 subtable" E.smcp
Substitution2: "'aalt' Access All Alternates in Latin lookup 0 subtable" E.smcp
EndChar

StartChar: F
Encoding: 70 70 41
Width: 539
GlyphClass: 2
Flags: W
LayerCount: 2
Fore
SplineSet
491 311 m 1,0,-1
 190 311 l 1,1,-1
 190 0 l 1,2,-1
 78 0 l 1,3,-1
 78 700 l 1,4,-1
 507 700 l 1,5,-1
 507 606 l 1,6,-1
 190 606 l 1,7,-1
 190 405 l 1,8,-1
 491 405 l 1,9,-1
 491 311 l 1,0,-1
EndSplineSet
Validated: 1
Substitution2: "'smcp' Lowercase to Small Capitals in Latin lookup 5 subtable" F.smcp
Substitution2: "'aalt' Access All Alternates in Latin lookup 0 subtable" F.smcp
EndChar

StartChar: G
Encoding: 71 71 42
Width: 680
GlyphClass: 2
Flags: W
LayerCount: 2
Fore
SplineSet
153 350 m 0,0,1
 153 236 153 236 222 160 c 128,-1,2
 291 84 291 84 393 84 c 0,3,4
 454 84 454 84 502 91 c 1,5,-1
 502 328 l 1,6,-1
 614 328 l 1,7,-1
 614 28 l 1,8,9
 524 -10 524 -10 393 -10 c 0,10,11
 243 -10 243 -10 142 93 c 128,-1,12
 41 196 41 196 41 350 c 128,-1,13
 41 504 41 504 142 607 c 128,-1,14
 243 710 243 710 393 710 c 0,15,16
 509 710 509 710 582 678 c 1,17,-1
 558 591 l 1,18,19
 488 616 488 616 393 616 c 0,20,21
 292 616 292 616 222.5 537.5 c 128,-1,22
 153 459 153 459 153 350 c 0,0,1
EndSplineSet
Validated: 1
Substitution2: "'smcp' Lowercase to Small Capitals in Latin lookup 5 subtable" G.smcp
Substitution2: "'aalt' Access All Alternates in Latin lookup 0 subtable" G.smcp
EndChar

StartChar: H
Encoding: 72 72 43
Width: 713
GlyphClass: 2
Flags: W
LayerCount: 2
Fore
SplineSet
523 0 m 1,0,-1
 523 311 l 1,1,-1
 190 311 l 1,2,-1
 190 0 l 1,3,-1
 78 0 l 1,4,-1
 78 700 l 1,5,-1
 190 700 l 1,6,-1
 190 405 l 1,7,-1
 523 405 l 1,8,-1
 523 700 l 1,9,-1
 635 700 l 1,10,-1
 635 0 l 1,11,-1
 523 0 l 1,0,-1
EndSplineSet
Validated: 1
Substitution2: "'smcp' Lowercase to Small Capitals in Latin lookup 5 subtable" H.smcp
Substitution2: "'aalt' Access All Alternates in Latin lookup 0 subtable" H.smcp
EndChar

StartChar: I
Encoding: 73 73 44
Width: 277
GlyphClass: 2
Flags: W
LayerCount: 2
Fore
SplineSet
82 0 m 1,0,-1
 82 700 l 1,1,-1
 194 700 l 1,2,-1
 194 0 l 1,3,-1
 82 0 l 1,0,-1
EndSplineSet
Validated: 1
Substitution2: "'smcp' Lowercase to Small Capitals in Latin lookup 5 subtable" I.smcp
Substitution2: "'aalt' Access All Alternates in Latin lookup 0 subtable" I.smcp
EndChar

StartChar: J
Encoding: 74 74 45
Width: 423
GlyphClass: 2
Flags: W
LayerCount: 2
Fore
SplineSet
234 194 m 2,0,-1
 234 700 l 1,1,-1
 346 700 l 1,2,-1
 346 194 l 2,3,4
 346 102 346 102 289 46 c 128,-1,5
 232 -10 232 -10 138 -10 c 0,6,7
 74 -10 74 -10 23 12 c 1,8,-1
 41 100 l 1,9,10
 83 84 83 84 130 84 c 0,11,12
 179 84 179 84 206.5 113.5 c 128,-1,13
 234 143 234 143 234 194 c 2,0,-1
EndSplineSet
Validated: 1
Substitution2: "'smcp' Lowercase to Small Capitals in Latin lookup 5 subtable" J.smcp
Substitution2: "'aalt' Access All Alternates in Latin lookup 0 subtable" J.smcp
EndChar

StartChar: K
Encoding: 75 75 46
Width: 661
GlyphClass: 2
Flags: W
LayerCount: 2
Fore
SplineSet
502 0 m 1,0,-1
 253 302 l 1,1,-1
 190 231 l 1,2,-1
 190 0 l 1,3,-1
 78 0 l 1,4,-1
 78 700 l 1,5,-1
 190 700 l 1,6,-1
 190 379 l 1,7,-1
 196 377 l 1,8,-1
 461 700 l 1,9,-1
 597 700 l 1,10,-1
 599 695 l 1,11,-1
 327 386 l 1,12,-1
 643 5 l 1,13,-1
 641 0 l 1,14,-1
 502 0 l 1,0,-1
EndSplineSet
Validated: 1
Substitution2: "'smcp' Lowercase to Small Capitals in Latin lookup 5 subtable" K.smcp
Substitution2: "'aalt' Access All Alternates in Latin lookup 0 subtable" K.smcp
EndChar

StartChar: L
Encoding: 76 76 47
Width: 503
GlyphClass: 2
Flags: W
LayerCount: 2
Fore
SplineSet
78 0 m 1,0,-1
 78 700 l 1,1,-1
 190 700 l 1,2,-1
 190 94 l 1,3,-1
 485 94 l 1,4,-1
 485 0 l 1,5,-1
 78 0 l 1,0,-1
EndSplineSet
Validated: 1
Substitution2: "'smcp' Lowercase to Small Capitals in Latin lookup 5 subtable" L.smcp
Substitution2: "'aalt' Access All Alternates in Latin lookup 0 subtable" L.smcp
EndChar

StartChar: M
Encoding: 77 77 48
Width: 933
GlyphClass: 2
Flags: W
LayerCount: 2
Fore
SplineSet
743 0 m 1,0,-1
 743 530 l 1,1,-1
 737 531 l 1,2,-1
 727 496 l 1,3,-1
 508 0 l 1,4,-1
 427 0 l 1,5,-1
 208 496 l 1,6,-1
 196 538 l 1,7,-1
 190 537 l 1,8,-1
 190 0 l 1,9,-1
 78 0 l 1,10,-1
 78 700 l 1,11,-1
 226 700 l 1,12,-1
 454 174 l 1,13,-1
 465 131 l 1,14,-1
 471 131 l 1,15,-1
 482 174 l 1,16,-1
 709 700 l 1,17,-1
 855 700 l 1,18,-1
 855 0 l 1,19,-1
 743 0 l 1,0,-1
EndSplineSet
Validated: 1
Substitution2: "'smcp' Lowercase to Small Capitals in Latin lookup 5 subtable" M.smcp
Substitution2: "'aalt' Access All Alternates in Latin lookup 0 subtable" M.smcp
EndChar

StartChar: N
Encoding: 78 78 49
Width: 753
GlyphClass: 2
Flags: W
LayerCount: 2
Fore
SplineSet
571 0 m 1,0,-1
 232 461 l 1,1,-1
 196 524 l 1,2,-1
 190 522 l 1,3,-1
 190 0 l 1,4,-1
 78 0 l 1,5,-1
 78 700 l 1,6,-1
 182 700 l 1,7,-1
 523 231 l 1,8,-1
 557 172 l 1,9,-1
 563 174 l 1,10,-1
 563 700 l 1,11,-1
 675 700 l 1,12,-1
 675 0 l 1,13,-1
 571 0 l 1,0,-1
EndSplineSet
Validated: 1
Substitution2: "'smcp' Lowercase to Small Capitals in Latin lookup 5 subtable" N.smcp
Substitution2: "'aalt' Access All Alternates in Latin lookup 0 subtable" N.smcp
EndChar

StartChar: O
Encoding: 79 79 50
Width: 791
GlyphClass: 2
Flags: W
LayerCount: 2
Fore
SplineSet
41 350 m 128,-1,1
 41 503 41 503 143.5 606.5 c 128,-1,2
 246 710 246 710 395 710 c 0,3,4
 541 710 541 710 645.5 606 c 128,-1,5
 750 502 750 502 750 350 c 0,6,7
 750 197 750 197 647.5 93.5 c 128,-1,8
 545 -10 545 -10 395 -10 c 0,9,10
 246 -10 246 -10 143.5 93.5 c 128,-1,0
 41 197 41 197 41 350 c 128,-1,1
153 350 m 0,11,12
 153 235 153 235 221.5 159.5 c 128,-1,13
 290 84 290 84 395 84 c 0,14,15
 499 84 499 84 568.5 160 c 128,-1,16
 638 236 638 236 638 350 c 0,17,18
 638 460 638 460 569 538 c 128,-1,19
 500 616 500 616 395 616 c 0,20,21
 291 616 291 616 222 538 c 128,-1,22
 153 460 153 460 153 350 c 0,11,12
EndSplineSet
Validated: 1
Substitution2: "'smcp' Lowercase to Small Capitals in Latin lookup 5 subtable" O.smcp
Substitution2: "'aalt' Access All Alternates in Latin lookup 0 subtable" O.smcp
EndChar

StartChar: P
Encoding: 80 80 51
Width: 630
GlyphClass: 2
Flags: W
LayerCount: 2
Fore
SplineSet
78 0 m 1,0,-1
 78 700 l 1,1,-1
 329 700 l 2,2,3
 456 700 456 700 526.5 639 c 128,-1,4
 597 578 597 578 597 482 c 128,-1,5
 597 386 597 386 526.5 325 c 128,-1,6
 456 264 456 264 329 264 c 2,7,-1
 190 264 l 1,8,-1
 190 0 l 1,9,-1
 78 0 l 1,0,-1
329 606 m 2,10,-1
 190 606 l 1,11,-1
 190 358 l 1,12,-1
 329 358 l 2,13,14
 406 358 406 358 445.5 392 c 128,-1,15
 485 426 485 426 485 482 c 0,16,17
 485 537 485 537 445 571.5 c 128,-1,18
 405 606 405 606 329 606 c 2,10,-1
EndSplineSet
Validated: 1
Substitution2: "'smcp' Lowercase to Small Capitals in Latin lookup 5 subtable" P.smcp
Substitution2: "'aalt' Access All Alternates in Latin lookup 0 subtable" P.smcp
EndChar

StartChar: Q
Encoding: 81 81 52
Width: 808
GlyphClass: 2
Flags: W
LayerCount: 2
Fore
SplineSet
49 350 m 128,-1,1
 49 503 49 503 151.5 606.5 c 128,-1,2
 254 710 254 710 403 710 c 0,3,4
 549 710 549 710 653.5 606 c 128,-1,5
 758 502 758 502 758 350 c 0,6,7
 758 206 758 206 665 103 c 1,8,-1
 778 -11 l 1,9,-1
 703 -79 l 1,10,-1
 585 39 l 1,11,12
 504 -10 504 -10 403 -10 c 0,13,14
 254 -10 254 -10 151.5 93.5 c 128,-1,0
 49 197 49 197 49 350 c 128,-1,1
161 350 m 0,15,16
 161 235 161 235 229.5 159.5 c 128,-1,17
 298 84 298 84 403 84 c 0,18,19
 507 84 507 84 576.5 160 c 128,-1,20
 646 236 646 236 646 350 c 0,21,22
 646 460 646 460 577 538 c 128,-1,23
 508 616 508 616 403 616 c 0,24,25
 299 616 299 616 230 538 c 128,-1,26
 161 460 161 460 161 350 c 0,15,16
EndSplineSet
Validated: 1
Substitution2: "'smcp' Lowercase to Small Capitals in Latin lookup 5 subtable" Q.smcp
Substitution2: "'aalt' Access All Alternates in Latin lookup 0 subtable" Q.smcp
EndChar

StartChar: R
Encoding: 82 82 53
Width: 613
GlyphClass: 2
Flags: W
LayerCount: 2
Fore
SplineSet
474 0 m 1,0,-1
 313 284 l 1,1,-1
 190 284 l 1,2,-1
 190 0 l 1,3,-1
 78 0 l 1,4,-1
 78 700 l 1,5,-1
 295 700 l 2,6,7
 417 700 417 700 487 640.5 c 128,-1,8
 557 581 557 581 557 492 c 0,9,10
 557 430 557 430 522 380.5 c 128,-1,11
 487 331 487 331 423 306 c 1,12,-1
 601 0 l 1,13,-1
 474 0 l 1,0,-1
295 606 m 2,14,-1
 190 606 l 1,15,-1
 190 378 l 1,16,-1
 295 378 l 2,17,18
 369 378 369 378 407 408.5 c 128,-1,19
 445 439 445 439 445 492 c 0,20,21
 445 544 445 544 407 575 c 128,-1,22
 369 606 369 606 295 606 c 2,14,-1
EndSplineSet
Validated: 1
Substitution2: "'smcp' Lowercase to Small Capitals in Latin lookup 5 subtable" R.smcp
Substitution2: "'aalt' Access All Alternates in Latin lookup 0 subtable" R.smcp
EndChar

StartChar: S
Encoding: 83 83 54
Width: 548
GlyphClass: 2
Flags: W
LayerCount: 2
Fore
SplineSet
53 33 m 1,0,-1
 76 124 l 1,1,2
 175 88 175 88 255 88 c 0,3,4
 308 88 308 88 345 114.5 c 128,-1,5
 382 141 382 141 382 192 c 0,6,7
 382 234 382 234 351.5 260 c 128,-1,8
 321 286 321 286 246 310 c 0,9,10
 53 376 53 376 53 509 c 0,11,12
 53 606 53 606 120.5 658 c 128,-1,13
 188 710 188 710 286 710 c 0,14,15
 379 710 379 710 482 667 c 1,16,-1
 458 575 l 1,17,18
 364 612 364 612 286 612 c 0,19,20
 237 612 237 612 203 586 c 128,-1,21
 169 560 169 560 169 513 c 0,22,23
 169 476 169 476 200 449 c 128,-1,24
 231 422 231 422 303 397 c 0,25,26
 396 363 396 363 447 316.5 c 128,-1,27
 498 270 498 270 498 197 c 0,28,29
 498 96 498 96 427.5 43 c 128,-1,30
 357 -10 357 -10 255 -10 c 0,31,32
 159 -10 159 -10 53 33 c 1,0,-1
EndSplineSet
Validated: 1
Substitution2: "'smcp' Lowercase to Small Capitals in Latin lookup 5 subtable" S.smcp
Substitution2: "'aalt' Access All Alternates in Latin lookup 0 subtable" S.smcp
EndChar

StartChar: T
Encoding: 84 84 55
Width: 540
GlyphClass: 2
Flags: W
LayerCount: 2
Fore
SplineSet
522 606 m 1,0,-1
 329 606 l 1,1,-1
 329 0 l 1,2,-1
 217 0 l 1,3,-1
 217 606 l 1,4,-1
 18 606 l 1,5,-1
 18 700 l 1,6,-1
 522 700 l 1,7,-1
 522 606 l 1,0,-1
EndSplineSet
Validated: 1
Substitution2: "'smcp' Lowercase to Small Capitals in Latin lookup 5 subtable" T.smcp
Substitution2: "'aalt' Access All Alternates in Latin lookup 0 subtable" T.smcp
EndChar

StartChar: U
Encoding: 85 85 56
Width: 702
GlyphClass: 2
Flags: W
LayerCount: 2
Fore
SplineSet
634 700 m 1,0,-1
 634 250 l 2,1,2
 634 134 634 134 553 62 c 128,-1,3
 472 -10 472 -10 351 -10 c 128,-1,4
 230 -10 230 -10 149.5 62 c 128,-1,5
 69 134 69 134 69 250 c 2,6,-1
 69 700 l 1,7,-1
 181 700 l 1,8,-1
 181 250 l 2,9,10
 181 173 181 173 229 128.5 c 128,-1,11
 277 84 277 84 351 84 c 0,12,13
 424 84 424 84 473 129 c 128,-1,14
 522 174 522 174 522 250 c 2,15,-1
 522 700 l 1,16,-1
 634 700 l 1,0,-1
EndSplineSet
Validated: 1
Substitution2: "'smcp' Lowercase to Small Capitals in Latin lookup 5 subtable" U.smcp
Substitution2: "'aalt' Access All Alternates in Latin lookup 0 subtable" U.smcp
EndChar

StartChar: V
Encoding: 86 86 57
Width: 670
GlyphClass: 2
Flags: W
LayerCount: 2
Fore
SplineSet
137 700 m 1,0,-1
 323 161 l 1,1,-1
 331 116 l 1,2,-1
 337 116 l 1,3,-1
 349 161 l 1,4,-1
 532 700 l 1,5,-1
 656 700 l 1,6,-1
 397 0 l 1,7,-1
 272 0 l 1,8,-1
 13 700 l 1,9,-1
 137 700 l 1,0,-1
EndSplineSet
Validated: 1
Substitution2: "'smcp' Lowercase to Small Capitals in Latin lookup 5 subtable" V.smcp
Substitution2: "'aalt' Access All Alternates in Latin lookup 0 subtable" V.smcp
EndChar

StartChar: W
Encoding: 87 87 58
Width: 913
GlyphClass: 2
Flags: W
LayerCount: 2
Fore
SplineSet
501 700 m 1,0,-1
 658 181 l 1,1,-1
 664 143 l 1,2,-1
 670 143 l 1,3,-1
 675 181 l 1,4,-1
 780 700 l 1,5,-1
 899 700 l 1,6,-1
 731 0 l 1,7,-1
 618 0 l 1,8,-1
 464 496 l 1,9,-1
 459 528 l 1,10,-1
 453 528 l 1,11,-1
 448 496 l 1,12,-1
 294 0 l 1,13,-1
 181 0 l 1,14,-1
 13 700 l 1,15,-1
 132 700 l 1,16,-1
 239 177 l 1,17,-1
 243 143 l 1,18,-1
 249 143 l 1,19,-1
 255 177 l 1,20,-1
 411 700 l 1,21,-1
 501 700 l 1,0,-1
EndSplineSet
Validated: 1
Substitution2: "'smcp' Lowercase to Small Capitals in Latin lookup 5 subtable" W.smcp
Substitution2: "'aalt' Access All Alternates in Latin lookup 0 subtable" W.smcp
EndChar

StartChar: X
Encoding: 88 88 59
Width: 669
GlyphClass: 2
Flags: W
LayerCount: 2
Fore
SplineSet
521 0 m 1,0,-1
 336 266 l 1,1,-1
 152 0 l 1,2,-1
 26 0 l 1,3,-1
 273 358 l 1,4,-1
 36 700 l 1,5,-1
 164 700 l 1,6,-1
 336 450 l 1,7,-1
 509 700 l 1,8,-1
 637 700 l 1,9,-1
 400 358 l 1,10,-1
 647 0 l 1,11,-1
 521 0 l 1,0,-1
EndSplineSet
Validated: 1
Substitution2: "'smcp' Lowercase to Small Capitals in Latin lookup 5 subtable" X.smcp
Substitution2: "'aalt' Access All Alternates in Latin lookup 0 subtable" X.smcp
EndChar

StartChar: Y
Encoding: 89 89 60
Width: 634
GlyphClass: 2
Flags: W
LayerCount: 2
Fore
SplineSet
137 700 m 1,0,-1
 305 376 l 1,1,-1
 313 348 l 1,2,-1
 319 348 l 1,3,-1
 328 376 l 1,4,-1
 496 700 l 1,5,-1
 620 700 l 1,6,-1
 372 247 l 1,7,-1
 372 0 l 1,8,-1
 260 0 l 1,9,-1
 260 249 l 1,10,-1
 13 700 l 1,11,-1
 137 700 l 1,0,-1
EndSplineSet
Validated: 1
Substitution2: "'smcp' Lowercase to Small Capitals in Latin lookup 5 subtable" Y.smcp
Substitution2: "'aalt' Access All Alternates in Latin lookup 0 subtable" Y.smcp
EndChar

StartChar: Z
Encoding: 90 90 61
Width: 583
GlyphClass: 2
Flags: W
LayerCount: 2
Fore
SplineSet
42 606 m 1,0,-1
 42 700 l 1,1,-1
 541 700 l 1,2,-1
 541 634 l 1,3,-1
 173 94 l 1,4,-1
 551 94 l 1,5,-1
 551 0 l 1,6,-1
 32 0 l 1,7,-1
 32 66 l 1,8,-1
 398 606 l 1,9,-1
 42 606 l 1,0,-1
EndSplineSet
Validated: 1
Substitution2: "'smcp' Lowercase to Small Capitals in Latin lookup 5 subtable" Z.smcp
Substitution2: "'aalt' Access All Alternates in Latin lookup 0 subtable" Z.smcp
EndChar

StartChar: bracketleft
Encoding: 91 91 62
Width: 310
GlyphClass: 2
Flags: W
LayerCount: 2
Fore
SplineSet
78 -178 m 1,0,-1
 78 748 l 1,1,-1
 265 748 l 1,2,-1
 265 658 l 1,3,-1
 182 658 l 1,4,-1
 182 -88 l 1,5,-1
 265 -88 l 1,6,-1
 265 -178 l 1,7,-1
 78 -178 l 1,0,-1
EndSplineSet
Validated: 1
EndChar

StartChar: backslash
Encoding: 92 92 63
Width: 384
GlyphClass: 2
Flags: W
LayerCount: 2
Fore
SplineSet
104 730 m 1,0,-1
 384 -110 l 1,1,-1
 280 -110 l 1,2,-1
 0 730 l 1,3,-1
 104 730 l 1,0,-1
EndSplineSet
Validated: 1
EndChar

StartChar: bracketright
Encoding: 93 93 64
Width: 310
GlyphClass: 2
Flags: W
LayerCount: 2
Fore
SplineSet
46 748 m 1,0,-1
 233 748 l 1,1,-1
 233 -178 l 1,2,-1
 46 -178 l 1,3,-1
 46 -88 l 1,4,-1
 129 -88 l 1,5,-1
 129 658 l 1,6,-1
 46 658 l 1,7,-1
 46 748 l 1,0,-1
EndSplineSet
Validated: 1
EndChar

StartChar: asciicircum
Encoding: 94 94 65
Width: 529
GlyphClass: 2
Flags: W
LayerCount: 2
Fore
SplineSet
255 564 m 1,0,-1
 153 300 l 1,1,-1
 55 300 l 1,2,-1
 220 700 l 1,3,-1
 309 700 l 1,4,-1
 474 300 l 1,5,-1
 376 300 l 1,6,-1
 275 564 l 1,7,-1
 268 598 l 1,8,-1
 262 598 l 1,9,-1
 255 564 l 1,0,-1
EndSplineSet
Validated: 1
EndChar

StartChar: underscore
Encoding: 95 95 66
Width: 507
GlyphClass: 2
Flags: W
LayerCount: 2
Fore
SplineSet
462 -86 m 1,0,-1
 46 -86 l 1,1,-1
 46 0 l 1,2,-1
 462 0 l 1,3,-1
 462 -86 l 1,0,-1
EndSplineSet
Validated: 1
EndChar

StartChar: grave
Encoding: 96 96 67
Width: 294
GlyphClass: 2
Flags: W
LayerCount: 2
Fore
SplineSet
164 700 m 1,0,-1
 252 556 l 1,1,-1
 158 556 l 1,2,-1
 47 700 l 1,3,-1
 164 700 l 1,0,-1
EndSplineSet
Validated: 1
EndChar

StartChar: a
Encoding: 97 97 68
Width: 632
GlyphClass: 2
Flags: W
LayerCount: 2
Fore
SplineSet
287 510 m 0,0,1
 378 510 378 510 433 463 c 1,2,-1
 438 465 l 1,3,-1
 438 500 l 1,4,-1
 550 500 l 1,5,-1
 550 0 l 1,6,-1
 438 0 l 1,7,-1
 438 51 l 1,8,-1
 432 53 l 1,9,10
 378 -10 378 -10 277 -10 c 128,-1,11
 176 -10 176 -10 106 65.5 c 128,-1,12
 36 141 36 141 36 250 c 128,-1,13
 36 359 36 359 109 434.5 c 128,-1,14
 182 510 182 510 287 510 c 0,0,1
301 84 m 0,15,16
 398 84 398 84 438 160 c 1,17,-1
 438 374 l 1,18,19
 383 416 383 416 301 416 c 0,20,21
 238 416 238 416 193 368 c 128,-1,22
 148 320 148 320 148 250 c 0,23,24
 148 181 148 181 193 132.5 c 128,-1,25
 238 84 238 84 301 84 c 0,15,16
EndSplineSet
Validated: 1
Substitution2: "'smcp' Lowercase to Small Capitals in Latin lookup 5 subtable" A.smcp
Substitution2: "'ss01' Style Set 1 in Latin lookup 3 subtable" a.alt
AlternateSubs2: "'aalt' Access All Alternates in Latin lookup 1 subtable" a.alt A.smcp
EndChar

StartChar: b
Encoding: 98 98 69
Width: 622
GlyphClass: 2
Flags: W
LayerCount: 2
Fore
SplineSet
335 -10 m 0,0,1
 238 -10 238 -10 175 45 c 1,2,-1
 160 0 l 1,3,-1
 73 0 l 1,4,-1
 73 730 l 1,5,-1
 185 730 l 1,6,-1
 185 449 l 1,7,-1
 191 447 l 1,8,9
 245 510 245 510 345 510 c 0,10,11
 446 510 446 510 516 434.5 c 128,-1,12
 586 359 586 359 586 250 c 128,-1,13
 586 141 586 141 513 65.5 c 128,-1,14
 440 -10 440 -10 335 -10 c 0,0,1
321 416 m 0,15,16
 225 416 225 416 185 342 c 1,17,-1
 185 119 l 1,18,19
 235 84 235 84 321 84 c 0,20,21
 384 84 384 84 429 132 c 128,-1,22
 474 180 474 180 474 250 c 0,23,24
 474 319 474 319 429 367.5 c 128,-1,25
 384 416 384 416 321 416 c 0,15,16
EndSplineSet
Validated: 1
Substitution2: "'smcp' Lowercase to Small Capitals in Latin lookup 5 subtable" B.smcp
Substitution2: "'aalt' Access All Alternates in Latin lookup 0 subtable" B.smcp
EndChar

StartChar: c
Encoding: 99 99 70
Width: 445
GlyphClass: 2
Flags: W
LayerCount: 2
Fore
SplineSet
144 250 m 128,-1,1
 144 180 144 180 189 132 c 128,-1,2
 234 84 234 84 298 84 c 0,3,4
 365 84 365 84 403 107 c 1,5,-1
 427 18 l 1,6,7
 372 -10 372 -10 298 -10 c 0,8,9
 188 -10 188 -10 112 65.5 c 128,-1,10
 36 141 36 141 36 250 c 128,-1,11
 36 359 36 359 112 434.5 c 128,-1,12
 188 510 188 510 298 510 c 0,13,14
 374 510 374 510 427 483 c 1,15,-1
 403 395 l 1,16,17
 353 416 353 416 298 416 c 0,18,19
 234 416 234 416 189 368 c 128,-1,0
 144 320 144 320 144 250 c 128,-1,1
EndSplineSet
Validated: 1
Substitution2: "'smcp' Lowercase to Small Capitals in Latin lookup 5 subtable" C.smcp
Substitution2: "'aalt' Access All Alternates in Latin lookup 0 subtable" C.smcp
EndChar

StartChar: d
Encoding: 100 100 71
Width: 610
GlyphClass: 2
Flags: W
LayerCount: 2
Fore
SplineSet
295 510 m 0,0,1
 380 510 380 510 438 469 c 1,2,-1
 438 730 l 1,3,-1
 550 730 l 1,4,-1
 550 0 l 1,5,-1
 438 0 l 1,6,-1
 438 43 l 1,7,-1
 432 45 l 1,8,9
 379 -10 379 -10 285 -10 c 0,10,11
 184 -10 184 -10 114 65.5 c 128,-1,12
 44 141 44 141 44 250 c 128,-1,13
 44 359 44 359 117 434.5 c 128,-1,14
 190 510 190 510 295 510 c 0,0,1
309 84 m 0,15,16
 397 84 397 84 438 146 c 1,17,-1
 438 385 l 1,18,19
 387 416 387 416 309 416 c 0,20,21
 246 416 246 416 201 368 c 128,-1,22
 156 320 156 320 156 250 c 0,23,24
 156 181 156 181 201 132.5 c 128,-1,25
 246 84 246 84 309 84 c 0,15,16
EndSplineSet
Validated: 1
Substitution2: "'smcp' Lowercase to Small Capitals in Latin lookup 5 subtable" D.smcp
Substitution2: "'aalt' Access All Alternates in Latin lookup 0 subtable" D.smcp
EndChar

StartChar: e
Encoding: 101 101 72
Width: 563
GlyphClass: 2
Flags: W
LayerCount: 2
Fore
SplineSet
289 510 m 0,0,1
 392 510 392 510 453.5 451.5 c 128,-1,2
 515 393 515 393 522 284 c 1,3,-1
 522 224 l 1,4,-1
 154 224 l 1,5,6
 160 154 160 154 201 119.5 c 128,-1,7
 242 85 242 85 323 84 c 0,8,9
 406 84 406 84 470 114 c 1,10,-1
 491 29 l 1,11,12
 413 -10 413 -10 323 -10 c 0,13,14
 196 -10 196 -10 118.5 59.5 c 128,-1,15
 41 129 41 129 41 249 c 0,16,17
 41 356 41 356 109.5 432.5 c 128,-1,18
 178 509 178 509 289 510 c 0,0,1
292 416 m 0,19,20
 239 416 239 416 205 386 c 128,-1,21
 171 356 171 356 159 306 c 1,22,-1
 409 306 l 1,23,24
 405 360 405 360 373 388 c 128,-1,25
 341 416 341 416 292 416 c 0,19,20
EndSplineSet
Validated: 1
Substitution2: "'smcp' Lowercase to Small Capitals in Latin lookup 5 subtable" E.smcp
Substitution2: "'aalt' Access All Alternates in Latin lookup 0 subtable" E.smcp
EndChar

StartChar: f
Encoding: 102 102 73
Width: 343
GlyphClass: 2
Flags: W
LayerCount: 2
Fore
SplineSet
9 410 m 1,0,-1
 9 500 l 1,1,-1
 90 500 l 1,2,-1
 90 552 l 2,3,4
 90 638 90 638 140.5 689 c 128,-1,5
 191 740 191 740 276 740 c 0,6,7
 341 740 341 740 389 719 c 1,8,-1
 369 634 l 1,9,10
 336 646 336 646 284 646 c 0,11,12
 202 646 202 646 202 552 c 2,13,-1
 202 500 l 1,14,-1
 328 500 l 1,15,-1
 328 410 l 1,16,-1
 202 410 l 1,17,-1
 202 0 l 1,18,-1
 90 0 l 1,19,-1
 90 410 l 1,20,-1
 9 410 l 1,0,-1
EndSplineSet
Validated: 1
Substitution2: "'smcp' Lowercase to Small Capitals in Latin lookup 5 subtable" F.smcp
Substitution2: "'aalt' Access All Alternates in Latin lookup 0 subtable" F.smcp
EndChar

StartChar: g
Encoding: 103 103 74
Width: 616
GlyphClass: 2
Flags: W
LayerCount: 2
Fore
SplineSet
431 -18 m 2,0,-1
 431 44 l 1,1,-1
 425 46 l 1,2,3
 371 -10 371 -10 277 -10 c 0,4,5
 174 -10 174 -10 105 65 c 128,-1,6
 36 140 36 140 36 250 c 128,-1,7
 36 360 36 360 107.5 435 c 128,-1,8
 179 510 179 510 287 510 c 0,9,10
 371 510 371 510 431 471 c 1,11,-1
 431 500 l 1,12,-1
 543 500 l 1,13,-1
 543 -18 l 2,14,15
 543 -118 543 -118 470.5 -179 c 128,-1,16
 398 -240 398 -240 293 -240 c 128,-1,17
 188 -240 188 -240 116 -211 c 1,18,-1
 136 -123 l 1,19,20
 194 -146 194 -146 289 -146 c 0,21,22
 349 -146 349 -146 390 -111.5 c 128,-1,23
 431 -77 431 -77 431 -18 c 2,0,-1
301 84 m 0,24,25
 389 84 389 84 431 148 c 1,26,-1
 431 384 l 1,27,28
 379 416 379 416 301 416 c 0,29,30
 235 416 235 416 191.5 368.5 c 128,-1,31
 148 321 148 321 148 250 c 0,32,33
 148 180 148 180 191.5 132 c 128,-1,34
 235 84 235 84 301 84 c 0,24,25
EndSplineSet
Validated: 1
Substitution2: "'smcp' Lowercase to Small Capitals in Latin lookup 5 subtable" G.smcp
Substitution2: "'aalt' Access All Alternates in Latin lookup 0 subtable" G.smcp
EndChar

StartChar: h
Encoding: 104 104 75
Width: 620
GlyphClass: 2
Flags: W
LayerCount: 2
Fore
SplineSet
73 0 m 1,0,-1
 73 730 l 1,1,-1
 185 730 l 1,2,-1
 185 439 l 1,3,-1
 191 437 l 1,4,5
 252 510 252 510 366 510 c 0,6,7
 444 510 444 510 495.5 454 c 128,-1,8
 547 398 547 398 547 296 c 2,9,-1
 547 0 l 1,10,-1
 435 0 l 1,11,-1
 435 292 l 2,12,13
 435 354 435 354 404.5 385 c 128,-1,14
 374 416 374 416 326 416 c 0,15,16
 282 416 282 416 244.5 396.5 c 128,-1,17
 207 377 207 377 185 342 c 1,18,-1
 185 0 l 1,19,-1
 73 0 l 1,0,-1
EndSplineSet
Validated: 1
Substitution2: "'smcp' Lowercase to Small Capitals in Latin lookup 5 subtable" H.smcp
Substitution2: "'aalt' Access All Alternates in Latin lookup 0 subtable" H.smcp
EndChar

StartChar: i
Encoding: 105 105 76
Width: 288
GlyphClass: 2
Flags: W
LayerCount: 2
Fore
SplineSet
88 0 m 1,0,-1
 88 500 l 1,1,-1
 200 500 l 1,2,-1
 200 0 l 1,3,-1
 88 0 l 1,0,-1
79 650 m 0,4,5
 79 673 79 673 96.5 690 c 128,-1,6
 114 707 114 707 143 707 c 0,7,8
 173 707 173 707 190.5 690 c 128,-1,9
 208 673 208 673 208 650 c 128,-1,10
 208 627 208 627 190.5 610.5 c 128,-1,11
 173 594 173 594 143 594 c 0,12,13
 114 594 114 594 96.5 611 c 128,-1,14
 79 628 79 628 79 650 c 0,4,5
EndSplineSet
Validated: 1
Substitution2: "'smcp' Lowercase to Small Capitals in Latin lookup 5 subtable" I.smcp
Substitution2: "'aalt' Access All Alternates in Latin lookup 0 subtable" I.smcp
EndChar

StartChar: j
Encoding: 106 106 77
Width: 284
GlyphClass: 2
Flags: W
LayerCount: 2
Fore
SplineSet
96 -56 m 2,0,-1
 96 500 l 1,1,-1
 204 500 l 1,2,-1
 204 -56 l 2,3,4
 204 -139 204 -139 151.5 -189.5 c 128,-1,5
 99 -240 99 -240 12 -240 c 0,6,7
 -45 -240 -45 -240 -86 -221 c 1,8,-1
 -67 -134 l 1,9,10
 -42 -146 -42 -146 7 -146 c 0,11,12
 49 -146 49 -146 72.5 -122 c 128,-1,13
 96 -98 96 -98 96 -56 c 2,0,-1
78 650 m 0,14,15
 78 673 78 673 95.5 690 c 128,-1,16
 113 707 113 707 142 707 c 0,17,18
 172 707 172 707 189.5 690 c 128,-1,19
 207 673 207 673 207 650 c 128,-1,20
 207 627 207 627 189.5 610.5 c 128,-1,21
 172 594 172 594 142 594 c 0,22,23
 113 594 113 594 95.5 611 c 128,-1,24
 78 628 78 628 78 650 c 0,14,15
EndSplineSet
Validated: 1
Substitution2: "'smcp' Lowercase to Small Capitals in Latin lookup 5 subtable" J.smcp
Substitution2: "'aalt' Access All Alternates in Latin lookup 0 subtable" J.smcp
EndChar

StartChar: k
Encoding: 107 107 78
Width: 567
GlyphClass: 2
Flags: W
LayerCount: 2
Fore
SplineSet
415 0 m 1,0,-1
 233 218 l 1,1,-1
 185 171 l 1,2,-1
 185 0 l 1,3,-1
 73 0 l 1,4,-1
 73 730 l 1,5,-1
 185 730 l 1,6,-1
 185 299 l 1,7,-1
 191 297 l 1,8,-1
 376 500 l 1,9,-1
 514 500 l 1,10,-1
 516 494 l 1,11,-1
 307 290 l 1,12,-1
 554 5 l 1,13,-1
 552 0 l 1,14,-1
 415 0 l 1,0,-1
EndSplineSet
Validated: 1
Substitution2: "'smcp' Lowercase to Small Capitals in Latin lookup 5 subtable" K.smcp
Substitution2: "'aalt' Access All Alternates in Latin lookup 0 subtable" K.smcp
EndChar

StartChar: l
Encoding: 108 108 79
Width: 298
GlyphClass: 2
Flags: W
LayerCount: 2
Fore
SplineSet
261 89 m 1,0,-1
 251 -9 l 1,1,2
 164 -9 164 -9 118.5 31.5 c 128,-1,3
 73 72 73 72 73 151 c 2,4,-1
 73 730 l 1,5,-1
 185 730 l 1,6,-1
 185 159 l 2,7,8
 185 94 185 94 261 89 c 1,0,-1
EndSplineSet
Validated: 1
Substitution2: "'smcp' Lowercase to Small Capitals in Latin lookup 5 subtable" L.smcp
Substitution2: "'aalt' Access All Alternates in Latin lookup 0 subtable" L.smcp
EndChar

StartChar: m
Encoding: 109 109 80
Width: 935
GlyphClass: 2
Flags: WO
LayerCount: 2
Fore
SplineSet
871 296 m 2,0,-1
 871 0 l 1,1,-1
 759 0 l 1,2,-1
 759 296 l 2,3,4
 759 356 759 356 731.5 386 c 128,-1,5
 704 416 704 416 660 416 c 0,6,7
 569 416 569 416 529 349 c 1,8,9
 531 327 531 327 531 316 c 2,10,-1
 531 -248 l 5,11,-1
 419 -248 l 5,12,-1
 419 308 l 2,13,14
 419 362 419 362 391.5 389 c 128,-1,15
 364 416 364 416 320 416 c 0,16,17
 226 416 226 416 185 342 c 1,18,-1
 185 0 l 1,19,-1
 73 0 l 1,20,-1
 73 500 l 1,21,-1
 185 500 l 1,22,-1
 185 447 l 1,23,-1
 191 444 l 1,24,25
 247 510 247 510 348 510 c 0,26,27
 452 510 452 510 502 430 c 1,28,29
 571 510 571 510 688 510 c 0,30,31
 768 510 768 510 819.5 454.5 c 128,-1,32
 871 399 871 399 871 296 c 2,0,-1
EndSplineSet
Substitution2: "'smcp' Lowercase to Small Capitals in Latin lookup 5 subtable" M.smcp
Substitution2: "'aalt' Access All Alternates in Latin lookup 0 subtable" M.smcp
EndChar

StartChar: n
Encoding: 110 110 81
Width: 611
GlyphClass: 2
Flags: W
LayerCount: 2
Fore
SplineSet
73 0 m 1,0,-1
 73 500 l 1,1,-1
 185 500 l 1,2,-1
 185 439 l 1,3,-1
 191 437 l 1,4,5
 252 510 252 510 366 510 c 0,6,7
 444 510 444 510 495.5 455 c 128,-1,8
 547 400 547 400 547 300 c 2,9,-1
 547 0 l 1,10,-1
 435 0 l 1,11,-1
 435 296 l 2,12,13
 435 356 435 356 404.5 386 c 128,-1,14
 374 416 374 416 326 416 c 0,15,16
 231 416 231 416 185 348 c 1,17,-1
 185 0 l 1,18,-1
 73 0 l 1,0,-1
EndSplineSet
Validated: 1
Substitution2: "'smcp' Lowercase to Small Capitals in Latin lookup 5 subtable" N.smcp
Substitution2: "'aalt' Access All Alternates in Latin lookup 0 subtable" N.smcp
EndChar

StartChar: o
Encoding: 111 111 82
Width: 609
GlyphClass: 2
Flags: W
LayerCount: 2
Fore
SplineSet
36 250 m 128,-1,1
 36 359 36 359 113 434.5 c 128,-1,2
 190 510 190 510 304 510 c 128,-1,3
 418 510 418 510 495.5 434.5 c 128,-1,4
 573 359 573 359 573 250 c 128,-1,5
 573 141 573 141 495.5 65.5 c 128,-1,6
 418 -10 418 -10 304 -10 c 128,-1,7
 190 -10 190 -10 113 65.5 c 128,-1,0
 36 141 36 141 36 250 c 128,-1,1
148 250 m 128,-1,9
 148 180 148 180 193 132 c 128,-1,10
 238 84 238 84 304 84 c 0,11,12
 371 84 371 84 416 131.5 c 128,-1,13
 461 179 461 179 461 250 c 0,14,15
 461 320 461 320 416 368 c 128,-1,16
 371 416 371 416 304 416 c 0,17,18
 238 416 238 416 193 368 c 128,-1,8
 148 320 148 320 148 250 c 128,-1,9
EndSplineSet
Validated: 1
Substitution2: "'smcp' Lowercase to Small Capitals in Latin lookup 5 subtable" O.smcp
Substitution2: "'aalt' Access All Alternates in Latin lookup 0 subtable" O.smcp
EndChar

StartChar: p
Encoding: 112 112 83
Width: 621
GlyphClass: 2
Flags: W
LayerCount: 2
Fore
SplineSet
334 -10 m 0,0,1
 244 -10 244 -10 185 36 c 1,2,-1
 185 -230 l 1,3,-1
 73 -230 l 1,4,-1
 73 500 l 1,5,-1
 185 500 l 1,6,-1
 185 450 l 1,7,-1
 191 448 l 1,8,9
 246 510 246 510 344 510 c 0,10,11
 445 510 445 510 515 434.5 c 128,-1,12
 585 359 585 359 585 250 c 128,-1,13
 585 141 585 141 512.5 65.5 c 128,-1,14
 440 -10 440 -10 334 -10 c 0,0,1
320 416 m 0,15,16
 224 416 224 416 185 348 c 1,17,-1
 185 115 l 1,18,19
 236 84 236 84 320 84 c 0,20,21
 383 84 383 84 428 132 c 128,-1,22
 473 180 473 180 473 250 c 0,23,24
 473 319 473 319 428 367.5 c 128,-1,25
 383 416 383 416 320 416 c 0,15,16
EndSplineSet
Validated: 1
Substitution2: "'smcp' Lowercase to Small Capitals in Latin lookup 5 subtable" P.smcp
Substitution2: "'aalt' Access All Alternates in Latin lookup 0 subtable" P.smcp
EndChar

StartChar: q
Encoding: 113 113 84
Width: 620
GlyphClass: 2
Flags: W
LayerCount: 2
Fore
SplineSet
287 510 m 0,0,1
 374 510 374 510 435 465 c 1,2,-1
 435 500 l 1,3,-1
 547 500 l 1,4,-1
 547 -230 l 1,5,-1
 435 -230 l 1,6,-1
 435 48 l 1,7,-1
 429 50 l 1,8,9
 374 -10 374 -10 277 -10 c 0,10,11
 176 -10 176 -10 106 65.5 c 128,-1,12
 36 141 36 141 36 250 c 128,-1,13
 36 359 36 359 109 434.5 c 128,-1,14
 182 510 182 510 287 510 c 0,0,1
301 84 m 0,15,16
 395 84 395 84 435 150 c 1,17,-1
 435 382 l 1,18,19
 382 416 382 416 301 416 c 0,20,21
 238 416 238 416 193 368 c 128,-1,22
 148 320 148 320 148 250 c 0,23,24
 148 181 148 181 193 132.5 c 128,-1,25
 238 84 238 84 301 84 c 0,15,16
EndSplineSet
Validated: 1
Substitution2: "'smcp' Lowercase to Small Capitals in Latin lookup 5 subtable" Q.smcp
Substitution2: "'aalt' Access All Alternates in Latin lookup 0 subtable" Q.smcp
EndChar

StartChar: r
Encoding: 114 114 85
Width: 368
GlyphClass: 2
Flags: W
LayerCount: 2
Fore
SplineSet
73 -1 m 1,0,-1
 73 500 l 1,1,-1
 185 500 l 1,2,-1
 185 443 l 1,3,-1
 191 441 l 1,4,5
 248 510 248 510 336 510 c 2,6,-1
 350 510 l 1,7,-1
 350 408 l 1,8,-1
 326 408 l 2,9,10
 242 408 242 408 185 349 c 1,11,-1
 185 -1 l 1,12,-1
 73 -1 l 1,0,-1
EndSplineSet
Validated: 1
Substitution2: "'smcp' Lowercase to Small Capitals in Latin lookup 5 subtable" R.smcp
Substitution2: "'aalt' Access All Alternates in Latin lookup 0 subtable" R.smcp
EndChar

StartChar: s
Encoding: 115 115 86
Width: 466
GlyphClass: 2
Flags: W
LayerCount: 2
Fore
SplineSet
51 24 m 1,0,-1
 73 116 l 1,1,2
 156 86 156 86 216 86 c 0,3,4
 255 86 255 86 281 101 c 128,-1,5
 307 116 307 116 307 146 c 0,6,7
 307 170 307 170 287 186 c 128,-1,8
 267 202 267 202 214 214 c 0,9,10
 54 251 54 251 54 359 c 0,11,12
 54 431 54 431 108.5 470.5 c 128,-1,13
 163 510 163 510 242 510 c 0,14,15
 318 510 318 510 402 474 c 1,16,-1
 381 385 l 1,17,18
 303 415 303 415 246 415 c 0,19,20
 212 415 212 415 189 400 c 128,-1,21
 166 385 166 385 166 359 c 0,22,23
 166 316 166 316 254 297 c 0,24,25
 418 262 418 262 418 148 c 0,26,27
 418 72 418 72 361 31.5 c 128,-1,28
 304 -9 304 -9 221 -9 c 128,-1,29
 138 -9 138 -9 51 24 c 1,0,-1
EndSplineSet
Validated: 1
Substitution2: "'smcp' Lowercase to Small Capitals in Latin lookup 5 subtable" S.smcp
Substitution2: "'aalt' Access All Alternates in Latin lookup 0 subtable" S.smcp
EndChar

StartChar: t
Encoding: 116 116 87
Width: 389
GlyphClass: 2
Flags: W
LayerCount: 2
Fore
SplineSet
13 410 m 1,0,-1
 13 500 l 1,1,-1
 90 500 l 1,2,-1
 90 660 l 1,3,-1
 202 660 l 1,4,-1
 202 500 l 1,5,-1
 338 500 l 1,6,-1
 338 410 l 1,7,-1
 202 410 l 1,8,-1
 202 177 l 2,9,10
 202 135 202 135 223 114 c 128,-1,11
 244 93 244 93 280 93 c 0,12,13
 325 93 325 93 351 104 c 1,14,-1
 371 16 l 1,15,16
 329 -5 329 -5 268 -5 c 0,17,18
 190 -5 190 -5 140 42.5 c 128,-1,19
 90 90 90 90 90 173 c 2,20,-1
 90 410 l 1,21,-1
 13 410 l 1,0,-1
EndSplineSet
Validated: 1
Substitution2: "'smcp' Lowercase to Small Capitals in Latin lookup 5 subtable" T.smcp
Substitution2: "'aalt' Access All Alternates in Latin lookup 0 subtable" T.smcp
EndChar

StartChar: u
Encoding: 117 117 88
Width: 605
GlyphClass: 2
Flags: W
LayerCount: 2
Fore
SplineSet
543 500 m 1,0,-1
 543 224 l 2,1,2
 543 120 543 120 474 55 c 128,-1,3
 405 -10 405 -10 302 -10 c 0,4,5
 200 -10 200 -10 131 55 c 128,-1,6
 62 120 62 120 62 224 c 2,7,-1
 62 500 l 1,8,-1
 174 500 l 1,9,-1
 174 224 l 2,10,11
 174 158 174 158 210 121 c 128,-1,12
 246 84 246 84 302 84 c 128,-1,13
 358 84 358 84 394.5 121.5 c 128,-1,14
 431 159 431 159 431 224 c 2,15,-1
 431 500 l 1,16,-1
 543 500 l 1,0,-1
EndSplineSet
Validated: 1
Substitution2: "'smcp' Lowercase to Small Capitals in Latin lookup 5 subtable" U.smcp
Substitution2: "'aalt' Access All Alternates in Latin lookup 0 subtable" U.smcp
EndChar

StartChar: v
Encoding: 118 118 89
Width: 545
GlyphClass: 2
Flags: W
LayerCount: 2
Fore
SplineSet
129 500 m 1,0,-1
 263 135 l 1,1,-1
 269 108 l 1,2,-1
 275 108 l 1,3,-1
 281 135 l 1,4,-1
 415 500 l 1,5,-1
 536 500 l 1,6,-1
 329 0 l 1,7,-1
 216 0 l 1,8,-1
 9 500 l 1,9,-1
 129 500 l 1,0,-1
EndSplineSet
Validated: 1
Substitution2: "'smcp' Lowercase to Small Capitals in Latin lookup 5 subtable" V.smcp
Substitution2: "'aalt' Access All Alternates in Latin lookup 0 subtable" V.smcp
EndChar

StartChar: w
Encoding: 119 119 90
Width: 826
GlyphClass: 2
Flags: W
LayerCount: 2
Fore
SplineSet
460 500 m 1,0,-1
 577 145 l 1,1,-1
 584 110 l 1,2,-1
 590 110 l 1,3,-1
 595 145 l 1,4,-1
 690 500 l 1,5,-1
 808 500 l 1,6,-1
 654 0 l 1,7,-1
 529 0 l 1,8,-1
 418 324 l 1,9,-1
 414 345 l 1,10,-1
 408 345 l 1,11,-1
 404 324 l 1,12,-1
 293 0 l 1,13,-1
 172 0 l 1,14,-1
 18 500 l 1,15,-1
 135 500 l 1,16,-1
 229 145 l 1,17,-1
 234 114 l 1,18,-1
 240 114 l 1,19,-1
 246 145 l 1,20,-1
 362 500 l 1,21,-1
 460 500 l 1,0,-1
EndSplineSet
Validated: 1
Substitution2: "'smcp' Lowercase to Small Capitals in Latin lookup 5 subtable" W.smcp
Substitution2: "'aalt' Access All Alternates in Latin lookup 0 subtable" W.smcp
EndChar

StartChar: x
Encoding: 120 120 91
Width: 570
GlyphClass: 2
Flags: W
LayerCount: 2
Fore
SplineSet
419 0 m 1,0,-1
 286 173 l 1,1,-1
 153 0 l 1,2,-1
 26 0 l 1,3,-1
 222 256 l 1,4,-1
 34 500 l 1,5,-1
 163 500 l 1,6,-1
 286 339 l 1,7,-1
 409 500 l 1,8,-1
 538 500 l 1,9,-1
 350 256 l 1,10,-1
 546 0 l 1,11,-1
 419 0 l 1,0,-1
EndSplineSet
Validated: 1
Substitution2: "'smcp' Lowercase to Small Capitals in Latin lookup 5 subtable" X.smcp
Substitution2: "'aalt' Access All Alternates in Latin lookup 0 subtable" X.smcp
EndChar

StartChar: y
Encoding: 121 121 92
Width: 539
GlyphClass: 2
Flags: W
LayerCount: 2
Fore
SplineSet
137 500 m 1,0,-1
 265 162 l 1,1,-1
 273 125 l 1,2,-1
 279 125 l 1,3,-1
 402 500 l 1,4,-1
 527 500 l 1,5,-1
 300 -81 l 2,6,7
 285 -121 285 -121 267.5 -148.5 c 128,-1,8
 250 -176 250 -176 223.5 -200.5 c 128,-1,9
 197 -225 197 -225 157.5 -237 c 128,-1,10
 118 -249 118 -249 65 -249 c 1,11,-1
 58 -156 l 1,12,13
 114 -156 114 -156 144.5 -134.5 c 128,-1,14
 175 -113 175 -113 196 -63 c 2,15,-1
 219 5 l 1,16,-1
 12 500 l 1,17,-1
 137 500 l 1,0,-1
EndSplineSet
Validated: 1
Substitution2: "'smcp' Lowercase to Small Capitals in Latin lookup 5 subtable" Y.smcp
Substitution2: "'aalt' Access All Alternates in Latin lookup 0 subtable" Y.smcp
EndChar

StartChar: z
Encoding: 122 122 93
Width: 508
GlyphClass: 2
Flags: W
LayerCount: 2
Fore
SplineSet
43 406 m 1,0,-1
 43 500 l 1,1,-1
 454 500 l 1,2,-1
 454 438 l 1,3,-1
 183 99 l 1,4,-1
 186 94 l 1,5,-1
 464 94 l 1,6,-1
 464 0 l 1,7,-1
 33 0 l 1,8,-1
 33 62 l 1,9,-1
 302 401 l 1,10,-1
 299 406 l 1,11,-1
 43 406 l 1,0,-1
EndSplineSet
Validated: 1
Substitution2: "'smcp' Lowercase to Small Capitals in Latin lookup 5 subtable" Z.smcp
Substitution2: "'aalt' Access All Alternates in Latin lookup 0 subtable" Z.smcp
EndChar

StartChar: braceleft
Encoding: 123 123 94
Width: 329
GlyphClass: 2
Flags: W
LayerCount: 2
Fore
SplineSet
271 730 m 1,0,-1
 279 647 l 1,1,2
 237 647 237 647 225.5 630.5 c 128,-1,3
 214 614 214 614 214 571 c 2,4,-1
 214 429 l 2,5,6
 214 374 214 374 196 341 c 128,-1,7
 178 308 178 308 126 280 c 1,8,9
 214 237 214 237 214 157 c 2,10,-1
 214 -9 l 2,11,12
 214 -52 214 -52 225.5 -70 c 128,-1,13
 237 -88 237 -88 279 -87 c 1,14,-1
 271 -169 l 1,15,-1
 254 -171 l 1,16,17
 172 -170 172 -170 141 -135 c 128,-1,18
 110 -100 110 -100 110 -27 c 2,19,-1
 110 144 l 2,20,21
 110 180 110 180 89.5 208 c 128,-1,22
 69 236 69 236 34 245 c 1,23,-1
 34 323 l 1,24,25
 74 333 74 333 92 361 c 128,-1,26
 110 389 110 389 110 443 c 2,27,-1
 110 594 l 2,28,29
 110 666 110 666 143 699 c 128,-1,30
 176 732 176 732 251 732 c 1,31,-1
 271 730 l 1,0,-1
EndSplineSet
Validated: 33
EndChar

StartChar: bar
Encoding: 124 124 95
Width: 269
GlyphClass: 2
Flags: W
LayerCount: 2
Fore
SplineSet
82 -170 m 1,0,-1
 82 730 l 1,1,-1
 186 730 l 1,2,-1
 186 -170 l 1,3,-1
 82 -170 l 1,0,-1
EndSplineSet
Validated: 1
EndChar

StartChar: braceright
Encoding: 125 125 96
Width: 329
GlyphClass: 2
Flags: W
LayerCount: 2
Fore
SplineSet
42 -169 m 1,0,-1
 34 -86 l 1,1,2
 76 -86 76 -86 87.5 -69.5 c 128,-1,3
 99 -53 99 -53 99 -10 c 2,4,-1
 99 132 l 2,5,6
 99 187 99 187 117 220 c 128,-1,7
 135 253 135 253 187 281 c 1,8,9
 99 324 99 324 99 404 c 2,10,-1
 99 570 l 2,11,12
 99 613 99 613 87.5 631 c 128,-1,13
 76 649 76 649 34 648 c 1,14,-1
 42 730 l 1,15,-1
 59 732 l 1,16,17
 141 731 141 731 172 696 c 128,-1,18
 203 661 203 661 203 588 c 2,19,-1
 203 417 l 2,20,21
 203 381 203 381 223.5 353 c 128,-1,22
 244 325 244 325 279 316 c 1,23,-1
 279 238 l 1,24,25
 239 228 239 228 221 200 c 128,-1,26
 203 172 203 172 203 118 c 2,27,-1
 203 -33 l 2,28,29
 203 -105 203 -105 170 -138 c 128,-1,30
 137 -171 137 -171 62 -171 c 1,31,-1
 42 -169 l 1,0,-1
EndSplineSet
Validated: 33
EndChar

StartChar: asciitilde
Encoding: 126 126 97
Width: 570
GlyphClass: 2
Flags: W
LayerCount: 2
Fore
SplineSet
311 348 m 0,0,1
 314 346 314 346 321.5 340.5 c 128,-1,2
 329 335 329 335 332 333 c 128,-1,3
 335 331 335 331 341.5 326.5 c 128,-1,4
 348 322 348 322 351.5 320 c 128,-1,5
 355 318 355 318 361 315 c 128,-1,6
 367 312 367 312 371.5 310.5 c 128,-1,7
 376 309 376 309 381.5 307 c 128,-1,8
 387 305 387 305 392.5 304.5 c 128,-1,9
 398 304 398 304 404 304 c 0,10,11
 425 304 425 304 444 317.5 c 128,-1,12
 463 331 463 331 470 340.5 c 128,-1,13
 477 350 477 350 495 377 c 1,14,-1
 550 321 l 1,15,16
 495 210 495 210 402 210 c 0,17,18
 393 210 393 210 383 211.5 c 128,-1,19
 373 213 373 213 365 215 c 128,-1,20
 357 217 357 217 346.5 222 c 128,-1,21
 336 227 336 227 330.5 229.5 c 128,-1,22
 325 232 325 232 313.5 239 c 128,-1,23
 302 246 302 246 298.5 248 c 128,-1,24
 295 250 295 250 283.5 258 c 128,-1,25
 272 266 272 266 270 267 c 0,26,27
 250 282 250 282 239 289.5 c 128,-1,28
 228 297 228 297 211 304 c 128,-1,29
 194 311 194 311 177 311 c 0,30,31
 156 311 156 311 137 297.5 c 128,-1,32
 118 284 118 284 111 274.5 c 128,-1,33
 104 265 104 265 86 238 c 1,34,-1
 31 294 l 1,35,36
 87 405 87 405 179 405 c 0,37,38
 230 405 230 405 311 348 c 0,0,1
EndSplineSet
Validated: 1
EndChar

StartChar: exclamdown
Encoding: 161 161 98
Width: 270
GlyphClass: 2
Flags: W
LayerCount: 2
Fore
SplineSet
187 280 m 1,0,-1
 195 -200 l 1,1,-1
 80 -200 l 1,2,-1
 88 280 l 1,3,-1
 187 280 l 1,0,-1
206 442 m 0,4,5
 206 414 206 414 186 394 c 128,-1,6
 166 374 166 374 139 374 c 0,7,8
 110 374 110 374 90.5 394 c 128,-1,9
 71 414 71 414 71 442 c 0,10,11
 71 469 71 469 90.5 489 c 128,-1,12
 110 509 110 509 139 509 c 0,13,14
 166 509 166 509 186 489 c 128,-1,15
 206 469 206 469 206 442 c 0,4,5
EndSplineSet
Validated: 1
EndChar

StartChar: cent
Encoding: 162 162 99
Width: 445
GlyphClass: 2
Flags: W
LayerCount: 2
Fore
SplineSet
230 -106 m 1,0,-1
 230 -1 l 1,1,2
 145 20 145 20 90.5 89.5 c 128,-1,3
 36 159 36 159 36 250 c 0,4,5
 36 340 36 340 90.5 409.5 c 128,-1,6
 145 479 145 479 230 501 c 1,7,-1
 230 610 l 1,8,-1
 322 610 l 1,9,-1
 322 509 l 1,10,11
 382 506 382 506 427 483 c 1,12,-1
 403 395 l 1,13,14
 353 416 353 416 298 416 c 0,15,16
 234 416 234 416 189 368 c 128,-1,17
 144 320 144 320 144 250 c 128,-1,18
 144 180 144 180 189 132 c 128,-1,19
 234 84 234 84 298 84 c 0,20,21
 365 84 365 84 403 107 c 1,22,-1
 427 18 l 1,23,24
 379 -6 379 -6 322 -9 c 1,25,-1
 322 -106 l 1,26,-1
 230 -106 l 1,0,-1
EndSplineSet
Validated: 1
EndChar

StartChar: sterling
Encoding: 163 163 100
Width: 507
GlyphClass: 2
Flags: W
LayerCount: 2
Fore
SplineSet
378 318 m 1,0,-1
 205 318 l 1,1,-1
 205 200 l 2,2,3
 205 138 205 138 177 94 c 1,4,-1
 475 94 l 1,5,-1
 475 0 l 1,6,-1
 32 0 l 1,7,-1
 32 94 l 1,8,-1
 37 94 l 1,9,10
 65 99 65 99 79 132 c 128,-1,11
 93 165 93 165 93 200 c 2,12,-1
 93 318 l 1,13,-1
 15 318 l 1,14,-1
 15 400 l 1,15,-1
 93 400 l 1,16,-1
 93 512 l 2,17,18
 93 615 93 615 155.5 677.5 c 128,-1,19
 218 740 218 740 321 740 c 0,20,21
 414 740 414 740 475 686 c 1,22,-1
 444 609 l 1,23,24
 382 646 382 646 321 646 c 0,25,26
 266 646 266 646 235.5 610 c 128,-1,27
 205 574 205 574 205 512 c 2,28,-1
 205 400 l 1,29,-1
 378 400 l 1,30,-1
 378 318 l 1,0,-1
EndSplineSet
Validated: 1
EndChar

StartChar: yen
Encoding: 165 165 101
Width: 621
GlyphClass: 2
Flags: W
LayerCount: 2
Fore
SplineSet
532 269 m 1,0,-1
 384 269 l 1,1,-1
 372 247 l 1,2,-1
 372 191 l 1,3,-1
 532 191 l 1,4,-1
 532 109 l 1,5,-1
 372 109 l 1,6,-1
 372 0 l 1,7,-1
 260 0 l 1,8,-1
 260 109 l 1,9,-1
 103 109 l 1,10,-1
 103 191 l 1,11,-1
 260 191 l 1,12,-1
 260 249 l 1,13,-1
 249 269 l 1,14,-1
 103 269 l 1,15,-1
 103 351 l 1,16,-1
 204 351 l 1,17,-1
 13 700 l 1,18,-1
 137 700 l 1,19,-1
 305 376 l 1,20,-1
 312 351 l 1,21,-1
 320 351 l 1,22,-1
 328 376 l 1,23,-1
 496 700 l 1,24,-1
 620 700 l 1,25,-1
 429 351 l 1,26,-1
 532 351 l 1,27,-1
 532 269 l 1,0,-1
EndSplineSet
Validated: 1
EndChar

StartChar: brokenbar
Encoding: 166 166 102
Width: 260
GlyphClass: 2
Flags: W
LayerCount: 2
Fore
SplineSet
90 -170 m 1,0,-1
 90 212 l 1,1,-1
 190 212 l 1,2,-1
 190 -170 l 1,3,-1
 90 -170 l 1,0,-1
190 730 m 1,4,-1
 190 363 l 1,5,-1
 90 363 l 1,6,-1
 90 730 l 1,7,-1
 190 730 l 1,4,-1
EndSplineSet
Validated: 1
EndChar

StartChar: section
Encoding: 167 167 103
Width: 548
GlyphClass: 2
Flags: W
LayerCount: 2
Fore
SplineSet
538 219 m 0,0,1
 538 172 538 172 505 135.5 c 128,-1,2
 472 99 472 99 417 79 c 1,3,4
 500 23 500 23 500 -56 c 0,5,6
 500 -144 500 -144 430 -192 c 128,-1,7
 360 -240 360 -240 259 -240 c 0,8,9
 166 -240 166 -240 63 -197 c 1,10,-1
 87 -105 l 1,11,12
 184 -142 184 -142 259 -142 c 0,13,14
 314 -142 314 -142 349 -120.5 c 128,-1,15
 384 -99 384 -99 384 -60 c 0,16,17
 384 -24 384 -24 347 1 c 128,-1,18
 310 26 310 26 221 53 c 0,19,20
 129 84 129 84 77.5 130.5 c 128,-1,21
 26 177 26 177 26 250 c 0,22,23
 26 297 26 297 58.5 333.5 c 128,-1,24
 91 370 91 370 146 390 c 1,25,26
 64 446 64 446 64 526 c 0,27,28
 64 613 64 613 132 661.5 c 128,-1,29
 200 710 200 710 297 710 c 0,30,31
 390 710 390 710 493 667 c 1,32,-1
 469 575 l 1,33,34
 372 612 372 612 297 612 c 0,35,36
 246 612 246 612 213 590 c 128,-1,37
 180 568 180 568 180 530 c 0,38,39
 180 494 180 494 217 469 c 128,-1,40
 254 444 254 444 343 417 c 0,41,42
 435 386 435 386 486.5 339.5 c 128,-1,43
 538 293 538 293 538 219 c 0,0,1
286 330 m 0,44,45
 268 335 268 335 234 347 c 1,46,47
 193 340 193 340 167.5 316.5 c 128,-1,48
 142 293 142 293 142 256 c 0,49,50
 142 214 142 214 172 188.5 c 128,-1,51
 202 163 202 163 278 140 c 2,52,-1
 329 123 l 1,53,54
 370 130 370 130 396 153 c 128,-1,55
 422 176 422 176 422 214 c 0,56,57
 422 255 422 255 392 280.5 c 128,-1,58
 362 306 362 306 286 330 c 0,44,45
EndSplineSet
Validated: 1
EndChar

StartChar: dieresis
Encoding: 168 168 104
Width: 473
GlyphClass: 2
Flags: W
LayerCount: 2
Fore
SplineSet
56 658 m 0,0,1
 56 683 56 683 73.5 700.5 c 128,-1,2
 91 718 91 718 115 718 c 0,3,4
 140 718 140 718 157.5 700.5 c 128,-1,5
 175 683 175 683 175 658 c 0,6,7
 175 634 175 634 157.5 616.5 c 128,-1,8
 140 599 140 599 115 599 c 0,9,10
 91 599 91 599 73.5 616.5 c 128,-1,11
 56 634 56 634 56 658 c 0,0,1
306 658 m 0,12,13
 306 683 306 683 323.5 700.5 c 128,-1,14
 341 718 341 718 365 718 c 0,15,16
 390 718 390 718 407.5 700.5 c 128,-1,17
 425 683 425 683 425 658 c 0,18,19
 425 634 425 634 407.5 616.5 c 128,-1,20
 390 599 390 599 365 599 c 0,21,22
 341 599 341 599 323.5 616.5 c 128,-1,23
 306 634 306 634 306 658 c 0,12,13
EndSplineSet
Validated: 1
EndChar

StartChar: copyright
Encoding: 169 169 105
Width: 791
GlyphClass: 2
Flags: W
LayerCount: 2
Fore
SplineSet
45 350 m 128,-1,1
 45 503 45 503 146.5 606.5 c 128,-1,2
 248 710 248 710 395 710 c 0,3,4
 539 710 539 710 642.5 606 c 128,-1,5
 746 502 746 502 746 350 c 0,6,7
 746 197 746 197 644.5 93.5 c 128,-1,8
 543 -10 543 -10 395 -10 c 0,9,10
 248 -10 248 -10 146.5 93.5 c 128,-1,0
 45 197 45 197 45 350 c 128,-1,1
95 350 m 0,11,12
 95 212 95 212 180.5 126 c 128,-1,13
 266 40 266 40 395 40 c 0,14,15
 519 40 519 40 607.5 127 c 128,-1,16
 696 214 696 214 696 350 c 0,17,18
 696 481 696 481 609 570.5 c 128,-1,19
 522 660 522 660 395 660 c 128,-1,20
 268 660 268 660 181.5 570.5 c 128,-1,21
 95 481 95 481 95 350 c 0,11,12
283 352 m 0,22,23
 283 294 283 294 318 255 c 128,-1,24
 353 216 353 216 403 216 c 0,25,26
 454 216 454 216 482 228 c 1,27,-1
 493 176 l 1,28,29
 457 161 457 161 403 161 c 0,30,31
 326 161 326 161 274.5 215.5 c 128,-1,32
 223 270 223 270 223 352 c 0,33,34
 223 433 223 433 275 488 c 128,-1,35
 327 543 327 543 403 543 c 0,36,37
 457 543 457 543 493 527 c 1,38,-1
 482 475 l 1,39,40
 452 488 452 488 403 488 c 0,41,42
 353 488 353 488 318 447.5 c 128,-1,43
 283 407 283 407 283 352 c 0,22,23
EndSplineSet
Validated: 1
EndChar

StartChar: guillemotleft
Encoding: 171 171 106
Width: 506
GlyphClass: 2
Flags: W
LayerCount: 2
Fore
SplineSet
137 236 m 1,0,-1
 270 80 l 1,1,-1
 204 21 l 1,2,-1
 44 200 l 1,3,-1
 44 270 l 1,4,-1
 204 459 l 1,5,-1
 272 401 l 1,6,-1
 137 236 l 1,0,-1
343 236 m 1,7,-1
 476 80 l 1,8,-1
 410 21 l 1,9,-1
 250 200 l 1,10,-1
 250 270 l 1,11,-1
 410 459 l 1,12,-1
 478 401 l 1,13,-1
 343 236 l 1,7,-1
EndSplineSet
Validated: 1
EndChar

StartChar: registered
Encoding: 174 174 107
Width: 791
GlyphClass: 2
Flags: W
LayerCount: 2
Fore
SplineSet
45 350 m 128,-1,1
 45 503 45 503 146.5 606.5 c 128,-1,2
 248 710 248 710 395 710 c 0,3,4
 539 710 539 710 642.5 606 c 128,-1,5
 746 502 746 502 746 350 c 0,6,7
 746 197 746 197 644.5 93.5 c 128,-1,8
 543 -10 543 -10 395 -10 c 0,9,10
 248 -10 248 -10 146.5 93.5 c 128,-1,0
 45 197 45 197 45 350 c 128,-1,1
95 350 m 0,11,12
 95 212 95 212 180.5 126 c 128,-1,13
 266 40 266 40 395 40 c 0,14,15
 519 40 519 40 607.5 127 c 128,-1,16
 696 214 696 214 696 350 c 0,17,18
 696 481 696 481 609 570.5 c 128,-1,19
 522 660 522 660 395 660 c 128,-1,20
 268 660 268 660 181.5 570.5 c 128,-1,21
 95 481 95 481 95 350 c 0,11,12
499 161 m 1,22,-1
 407 320 l 1,23,-1
 334 320 l 1,24,-1
 334 161 l 1,25,-1
 272 161 l 1,26,-1
 272 542 l 1,27,-1
 396 542 l 2,28,29
 460 542 460 542 496 510.5 c 128,-1,30
 532 479 532 479 532 433 c 0,31,32
 532 362 532 362 466 333 c 1,33,-1
 568 161 l 1,34,-1
 499 161 l 1,22,-1
396 486 m 2,35,-1
 334 486 l 1,36,-1
 334 376 l 1,37,-1
 396 376 l 2,38,39
 432 376 432 376 451 391 c 128,-1,40
 470 406 470 406 470 431 c 0,41,42
 470 455 470 455 451 470.5 c 128,-1,43
 432 486 432 486 396 486 c 2,35,-1
EndSplineSet
Validated: 1
EndChar

StartChar: macron
Encoding: 175 175 108
Width: 445
GlyphClass: 2
Flags: W
LayerCount: 2
Fore
SplineSet
46 628 m 1,0,-1
 46 713 l 1,1,-1
 400 713 l 1,2,-1
 400 628 l 1,3,-1
 46 628 l 1,0,-1
EndSplineSet
Validated: 1
EndChar

StartChar: degree
Encoding: 176 176 109
Width: 325
GlyphClass: 2
Flags: W
LayerCount: 2
Fore
SplineSet
162 688 m 0,0,1
 212 688 212 688 248.5 651.5 c 128,-1,2
 285 615 285 615 285 565 c 0,3,4
 285 514 285 514 249 478.5 c 128,-1,5
 213 443 213 443 162 443 c 128,-1,6
 111 443 111 443 75.5 479 c 128,-1,7
 40 515 40 515 40 565 c 0,8,9
 40 616 40 616 75.5 652 c 128,-1,10
 111 688 111 688 162 688 c 0,0,1
162 496 m 0,11,12
 191 496 191 496 211 516 c 128,-1,13
 231 536 231 536 231 565 c 128,-1,14
 231 594 231 594 211 614 c 128,-1,15
 191 634 191 634 162 634 c 0,16,17
 134 634 134 634 113.5 614 c 128,-1,18
 93 594 93 594 93 565 c 0,19,20
 93 537 93 537 113.5 516.5 c 128,-1,21
 134 496 134 496 162 496 c 0,11,12
EndSplineSet
Validated: 1
EndChar

StartChar: twosuperior
Encoding: 178 178 110
Width: 369
GlyphClass: 2
Flags: W
LayerCount: 2
Fore
SplineSet
319 363 m 1,0,-1
 63 363 l 1,1,-1
 63 409 l 1,2,-1
 156 498 l 2,3,4
 206 549 206 549 213 564 c 0,5,6
 220 578 220 578 220 596 c 0,7,8
 220 616 220 616 207.5 627.5 c 128,-1,9
 195 639 195 639 177 639 c 0,10,11
 128 639 128 639 84 605 c 1,12,-1
 58 661 l 1,13,14
 117 707 117 707 185 707 c 0,15,16
 234 707 234 707 266.5 680 c 128,-1,17
 299 653 299 653 299 602 c 0,18,19
 299 567 299 567 280.5 538 c 128,-1,20
 262 509 262 509 214 462 c 2,21,-1
 187 437 l 1,22,-1
 189 431 l 1,23,-1
 319 431 l 1,24,-1
 319 363 l 1,0,-1
EndSplineSet
Validated: 1
EndChar

StartChar: threesuperior
Encoding: 179 179 111
Width: 365
GlyphClass: 2
Flags: W
LayerCount: 2
Fore
SplineSet
99 506 m 1,0,-1
 99 570 l 1,1,-1
 147 570 l 2,2,3
 182 570 182 570 204.5 579.5 c 128,-1,4
 227 589 227 589 227 606 c 0,5,6
 227 625 227 625 209 635.5 c 128,-1,7
 191 646 191 646 164 646 c 0,8,9
 103 646 103 646 64 628 c 1,10,-1
 52 687 l 1,11,12
 98 710 98 710 168 710 c 0,13,14
 226 710 226 710 264.5 684 c 128,-1,15
 303 658 303 658 303 614 c 0,16,17
 303 568 303 568 255 544 c 1,18,-1
 255 538 l 1,19,20
 283 527 283 527 301 505 c 128,-1,21
 319 483 319 483 319 454 c 0,22,23
 319 411 319 411 278 384.5 c 128,-1,24
 237 358 237 358 176 358 c 0,25,26
 100 358 100 358 50 381 c 1,27,-1
 64 440 l 1,28,29
 106 422 106 422 172 422 c 0,30,31
 201 422 201 422 220 431.5 c 128,-1,32
 239 441 239 441 239 458 c 0,33,34
 239 480 239 480 217.5 493 c 128,-1,35
 196 506 196 506 163 506 c 2,36,-1
 99 506 l 1,0,-1
EndSplineSet
Validated: 1
EndChar

StartChar: acute
Encoding: 180 180 112
Width: 294
GlyphClass: 2
Flags: W
LayerCount: 2
Fore
SplineSet
76 556 m 1,0,-1
 164 700 l 1,1,-1
 281 700 l 1,2,-1
 170 556 l 1,3,-1
 76 556 l 1,0,-1
EndSplineSet
Validated: 1
EndChar

StartChar: paragraph
Encoding: 182 182 113
Width: 495
GlyphClass: 2
Flags: W
LayerCount: 2
Fore
SplineSet
417 700 m 1,0,-1
 417 0 l 1,1,-1
 317 0 l 1,2,-1
 317 280 l 1,3,-1
 288 280 l 2,4,5
 170 280 170 280 103 339.5 c 128,-1,6
 36 399 36 399 36 490 c 0,7,8
 36 580 36 580 103 640 c 128,-1,9
 170 700 170 700 288 700 c 2,10,-1
 417 700 l 1,0,-1
EndSplineSet
Validated: 1
EndChar

StartChar: periodcentered
Encoding: 183 183 114
Width: 249
GlyphClass: 2
Flags: W
LayerCount: 2
Fore
SplineSet
46 308 m 0,0,1
 46 336 46 336 66 356 c 128,-1,2
 86 376 86 376 113 376 c 0,3,4
 141 376 141 376 161 356 c 128,-1,5
 181 336 181 336 181 308 c 0,6,7
 181 281 181 281 161 261 c 128,-1,8
 141 241 141 241 113 241 c 0,9,10
 86 241 86 241 66 261 c 128,-1,11
 46 281 46 281 46 308 c 0,0,1
EndSplineSet
Validated: 1
EndChar

StartChar: cedilla
Encoding: 184 184 115
Width: 285
GlyphClass: 2
Flags: W
LayerCount: 2
Fore
SplineSet
140 10 m 1,0,-1
 235 10 l 1,1,2
 270 -69 270 -69 230.5 -135.5 c 128,-1,3
 191 -202 191 -202 91 -202 c 1,4,-1
 64 -135 l 1,5,6
 134 -128 134 -128 153.5 -87 c 128,-1,7
 173 -46 173 -46 140 10 c 1,0,-1
EndSplineSet
Validated: 33
EndChar

StartChar: onesuperior
Encoding: 185 185 116
Width: 222
GlyphClass: 2
Flags: W
LayerCount: 2
Fore
SplineSet
104 364 m 1,0,-1
 104 632 l 1,1,-1
 46 632 l 1,2,-1
 46 700 l 1,3,-1
 184 700 l 1,4,-1
 184 364 l 1,5,-1
 104 364 l 1,0,-1
EndSplineSet
Validated: 1
EndChar

StartChar: guillemotright
Encoding: 187 187 117
Width: 507
GlyphClass: 2
Flags: W
LayerCount: 2
Fore
SplineSet
179 244 m 1,0,-1
 69 281 l 1,1,-1
 70 287 l 1,2,-1
 112 284 l 1,3,-1
 272 243 l 1,4,-1
 272 239 l 1,5,-1
 112 196 l 1,6,-1
 66 193 l 1,7,-1
 65 199 l 1,8,-1
 179 238 l 1,9,-1
 179 244 l 1,0,-1
386 244 m 1,10,-1
 276 281 l 1,11,-1
 277 287 l 1,12,-1
 319 284 l 1,13,-1
 479 243 l 1,14,-1
 479 239 l 1,15,-1
 319 196 l 1,16,-1
 273 193 l 1,17,-1
 272 199 l 1,18,-1
 386 238 l 1,19,-1
 386 244 l 1,10,-1
EndSplineSet
Validated: 1
EndChar

StartChar: onequarter
Encoding: 188 188 118
Width: 717
GlyphClass: 2
Flags: W
LayerCount: 2
Fore
SplineSet
104 364 m 1,0,-1
 104 632 l 1,1,-1
 46 632 l 1,2,-1
 46 700 l 1,3,-1
 184 700 l 1,4,-1
 184 364 l 1,5,-1
 104 364 l 1,0,-1
68 164 m 1,6,-1
 528 614 l 1,7,-1
 586 556 l 1,8,-1
 126 106 l 1,9,-1
 68 164 l 1,6,-1
547 1 m 1,10,-1
 547 65 l 1,11,-1
 364 65 l 1,12,-1
 364 111 l 1,13,-1
 470 337 l 1,14,-1
 553 337 l 1,15,-1
 458 133 l 1,16,-1
 547 133 l 1,17,-1
 547 233 l 1,18,-1
 627 233 l 1,19,-1
 627 133 l 1,20,-1
 675 133 l 1,21,-1
 675 65 l 1,22,-1
 627 65 l 1,23,-1
 627 1 l 1,24,-1
 547 1 l 1,10,-1
EndSplineSet
Validated: 1
EndChar

StartChar: onehalf
Encoding: 189 189 119
Width: 634
GlyphClass: 2
Flags: W
LayerCount: 2
Fore
SplineSet
107 364 m 1,0,-1
 107 632 l 1,1,-1
 49 632 l 1,2,-1
 49 700 l 1,3,-1
 187 700 l 1,4,-1
 187 364 l 1,5,-1
 107 364 l 1,0,-1
33 164 m 1,6,-1
 493 614 l 1,7,-1
 551 556 l 1,8,-1
 91 106 l 1,9,-1
 33 164 l 1,6,-1
584 -1 m 1,10,-1
 328 -1 l 1,11,-1
 328 45 l 1,12,-1
 421 134 l 2,13,14
 471 185 471 185 478 200 c 0,15,16
 485 214 485 214 485 232 c 0,17,18
 485 252 485 252 472.5 263.5 c 128,-1,19
 460 275 460 275 442 275 c 0,20,21
 393 275 393 275 349 241 c 1,22,-1
 323 297 l 1,23,24
 382 343 382 343 450 343 c 0,25,26
 499 343 499 343 531.5 316 c 128,-1,27
 564 289 564 289 564 238 c 0,28,29
 564 203 564 203 545.5 174 c 128,-1,30
 527 145 527 145 479 98 c 2,31,-1
 452 73 l 1,32,-1
 454 67 l 1,33,-1
 584 67 l 1,34,-1
 584 -1 l 1,10,-1
EndSplineSet
Validated: 1
EndChar

StartChar: threequarters
Encoding: 190 190 120
Width: 752
GlyphClass: 2
Flags: W
LayerCount: 2
Fore
SplineSet
99 506 m 1,0,-1
 99 570 l 1,1,-1
 147 570 l 2,2,3
 182 570 182 570 204.5 579.5 c 128,-1,4
 227 589 227 589 227 606 c 0,5,6
 227 625 227 625 209 635.5 c 128,-1,7
 191 646 191 646 164 646 c 0,8,9
 103 646 103 646 64 628 c 1,10,-1
 52 687 l 1,11,12
 98 710 98 710 168 710 c 0,13,14
 226 710 226 710 264.5 684 c 128,-1,15
 303 658 303 658 303 614 c 0,16,17
 303 568 303 568 255 544 c 1,18,-1
 255 538 l 1,19,20
 283 527 283 527 301 505 c 128,-1,21
 319 483 319 483 319 454 c 0,22,23
 319 411 319 411 278 384.5 c 128,-1,24
 237 358 237 358 176 358 c 0,25,26
 100 358 100 358 50 381 c 1,27,-1
 64 440 l 1,28,29
 106 422 106 422 172 422 c 0,30,31
 201 422 201 422 220 431.5 c 128,-1,32
 239 441 239 441 239 458 c 0,33,34
 239 480 239 480 217.5 493 c 128,-1,35
 196 506 196 506 163 506 c 2,36,-1
 99 506 l 1,0,-1
121 164 m 1,37,-1
 581 614 l 1,38,-1
 639 556 l 1,39,-1
 179 106 l 1,40,-1
 121 164 l 1,37,-1
582 -1 m 1,41,-1
 582 63 l 1,42,-1
 399 63 l 1,43,-1
 399 109 l 1,44,-1
 505 335 l 1,45,-1
 588 335 l 1,46,-1
 493 131 l 1,47,-1
 582 131 l 1,48,-1
 582 231 l 1,49,-1
 662 231 l 1,50,-1
 662 131 l 1,51,-1
 710 131 l 1,52,-1
 710 63 l 1,53,-1
 662 63 l 1,54,-1
 662 -1 l 1,55,-1
 582 -1 l 1,41,-1
EndSplineSet
Validated: 1
EndChar

StartChar: questiondown
Encoding: 191 191 121
Width: 459
GlyphClass: 2
Flags: W
LayerCount: 2
Fore
SplineSet
290 300 m 1,0,-1
 206 270 l 1,1,2
 224 245 224 245 224 213 c 0,3,4
 224 166 224 166 164 106 c 0,5,6
 158 99 158 99 141.5 82.5 c 128,-1,7
 125 66 125 66 119 59 c 128,-1,8
 113 52 113 52 101.5 37 c 128,-1,9
 90 22 90 22 85.5 11 c 128,-1,10
 81 0 81 0 77 -17 c 128,-1,11
 73 -34 73 -34 73 -53 c 0,12,13
 73 -122 73 -122 121.5 -165.5 c 128,-1,14
 170 -209 170 -209 247 -210 c 0,15,16
 327 -210 327 -210 411 -172 c 1,17,-1
 390 -85 l 1,18,19
 315 -113 315 -113 266 -113 c 0,20,21
 231 -113 231 -113 210 -94.5 c 128,-1,22
 189 -76 189 -76 189 -45 c 0,23,24
 189 -38 189 -38 190 -31.5 c 128,-1,25
 191 -25 191 -25 193 -18 c 128,-1,26
 195 -11 195 -11 197 -6 c 128,-1,27
 199 -1 199 -1 203.5 6 c 128,-1,28
 208 13 208 13 210.5 16.5 c 128,-1,29
 213 20 213 20 219.5 28 c 128,-1,30
 226 36 226 36 228 39 c 128,-1,31
 230 42 230 42 238 50.5 c 128,-1,32
 246 59 246 59 248 62 c 0,33,34
 287 103 287 103 306 137.5 c 128,-1,35
 325 172 325 172 325 218 c 0,36,37
 325 257 325 257 290 300 c 1,0,-1
334 442 m 0,38,39
 334 414 334 414 314 394 c 128,-1,40
 294 374 294 374 267 374 c 0,41,42
 239 374 239 374 219 394 c 128,-1,43
 199 414 199 414 199 442 c 0,44,45
 199 469 199 469 219 489 c 128,-1,46
 239 509 239 509 267 509 c 0,47,48
 294 509 294 509 314 489 c 128,-1,49
 334 469 334 469 334 442 c 0,38,39
EndSplineSet
Validated: 9
EndChar

StartChar: Agrave
Encoding: 192 192 122
Width: 662
GlyphClass: 2
Flags: W
LayerCount: 2
Fore
SplineSet
526 0 m 1,0,-1
 462 183 l 1,1,-1
 199 183 l 1,2,-1
 135 0 l 1,3,-1
 13 0 l 1,4,-1
 277 700 l 1,5,-1
 384 700 l 1,6,-1
 648 0 l 1,7,-1
 526 0 l 1,0,-1
318 523 m 1,8,-1
 231 275 l 1,9,-1
 430 275 l 1,10,-1
 344 523 l 1,11,-1
 334 569 l 1,12,-1
 328 569 l 1,13,-1
 318 523 l 1,8,-1
286 899 m 1,14,-1
 374 755 l 1,15,-1
 280 755 l 1,16,-1
 169 899 l 1,17,-1
 286 899 l 1,14,-1
EndSplineSet
Validated: 1
EndChar

StartChar: Acircumflex
Encoding: 194 194 124
Width: 662
GlyphClass: 2
Flags: W
LayerCount: 2
Fore
SplineSet
526 0 m 1,0,-1
 462 183 l 1,1,-1
 199 183 l 1,2,-1
 135 0 l 1,3,-1
 13 0 l 1,4,-1
 277 700 l 1,5,-1
 384 700 l 1,6,-1
 648 0 l 1,7,-1
 526 0 l 1,0,-1
318 523 m 1,8,-1
 231 275 l 1,9,-1
 430 275 l 1,10,-1
 344 523 l 1,11,-1
 334 569 l 1,12,-1
 328 569 l 1,13,-1
 318 523 l 1,8,-1
324 815 m 1,14,-1
 259 755 l 1,15,-1
 156 755 l 1,16,-1
 154 761 l 1,17,-1
 284 875 l 1,18,-1
 365 875 l 1,19,-1
 495 761 l 1,20,-1
 493 755 l 1,21,-1
 390 755 l 1,22,-1
 324 815 l 1,14,-1
EndSplineSet
Validated: 1
EndChar

StartChar: Aring
Encoding: 197 197 127
Width: 662
GlyphClass: 2
Flags: W
LayerCount: 2
Fore
SplineSet
526 0 m 1,0,-1
 462 183 l 1,1,-1
 199 183 l 1,2,-1
 135 0 l 1,3,-1
 13 0 l 1,4,-1
 277 700 l 1,5,-1
 384 700 l 1,6,-1
 648 0 l 1,7,-1
 526 0 l 1,0,-1
318 523 m 1,8,-1
 231 275 l 1,9,-1
 430 275 l 1,10,-1
 344 523 l 1,11,-1
 334 569 l 1,12,-1
 328 569 l 1,13,-1
 318 523 l 1,8,-1
316 949 m 128,-1,15
 356 949 356 949 384.5 920.5 c 128,-1,16
 413 892 413 892 413 852 c 128,-1,17
 413 812 413 812 384.5 783.5 c 128,-1,18
 356 755 356 755 316 755 c 128,-1,19
 276 755 276 755 247.5 783.5 c 128,-1,20
 219 812 219 812 219 852 c 128,-1,21
 219 892 219 892 247.5 920.5 c 128,-1,14
 276 949 276 949 316 949 c 128,-1,15
316 813 m 128,-1,23
 332 813 332 813 343.5 824.5 c 128,-1,24
 355 836 355 836 355 852 c 128,-1,25
 355 868 355 868 343.5 879.5 c 128,-1,26
 332 891 332 891 316 891 c 128,-1,27
 300 891 300 891 288.5 879.5 c 128,-1,28
 277 868 277 868 277 852 c 128,-1,29
 277 836 277 836 288.5 824.5 c 128,-1,22
 300 813 300 813 316 813 c 128,-1,23
EndSplineSet
Validated: 1
EndChar

StartChar: AE
Encoding: 198 198 128
Width: 1037
GlyphClass: 2
Flags: W
LayerCount: 2
Fore
SplineSet
605 0 m 1,0,-1
 588 169 l 1,1,-1
 324 169 l 1,2,-1
 230 0 l 1,3,-1
 112 0 l 1,4,-1
 508 700 l 1,5,-1
 962 700 l 1,6,-1
 962 606 l 1,7,-1
 651 606 l 1,8,-1
 671 405 l 1,9,-1
 950 405 l 1,10,-1
 950 311 l 1,11,-1
 681 311 l 1,12,-1
 702 94 l 1,13,-1
 992 94 l 1,14,-1
 992 0 l 1,15,-1
 605 0 l 1,0,-1
543 563 m 1,16,-1
 376 263 l 1,17,-1
 579 263 l 1,18,-1
 549 562 l 1,19,-1
 543 563 l 1,16,-1
EndSplineSet
Validated: 1
EndChar

StartChar: Edieresis
Encoding: 203 203 133
Width: 548
GlyphClass: 2
Flags: W
LayerCount: 2
Fore
SplineSet
507 0 m 1,0,-1
 78 0 l 1,1,-1
 78 700 l 1,2,-1
 507 700 l 1,3,-1
 507 606 l 1,4,-1
 190 606 l 1,5,-1
 190 405 l 1,6,-1
 491 405 l 1,7,-1
 491 311 l 1,8,-1
 190 311 l 1,9,-1
 190 94 l 1,10,-1
 507 94 l 1,11,-1
 507 0 l 1,0,-1
111 854 m 0,12,13
 111 879 111 879 128.5 896.5 c 128,-1,14
 146 914 146 914 170 914 c 0,15,16
 195 914 195 914 212.5 896.5 c 128,-1,17
 230 879 230 879 230 854 c 0,18,19
 230 830 230 830 212.5 812.5 c 128,-1,20
 195 795 195 795 170 795 c 0,21,22
 146 795 146 795 128.5 812.5 c 128,-1,23
 111 830 111 830 111 854 c 0,12,13
361 854 m 0,24,25
 361 879 361 879 378.5 896.5 c 128,-1,26
 396 914 396 914 420 914 c 0,27,28
 445 914 445 914 462.5 896.5 c 128,-1,29
 480 879 480 879 480 854 c 0,30,31
 480 830 480 830 462.5 812.5 c 128,-1,32
 445 795 445 795 420 795 c 0,33,34
 396 795 396 795 378.5 812.5 c 128,-1,35
 361 830 361 830 361 854 c 0,24,25
EndSplineSet
Validated: 1
EndChar

StartChar: Igrave
Encoding: 204 204 134
Width: 277
GlyphClass: 2
Flags: W
LayerCount: 2
Fore
SplineSet
82 0 m 1,0,-1
 82 700 l 1,1,-1
 194 700 l 1,2,-1
 194 0 l 1,3,-1
 82 0 l 1,0,-1
96 899 m 1,4,-1
 184 755 l 1,5,-1
 90 755 l 1,6,-1
 -21 899 l 1,7,-1
 96 899 l 1,4,-1
EndSplineSet
Validated: 1
EndChar

StartChar: Icircumflex
Encoding: 206 206 136
Width: 277
GlyphClass: 2
Flags: W
LayerCount: 2
Fore
SplineSet
82 0 m 1,0,-1
 82 700 l 1,1,-1
 194 700 l 1,2,-1
 194 0 l 1,3,-1
 82 0 l 1,0,-1
134 815 m 1,4,-1
 69 755 l 1,5,-1
 -34 755 l 1,6,-1
 -36 761 l 1,7,-1
 94 875 l 1,8,-1
 175 875 l 1,9,-1
 305 761 l 1,10,-1
 303 755 l 1,11,-1
 200 755 l 1,12,-1
 134 815 l 1,4,-1
EndSplineSet
Validated: 1
EndChar

StartChar: Eth
Encoding: 208 208 138
Width: 685
GlyphClass: 2
Flags: W
LayerCount: 2
Fore
SplineSet
78 0 m 1,0,-1
 78 311 l 1,1,-1
 13 311 l 1,2,-1
 13 405 l 1,3,-1
 78 405 l 1,4,-1
 78 700 l 1,5,-1
 279 700 l 2,6,7
 440 700 440 700 540.5 600.5 c 128,-1,8
 641 501 641 501 641 350 c 128,-1,9
 641 199 641 199 540.5 99.5 c 128,-1,10
 440 0 440 0 279 0 c 2,11,-1
 78 0 l 1,0,-1
317 311 m 1,12,-1
 190 311 l 1,13,-1
 190 94 l 1,14,-1
 279 94 l 2,15,16
 392 94 392 94 460.5 166 c 128,-1,17
 529 238 529 238 529 350 c 0,18,19
 529 457 529 457 460 531.5 c 128,-1,20
 391 606 391 606 279 606 c 2,21,-1
 190 606 l 1,22,-1
 190 405 l 1,23,-1
 317 405 l 1,24,-1
 317 311 l 1,12,-1
EndSplineSet
Validated: 1
EndChar

StartChar: Ograve
Encoding: 210 210 140
Width: 791
GlyphClass: 2
Flags: W
LayerCount: 2
Fore
SplineSet
41 350 m 128,-1,1
 41 503 41 503 143.5 606.5 c 128,-1,2
 246 710 246 710 395 710 c 0,3,4
 541 710 541 710 645.5 606 c 128,-1,5
 750 502 750 502 750 350 c 0,6,7
 750 197 750 197 647.5 93.5 c 128,-1,8
 545 -10 545 -10 395 -10 c 0,9,10
 246 -10 246 -10 143.5 93.5 c 128,-1,0
 41 197 41 197 41 350 c 128,-1,1
153 350 m 0,11,12
 153 235 153 235 221.5 159.5 c 128,-1,13
 290 84 290 84 395 84 c 0,14,15
 499 84 499 84 568.5 160 c 128,-1,16
 638 236 638 236 638 350 c 0,17,18
 638 460 638 460 569 538 c 128,-1,19
 500 616 500 616 395 616 c 0,20,21
 291 616 291 616 222 538 c 128,-1,22
 153 460 153 460 153 350 c 0,11,12
361 909 m 1,23,-1
 449 765 l 1,24,-1
 355 765 l 1,25,-1
 244 909 l 1,26,-1
 361 909 l 1,23,-1
EndSplineSet
Validated: 1
EndChar

StartChar: Ocircumflex
Encoding: 212 212 142
Width: 791
GlyphClass: 2
Flags: W
LayerCount: 2
Fore
SplineSet
41 350 m 128,-1,1
 41 503 41 503 143.5 606.5 c 128,-1,2
 246 710 246 710 395 710 c 0,3,4
 541 710 541 710 645.5 606 c 128,-1,5
 750 502 750 502 750 350 c 0,6,7
 750 197 750 197 647.5 93.5 c 128,-1,8
 545 -10 545 -10 395 -10 c 0,9,10
 246 -10 246 -10 143.5 93.5 c 128,-1,0
 41 197 41 197 41 350 c 128,-1,1
153 350 m 0,11,12
 153 235 153 235 221.5 159.5 c 128,-1,13
 290 84 290 84 395 84 c 0,14,15
 499 84 499 84 568.5 160 c 128,-1,16
 638 236 638 236 638 350 c 0,17,18
 638 460 638 460 569 538 c 128,-1,19
 500 616 500 616 395 616 c 0,20,21
 291 616 291 616 222 538 c 128,-1,22
 153 460 153 460 153 350 c 0,11,12
399 825 m 1,23,-1
 334 765 l 1,24,-1
 231 765 l 1,25,-1
 229 771 l 1,26,-1
 359 885 l 1,27,-1
 440 885 l 1,28,-1
 570 771 l 1,29,-1
 568 765 l 1,30,-1
 465 765 l 1,31,-1
 399 825 l 1,23,-1
EndSplineSet
Validated: 1
EndChar

StartChar: Otilde
Encoding: 213 213 143
Width: 791
GlyphClass: 2
Flags: W
LayerCount: 2
Fore
SplineSet
41 350 m 128,-1,1
 41 503 41 503 143.5 606.5 c 128,-1,2
 246 710 246 710 395 710 c 0,3,4
 541 710 541 710 645.5 606 c 128,-1,5
 750 502 750 502 750 350 c 0,6,7
 750 197 750 197 647.5 93.5 c 128,-1,8
 545 -10 545 -10 395 -10 c 0,9,10
 246 -10 246 -10 143.5 93.5 c 128,-1,0
 41 197 41 197 41 350 c 128,-1,1
153 350 m 0,11,12
 153 235 153 235 221.5 159.5 c 128,-1,13
 290 84 290 84 395 84 c 0,14,15
 499 84 499 84 568.5 160 c 128,-1,16
 638 236 638 236 638 350 c 0,17,18
 638 460 638 460 569 538 c 128,-1,19
 500 616 500 616 395 616 c 0,20,21
 291 616 291 616 222 538 c 128,-1,22
 153 460 153 460 153 350 c 0,11,12
463 840 m 0,23,24
 471 840 471 840 477.5 842.5 c 128,-1,25
 484 845 484 845 490.5 851 c 128,-1,26
 497 857 497 857 500 860 c 128,-1,27
 503 863 503 863 509.5 873 c 128,-1,28
 516 883 516 883 517 884 c 2,29,-1
 563 848 l 1,30,31
 533 779 533 779 473 768 c 0,32,33
 432 762 432 762 387 794 c 0,34,35
 384 796 384 796 378 800.5 c 128,-1,36
 372 805 372 805 369 807.5 c 128,-1,37
 366 810 366 810 361 813.5 c 128,-1,38
 356 817 356 817 352 819 c 128,-1,39
 348 821 348 821 343.5 823 c 128,-1,40
 339 825 339 825 334 826 c 128,-1,41
 329 827 329 827 324 827 c 0,42,43
 312 827 312 827 301 820 c 128,-1,44
 290 813 290 813 285 807 c 128,-1,45
 280 801 280 801 270 786 c 0,46,47
 268 783 268 783 267 782 c 2,48,-1
 220 816 l 1,49,50
 263 898 263 898 329 898 c 0,51,52
 361 898 361 898 412 861 c 0,53,54
 441 840 441 840 463 840 c 0,23,24
EndSplineSet
Validated: 33
EndChar

StartChar: multiply
Encoding: 215 215 145
Width: 470
GlyphClass: 2
Flags: W
LayerCount: 2
Fore
SplineSet
233 122 m 1,0,-1
 209 243 l 1,1,-1
 75 217 l 1,2,-1
 82 284 l 1,3,-1
 196 307 l 1,4,-1
 170 440 l 1,5,-1
 237 434 l 1,6,-1
 259 319 l 1,7,-1
 393 346 l 1,8,-1
 386 279 l 1,9,-1
 272 256 l 1,10,-1
 300 116 l 1,11,-1
 233 122 l 1,0,-1
EndSplineSet
Validated: 1
EndChar

StartChar: Oslash
Encoding: 216 216 146
Width: 807
GlyphClass: 2
Flags: W
LayerCount: 2
Fore
SplineSet
49 350 m 0,0,1
 49 503 49 503 151.5 606.5 c 128,-1,2
 254 710 254 710 403 710 c 0,3,4
 482 710 482 710 556 674 c 1,5,-1
 595 743 l 1,6,-1
 674 743 l 1,7,-1
 616 639 l 1,8,9
 682 589 682 589 720 513.5 c 128,-1,10
 758 438 758 438 758 350 c 0,11,12
 758 197 758 197 655.5 93.5 c 128,-1,13
 553 -10 553 -10 403 -10 c 0,14,15
 331 -10 331 -10 267 16 c 1,16,-1
 220 -69 l 1,17,-1
 141 -69 l 1,18,-1
 206 48 l 1,19,20
 133 96 133 96 91 175.5 c 128,-1,21
 49 255 49 255 49 350 c 0,0,1
161 350 m 0,22,23
 161 210 161 210 255 135 c 1,24,-1
 509 590 l 1,25,26
 462 616 462 616 403 616 c 0,27,28
 299 616 299 616 230 538 c 128,-1,29
 161 460 161 460 161 350 c 0,22,23
646 350 m 0,30,31
 646 471 646 471 566 549 c 1,32,-1
 314 100 l 1,33,34
 357 84 357 84 403 84 c 0,35,36
 507 84 507 84 576.5 160 c 128,-1,37
 646 236 646 236 646 350 c 0,30,31
EndSplineSet
Validated: 1
EndChar

StartChar: Ugrave
Encoding: 217 217 147
Width: 702
GlyphClass: 2
Flags: W
LayerCount: 2
Fore
SplineSet
634 250 m 2,0,-1
 634 700 l 1,1,-1
 522 700 l 1,2,-1
 522 250 l 2,3,4
 522 174 522 174 473 129 c 128,-1,5
 424 84 424 84 351 84 c 0,6,7
 277 84 277 84 229 128.5 c 128,-1,8
 181 173 181 173 181 250 c 2,9,-1
 181 700 l 1,10,-1
 69 700 l 1,11,-1
 69 250 l 2,12,13
 69 134 69 134 149.5 62 c 128,-1,14
 230 -10 230 -10 351 -10 c 128,-1,15
 472 -10 472 -10 553 62 c 128,-1,16
 634 134 634 134 634 250 c 2,0,-1
311 899 m 1,17,-1
 399 755 l 1,18,-1
 305 755 l 1,19,-1
 194 899 l 1,20,-1
 311 899 l 1,17,-1
EndSplineSet
Validated: 9
EndChar

StartChar: Ucircumflex
Encoding: 219 219 149
Width: 702
GlyphClass: 2
Flags: W
LayerCount: 2
Fore
SplineSet
634 700 m 1,0,-1
 634 250 l 2,1,2
 634 134 634 134 553 62 c 128,-1,3
 472 -10 472 -10 351 -10 c 128,-1,4
 230 -10 230 -10 149.5 62 c 128,-1,5
 69 134 69 134 69 250 c 2,6,-1
 69 700 l 1,7,-1
 181 700 l 1,8,-1
 181 250 l 2,9,10
 181 173 181 173 229 128.5 c 128,-1,11
 277 84 277 84 351 84 c 0,12,13
 424 84 424 84 473 129 c 128,-1,14
 522 174 522 174 522 250 c 2,15,-1
 522 700 l 1,16,-1
 634 700 l 1,0,-1
349 815 m 1,17,-1
 284 755 l 1,18,-1
 181 755 l 1,19,-1
 179 761 l 1,20,-1
 309 875 l 1,21,-1
 390 875 l 1,22,-1
 520 761 l 1,23,-1
 518 755 l 1,24,-1
 415 755 l 1,25,-1
 349 815 l 1,17,-1
EndSplineSet
Validated: 1
EndChar

StartChar: Thorn
Encoding: 222 222 152
Width: 633
GlyphClass: 2
Flags: W
LayerCount: 2
Fore
SplineSet
78 0 m 1,0,-1
 78 700 l 1,1,-1
 190 700 l 1,2,-1
 190 564 l 1,3,-1
 329 564 l 2,4,5
 456 564 456 564 528.5 504.5 c 128,-1,6
 601 445 601 445 601 356 c 0,7,8
 601 266 601 266 529 207 c 128,-1,9
 457 148 457 148 329 148 c 2,10,-1
 190 148 l 1,11,-1
 190 0 l 1,12,-1
 78 0 l 1,0,-1
329 470 m 2,13,-1
 190 470 l 1,14,-1
 190 242 l 1,15,-1
 329 242 l 2,16,17
 408 242 408 242 448.5 273 c 128,-1,18
 489 304 489 304 489 356 c 0,19,20
 489 407 489 407 448.5 438.5 c 128,-1,21
 408 470 408 470 329 470 c 2,13,-1
EndSplineSet
Validated: 1
EndChar

StartChar: germandbls
Encoding: 223 223 153
Width: 572
GlyphClass: 2
Flags: W
LayerCount: 2
Fore
SplineSet
161 0 m 1,0,-1
 49 0 l 1,1,-1
 49 501 l 2,2,3
 48 592 48 592 107 652.5 c 128,-1,4
 166 713 166 713 264 713 c 0,5,6
 365 713 365 713 415.5 673 c 128,-1,7
 466 633 466 633 466 561 c 0,8,9
 466 531 466 531 445 468 c 0,10,11
 431 427 431 427 431 381 c 0,12,13
 431 366 431 366 440 349 c 128,-1,14
 449 332 449 332 456 324 c 128,-1,15
 463 316 463 316 482 296 c 0,16,17
 507 273 507 273 521 258 c 128,-1,18
 535 243 535 243 548 213.5 c 128,-1,19
 561 184 561 184 561 150 c 0,20,21
 561 67 561 67 500 25 c 128,-1,22
 439 -17 439 -17 343 -15 c 0,23,24
 284 -15 284 -15 221 0 c 1,25,-1
 234 94 l 1,26,27
 289 79 289 79 344 79 c 0,28,29
 388 79 388 79 416.5 100.5 c 128,-1,30
 445 122 445 122 445 162 c 128,-1,31
 445 202 445 202 393 248 c 0,32,33
 358 281 358 281 339.5 310 c 128,-1,34
 321 339 321 339 321 379 c 0,35,36
 321 417 321 417 341 481 c 0,37,38
 354 520 354 520 354 553 c 0,39,40
 354 623 354 623 262 623 c 0,41,42
 216 623 216 623 188 586.5 c 128,-1,43
 160 550 160 550 161 497 c 2,44,-1
 161 0 l 1,0,-1
EndSplineSet
Validated: 33
EndChar

StartChar: agrave
Encoding: 224 224 154
Width: 632
GlyphClass: 2
Flags: W
LayerCount: 2
Fore
SplineSet
287 510 m 0,0,1
 378 510 378 510 433 463 c 1,2,-1
 438 465 l 1,3,-1
 438 500 l 1,4,-1
 550 500 l 1,5,-1
 550 0 l 1,6,-1
 438 0 l 1,7,-1
 438 51 l 1,8,-1
 432 53 l 1,9,10
 378 -10 378 -10 277 -10 c 128,-1,11
 176 -10 176 -10 106 65.5 c 128,-1,12
 36 141 36 141 36 250 c 128,-1,13
 36 359 36 359 109 434.5 c 128,-1,14
 182 510 182 510 287 510 c 0,0,1
301 84 m 0,15,16
 398 84 398 84 438 160 c 1,17,-1
 438 374 l 1,18,19
 383 416 383 416 301 416 c 0,20,21
 238 416 238 416 193 368 c 128,-1,22
 148 320 148 320 148 250 c 0,23,24
 148 181 148 181 193 132.5 c 128,-1,25
 238 84 238 84 301 84 c 0,15,16
251 719 m 1,26,-1
 339 575 l 1,27,-1
 245 575 l 1,28,-1
 134 719 l 1,29,-1
 251 719 l 1,26,-1
EndSplineSet
Validated: 1
EndChar

StartChar: acircumflex
Encoding: 226 226 156
Width: 632
GlyphClass: 2
Flags: W
LayerCount: 2
Fore
SplineSet
287 510 m 0,0,1
 378 510 378 510 433 463 c 1,2,-1
 438 465 l 1,3,-1
 438 500 l 1,4,-1
 550 500 l 1,5,-1
 550 0 l 1,6,-1
 438 0 l 1,7,-1
 438 51 l 1,8,-1
 432 53 l 1,9,10
 378 -10 378 -10 277 -10 c 128,-1,11
 176 -10 176 -10 106 65.5 c 128,-1,12
 36 141 36 141 36 250 c 128,-1,13
 36 359 36 359 109 434.5 c 128,-1,14
 182 510 182 510 287 510 c 0,0,1
301 84 m 0,15,16
 398 84 398 84 438 160 c 1,17,-1
 438 374 l 1,18,19
 383 416 383 416 301 416 c 0,20,21
 238 416 238 416 193 368 c 128,-1,22
 148 320 148 320 148 250 c 0,23,24
 148 181 148 181 193 132.5 c 128,-1,25
 238 84 238 84 301 84 c 0,15,16
289 635 m 1,26,-1
 224 575 l 1,27,-1
 121 575 l 1,28,-1
 119 581 l 1,29,-1
 249 695 l 1,30,-1
 330 695 l 1,31,-1
 460 581 l 1,32,-1
 458 575 l 1,33,-1
 355 575 l 1,34,-1
 289 635 l 1,26,-1
EndSplineSet
Validated: 1
EndChar

StartChar: aring
Encoding: 229 229 159
Width: 632
GlyphClass: 2
Flags: W
LayerCount: 2
Fore
SplineSet
287 510 m 0,0,1
 378 510 378 510 433 463 c 1,2,-1
 438 465 l 1,3,-1
 438 500 l 1,4,-1
 550 500 l 1,5,-1
 550 0 l 1,6,-1
 438 0 l 1,7,-1
 438 51 l 1,8,-1
 432 53 l 1,9,10
 378 -10 378 -10 277 -10 c 128,-1,11
 176 -10 176 -10 106 65.5 c 128,-1,12
 36 141 36 141 36 250 c 128,-1,13
 36 359 36 359 109 434.5 c 128,-1,14
 182 510 182 510 287 510 c 0,0,1
301 84 m 0,15,16
 398 84 398 84 438 160 c 1,17,-1
 438 374 l 1,18,19
 383 416 383 416 301 416 c 0,20,21
 238 416 238 416 193 368 c 128,-1,22
 148 320 148 320 148 250 c 0,23,24
 148 181 148 181 193 132.5 c 128,-1,25
 238 84 238 84 301 84 c 0,15,16
281 769 m 128,-1,27
 321 769 321 769 349.5 740.5 c 128,-1,28
 378 712 378 712 378 672 c 128,-1,29
 378 632 378 632 349.5 603.5 c 128,-1,30
 321 575 321 575 281 575 c 0,31,32
 240 575 240 575 212 603.5 c 128,-1,33
 184 632 184 632 184 672 c 128,-1,34
 184 712 184 712 212.5 740.5 c 128,-1,26
 241 769 241 769 281 769 c 128,-1,27
281 633 m 128,-1,36
 297 633 297 633 308.5 644.5 c 128,-1,37
 320 656 320 656 320 672 c 128,-1,38
 320 688 320 688 309 699.5 c 128,-1,39
 298 711 298 711 281 711 c 0,40,41
 265 711 265 711 253.5 699.5 c 128,-1,42
 242 688 242 688 242 672 c 128,-1,43
 242 656 242 656 253.5 644.5 c 128,-1,35
 265 633 265 633 281 633 c 128,-1,36
EndSplineSet
Validated: 1
EndChar

StartChar: ae
Encoding: 230 230 160
Width: 918
GlyphClass: 2
Flags: W
LayerCount: 2
Fore
SplineSet
388 0 m 1,0,-1
 388 32 l 1,1,-1
 383 35 l 1,2,3
 326 -10 326 -10 227 -10 c 0,4,5
 150 -10 150 -10 98 33.5 c 128,-1,6
 46 77 46 77 46 150 c 128,-1,7
 46 223 46 223 100.5 265 c 128,-1,8
 155 307 155 307 237 307 c 128,-1,9
 319 307 319 307 388 280 c 1,10,-1
 388 306 l 2,11,12
 388 359 388 359 352.5 387.5 c 128,-1,13
 317 416 317 416 264 416 c 0,14,15
 189 416 189 416 115 394 c 1,16,-1
 99 480 l 1,17,18
 189 510 189 510 282 510 c 0,19,20
 396 510 396 510 458 434 c 1,21,22
 528 509 528 509 636 510 c 0,23,24
 739 510 739 510 800.5 451.5 c 128,-1,25
 862 393 862 393 869 284 c 1,26,-1
 869 224 l 1,27,-1
 501 224 l 1,28,29
 507 154 507 154 548 119.5 c 128,-1,30
 589 85 589 85 670 84 c 0,31,32
 752 84 752 84 817 114 c 1,33,-1
 838 29 l 1,34,35
 760 -10 760 -10 670 -10 c 0,36,37
 570 -10 570 -10 500 34 c 1,38,-1
 500 0 l 1,39,-1
 388 0 l 1,0,-1
255 76 m 0,40,41
 348 76 348 76 388 119 c 1,42,-1
 388 211 l 1,43,44
 336 229 336 229 265 229 c 0,45,46
 219 229 219 229 188.5 208.5 c 128,-1,47
 158 188 158 188 158 152 c 128,-1,48
 158 116 158 116 185.5 96 c 128,-1,49
 213 76 213 76 255 76 c 0,40,41
639 416 m 0,50,51
 586 416 586 416 552 386 c 128,-1,52
 518 356 518 356 506 306 c 1,53,-1
 756 306 l 1,54,55
 752 360 752 360 720 388 c 128,-1,56
 688 416 688 416 639 416 c 0,50,51
EndSplineSet
Validated: 1
EndChar

StartChar: edieresis
Encoding: 235 235 165
Width: 563
GlyphClass: 2
Flags: W
LayerCount: 2
Fore
SplineSet
289 510 m 0,0,1
 392 510 392 510 453.5 451.5 c 128,-1,2
 515 393 515 393 522 284 c 1,3,-1
 522 224 l 1,4,-1
 154 224 l 1,5,6
 160 154 160 154 201 119.5 c 128,-1,7
 242 85 242 85 323 84 c 0,8,9
 406 84 406 84 470 114 c 1,10,-1
 491 29 l 1,11,12
 413 -10 413 -10 323 -10 c 0,13,14
 196 -10 196 -10 118.5 59.5 c 128,-1,15
 41 129 41 129 41 249 c 0,16,17
 41 356 41 356 109.5 432.5 c 128,-1,18
 178 509 178 509 289 510 c 0,0,1
292 416 m 0,19,20
 239 416 239 416 205 386 c 128,-1,21
 171 356 171 356 159 306 c 1,22,-1
 409 306 l 1,23,24
 405 360 405 360 373 388 c 128,-1,25
 341 416 341 416 292 416 c 0,19,20
93 674 m 0,26,27
 93 699 93 699 110.5 716.5 c 128,-1,28
 128 734 128 734 152 734 c 0,29,30
 177 734 177 734 194.5 716.5 c 128,-1,31
 212 699 212 699 212 674 c 0,32,33
 212 650 212 650 194.5 632.5 c 128,-1,34
 177 615 177 615 152 615 c 0,35,36
 128 615 128 615 110.5 632.5 c 128,-1,37
 93 650 93 650 93 674 c 0,26,27
343 674 m 0,38,39
 343 699 343 699 360.5 716.5 c 128,-1,40
 378 734 378 734 402 734 c 0,41,42
 427 734 427 734 444.5 716.5 c 128,-1,43
 462 699 462 699 462 674 c 0,44,45
 462 650 462 650 444.5 632.5 c 128,-1,46
 427 615 427 615 402 615 c 0,47,48
 378 615 378 615 360.5 632.5 c 128,-1,49
 343 650 343 650 343 674 c 0,38,39
EndSplineSet
Validated: 1
EndChar

StartChar: igrave
Encoding: 236 236 166
Width: 286
GlyphClass: 2
Flags: W
LayerCount: 2
Fore
SplineSet
87 0 m 1,0,-1
 87 500 l 1,1,-1
 199 500 l 1,2,-1
 199 0 l 1,3,-1
 87 0 l 1,0,-1
101 709 m 1,4,-1
 189 565 l 1,5,-1
 95 565 l 1,6,-1
 -16 709 l 1,7,-1
 101 709 l 1,4,-1
EndSplineSet
Validated: 1
EndChar

StartChar: icircumflex
Encoding: 238 238 168
Width: 286
GlyphClass: 2
Flags: W
LayerCount: 2
Fore
SplineSet
87 0 m 1,0,-1
 87 500 l 1,1,-1
 199 500 l 1,2,-1
 199 0 l 1,3,-1
 87 0 l 1,0,-1
139 625 m 1,4,-1
 74 565 l 1,5,-1
 -29 565 l 1,6,-1
 -31 571 l 1,7,-1
 99 685 l 1,8,-1
 180 685 l 1,9,-1
 310 571 l 1,10,-1
 308 565 l 1,11,-1
 205 565 l 1,12,-1
 139 625 l 1,4,-1
EndSplineSet
Validated: 1
EndChar

StartChar: eth
Encoding: 240 240 170
Width: 589
GlyphClass: 2
Flags: W
LayerCount: 2
Fore
SplineSet
156 620 m 1,0,-1
 176 710 l 1,1,2
 283 691 283 691 349 651 c 2,3,-1
 359 645 l 1,4,-1
 446 712 l 1,5,-1
 489 657 l 1,6,-1
 416 601 l 1,7,8
 548 477 548 477 548 258 c 0,9,10
 548 146 548 146 479.5 68.5 c 128,-1,11
 411 -9 411 -9 296 -10 c 0,12,13
 192 -10 192 -10 118 49.5 c 128,-1,14
 44 109 44 109 44 208 c 0,15,16
 44 299 44 299 106.5 358 c 128,-1,17
 169 417 169 417 258 417 c 0,18,19
 308 417 308 417 353 398 c 128,-1,20
 398 379 398 379 428 349 c 1,21,-1
 434 351 l 1,22,23
 426 415 426 415 396 471 c 0,24,25
 371 514 371 514 339 541 c 1,26,-1
 252 474 l 1,27,-1
 209 529 l 1,28,-1
 278 582 l 1,29,30
 225 611 225 611 156 620 c 1,0,-1
420 158 m 0,31,32
 440 200 440 200 440 255 c 2,33,-1
 440 256 l 1,34,35
 383 325 383 325 286 327 c 0,36,37
 227 327 227 327 189.5 295.5 c 128,-1,38
 152 264 152 264 152 205 c 0,39,40
 152 145 152 145 192 110.5 c 128,-1,41
 232 76 232 76 290 76 c 0,42,43
 377 76 377 76 420 158 c 0,31,32
EndSplineSet
Validated: 1
EndChar

StartChar: ograve
Encoding: 242 242 172
Width: 609
GlyphClass: 2
Flags: W
LayerCount: 2
Fore
SplineSet
36 250 m 128,-1,1
 36 359 36 359 113 434.5 c 128,-1,2
 190 510 190 510 304 510 c 128,-1,3
 418 510 418 510 495.5 434.5 c 128,-1,4
 573 359 573 359 573 250 c 128,-1,5
 573 141 573 141 495.5 65.5 c 128,-1,6
 418 -10 418 -10 304 -10 c 128,-1,7
 190 -10 190 -10 113 65.5 c 128,-1,0
 36 141 36 141 36 250 c 128,-1,1
148 250 m 128,-1,9
 148 180 148 180 193 132 c 128,-1,10
 238 84 238 84 304 84 c 0,11,12
 371 84 371 84 416 131.5 c 128,-1,13
 461 179 461 179 461 250 c 0,14,15
 461 320 461 320 416 368 c 128,-1,16
 371 416 371 416 304 416 c 0,17,18
 238 416 238 416 193 368 c 128,-1,8
 148 320 148 320 148 250 c 128,-1,9
266 719 m 1,19,-1
 354 575 l 1,20,-1
 260 575 l 1,21,-1
 149 719 l 1,22,-1
 266 719 l 1,19,-1
EndSplineSet
Validated: 1
EndChar

StartChar: ocircumflex
Encoding: 244 244 174
Width: 609
GlyphClass: 2
Flags: W
LayerCount: 2
Fore
SplineSet
36 250 m 128,-1,1
 36 359 36 359 113 434.5 c 128,-1,2
 190 510 190 510 304 510 c 128,-1,3
 418 510 418 510 495.5 434.5 c 128,-1,4
 573 359 573 359 573 250 c 128,-1,5
 573 141 573 141 495.5 65.5 c 128,-1,6
 418 -10 418 -10 304 -10 c 128,-1,7
 190 -10 190 -10 113 65.5 c 128,-1,0
 36 141 36 141 36 250 c 128,-1,1
148 250 m 128,-1,9
 148 180 148 180 193 132 c 128,-1,10
 238 84 238 84 304 84 c 0,11,12
 371 84 371 84 416 131.5 c 128,-1,13
 461 179 461 179 461 250 c 0,14,15
 461 320 461 320 416 368 c 128,-1,16
 371 416 371 416 304 416 c 0,17,18
 238 416 238 416 193 368 c 128,-1,8
 148 320 148 320 148 250 c 128,-1,9
304 635 m 1,19,-1
 239 575 l 1,20,-1
 136 575 l 1,21,-1
 134 581 l 1,22,-1
 264 695 l 1,23,-1
 345 695 l 1,24,-1
 475 581 l 1,25,-1
 473 575 l 1,26,-1
 370 575 l 1,27,-1
 304 635 l 1,19,-1
EndSplineSet
Validated: 1
EndChar

StartChar: otilde
Encoding: 245 245 175
Width: 609
GlyphClass: 2
Flags: W
LayerCount: 2
Fore
SplineSet
36 250 m 128,-1,1
 36 359 36 359 113 434.5 c 128,-1,2
 190 510 190 510 304 510 c 128,-1,3
 418 510 418 510 495.5 434.5 c 128,-1,4
 573 359 573 359 573 250 c 128,-1,5
 573 141 573 141 495.5 65.5 c 128,-1,6
 418 -10 418 -10 304 -10 c 128,-1,7
 190 -10 190 -10 113 65.5 c 128,-1,0
 36 141 36 141 36 250 c 128,-1,1
148 250 m 128,-1,9
 148 180 148 180 193 132 c 128,-1,10
 238 84 238 84 304 84 c 0,11,12
 371 84 371 84 416 131.5 c 128,-1,13
 461 179 461 179 461 250 c 0,14,15
 461 320 461 320 416 368 c 128,-1,16
 371 416 371 416 304 416 c 0,17,18
 238 416 238 416 193 368 c 128,-1,8
 148 320 148 320 148 250 c 128,-1,9
368 650 m 0,19,20
 376 650 376 650 382.5 652.5 c 128,-1,21
 389 655 389 655 395.5 661 c 128,-1,22
 402 667 402 667 405 670 c 128,-1,23
 408 673 408 673 414.5 683 c 128,-1,24
 421 693 421 693 422 694 c 2,25,-1
 468 658 l 1,26,27
 438 589 438 589 378 578 c 0,28,29
 337 572 337 572 292 604 c 0,30,31
 289 606 289 606 283 610.5 c 128,-1,32
 277 615 277 615 274 617.5 c 128,-1,33
 271 620 271 620 266 623.5 c 128,-1,34
 261 627 261 627 257 629 c 128,-1,35
 253 631 253 631 248.5 633 c 128,-1,36
 244 635 244 635 239 636 c 128,-1,37
 234 637 234 637 229 637 c 0,38,39
 217 637 217 637 206 630 c 128,-1,40
 195 623 195 623 190 617 c 128,-1,41
 185 611 185 611 175 596 c 0,42,43
 174 595 174 595 173.5 594 c 128,-1,44
 173 593 173 593 172 592 c 2,45,-1
 125 626 l 1,46,47
 168 708 168 708 234 708 c 0,48,49
 266 708 266 708 317 671 c 0,50,51
 346 650 346 650 368 650 c 0,19,20
EndSplineSet
Validated: 33
EndChar

StartChar: divide
Encoding: 247 247 177
Width: 491
GlyphClass: 2
Flags: W
LayerCount: 2
Fore
SplineSet
184 440 m 0,0,1
 184 467 184 467 203.5 486 c 128,-1,2
 223 505 223 505 250 505 c 0,3,4
 278 505 278 505 297.5 486 c 128,-1,5
 317 467 317 467 317 440 c 0,6,7
 317 414 317 414 297.5 395 c 128,-1,8
 278 376 278 376 250 376 c 0,9,10
 224 376 224 376 204 395.5 c 128,-1,11
 184 415 184 415 184 440 c 0,0,1
184 141 m 0,12,13
 184 167 184 167 203.5 185.5 c 128,-1,14
 223 204 223 204 249 204 c 0,15,16
 277 204 277 204 296.5 185.5 c 128,-1,17
 316 167 316 167 316 141 c 0,18,19
 316 116 316 116 296.5 97.5 c 128,-1,20
 277 79 277 79 249 79 c 0,21,22
 223 79 223 79 203.5 97.5 c 128,-1,23
 184 116 184 116 184 141 c 0,12,13
452 248 m 1,24,-1
 46 248 l 1,25,-1
 46 334 l 1,26,-1
 452 334 l 1,27,-1
 452 248 l 1,24,-1
EndSplineSet
Validated: 1
EndChar

StartChar: oslash
Encoding: 248 248 178
Width: 618
GlyphClass: 2
Flags: W
LayerCount: 2
Fore
SplineSet
40 250 m 0,0,1
 40 359 40 359 117 434.5 c 128,-1,2
 194 510 194 510 308 510 c 0,3,4
 367 510 367 510 415 489 c 1,5,-1
 449 550 l 1,6,-1
 527 550 l 1,7,-1
 474 456 l 1,8,9
 522 419 522 419 549.5 365.5 c 128,-1,10
 577 312 577 312 577 250 c 0,11,12
 577 141 577 141 499.5 65.5 c 128,-1,13
 422 -10 422 -10 308 -10 c 0,14,15
 269 -10 269 -10 223 2 c 1,16,-1
 186 -65 l 1,17,-1
 108 -65 l 1,18,-1
 161 31 l 1,19,20
 105 66 105 66 72.5 123.5 c 128,-1,21
 40 181 40 181 40 250 c 0,0,1
152 250 m 0,22,23
 152 167 152 167 210 119 c 1,24,-1
 368 404 l 1,25,26
 335 416 335 416 308 416 c 0,27,28
 242 416 242 416 197 368 c 128,-1,29
 152 320 152 320 152 250 c 0,22,23
465 250 m 0,30,31
 465 316 465 316 423 364 c 1,32,-1
 271 88 l 1,33,34
 287 84 287 84 308 84 c 0,35,36
 375 84 375 84 420 131.5 c 128,-1,37
 465 179 465 179 465 250 c 0,30,31
EndSplineSet
Validated: 1
EndChar

StartChar: ugrave
Encoding: 249 249 179
Width: 605
GlyphClass: 2
Flags: W
LayerCount: 2
Fore
SplineSet
543 224 m 2,0,-1
 543 500 l 1,1,-1
 431 500 l 1,2,-1
 431 224 l 2,3,4
 431 159 431 159 394.5 121.5 c 128,-1,5
 358 84 358 84 302 84 c 128,-1,6
 246 84 246 84 210 121 c 128,-1,7
 174 158 174 158 174 224 c 2,8,-1
 174 500 l 1,9,-1
 62 500 l 1,10,-1
 62 224 l 2,11,12
 62 120 62 120 131 55 c 128,-1,13
 200 -10 200 -10 302 -10 c 0,14,15
 405 -10 405 -10 474 55 c 128,-1,16
 543 120 543 120 543 224 c 2,0,-1
266 709 m 1,17,-1
 354 565 l 1,18,-1
 260 565 l 1,19,-1
 149 709 l 1,20,-1
 266 709 l 1,17,-1
EndSplineSet
Validated: 9
EndChar

StartChar: ucircumflex
Encoding: 251 251 181
Width: 605
GlyphClass: 2
Flags: W
LayerCount: 2
Fore
SplineSet
543 500 m 1,0,-1
 543 224 l 2,1,2
 543 120 543 120 474 55 c 128,-1,3
 405 -10 405 -10 302 -10 c 0,4,5
 200 -10 200 -10 131 55 c 128,-1,6
 62 120 62 120 62 224 c 2,7,-1
 62 500 l 1,8,-1
 174 500 l 1,9,-1
 174 224 l 2,10,11
 174 158 174 158 210 121 c 128,-1,12
 246 84 246 84 302 84 c 128,-1,13
 358 84 358 84 394.5 121.5 c 128,-1,14
 431 159 431 159 431 224 c 2,15,-1
 431 500 l 1,16,-1
 543 500 l 1,0,-1
304 625 m 1,17,-1
 239 565 l 1,18,-1
 136 565 l 1,19,-1
 134 571 l 1,20,-1
 264 685 l 1,21,-1
 345 685 l 1,22,-1
 475 571 l 1,23,-1
 473 565 l 1,24,-1
 370 565 l 1,25,-1
 304 625 l 1,17,-1
EndSplineSet
Validated: 1
EndChar

StartChar: thorn
Encoding: 254 254 184
Width: 621
GlyphClass: 2
Flags: W
LayerCount: 2
Fore
SplineSet
334 -10 m 0,0,1
 244 -10 244 -10 185 36 c 1,2,-1
 185 -230 l 1,3,-1
 73 -230 l 1,4,-1
 73 730 l 1,5,-1
 185 730 l 1,6,-1
 185 450 l 1,7,-1
 191 448 l 1,8,9
 246 510 246 510 344 510 c 0,10,11
 445 510 445 510 515 434.5 c 128,-1,12
 585 359 585 359 585 250 c 128,-1,13
 585 141 585 141 512.5 65.5 c 128,-1,14
 440 -10 440 -10 334 -10 c 0,0,1
320 416 m 0,15,16
 225 416 225 416 185 344 c 1,17,-1
 185 119 l 1,18,19
 235 84 235 84 320 84 c 0,20,21
 383 84 383 84 428 132 c 128,-1,22
 473 180 473 180 473 250 c 0,23,24
 473 319 473 319 428 367.5 c 128,-1,25
 383 416 383 416 320 416 c 0,15,16
EndSplineSet
Validated: 1
EndChar

StartChar: ydieresis
Encoding: 255 255 185
Width: 539
GlyphClass: 2
Flags: W
LayerCount: 2
Fore
SplineSet
137 500 m 1,0,-1
 265 162 l 1,1,-1
 273 125 l 1,2,-1
 279 125 l 1,3,-1
 402 500 l 1,4,-1
 527 500 l 1,5,-1
 300 -81 l 2,6,7
 285 -121 285 -121 267.5 -148.5 c 128,-1,8
 250 -176 250 -176 223.5 -200.5 c 128,-1,9
 197 -225 197 -225 157.5 -237 c 128,-1,10
 118 -249 118 -249 65 -249 c 1,11,-1
 58 -156 l 1,12,13
 114 -156 114 -156 144.5 -134.5 c 128,-1,14
 175 -113 175 -113 196 -63 c 2,15,-1
 219 5 l 1,16,-1
 12 500 l 1,17,-1
 137 500 l 1,0,-1
78 664 m 0,18,19
 78 689 78 689 95.5 706.5 c 128,-1,20
 113 724 113 724 137 724 c 0,21,22
 162 724 162 724 179.5 706.5 c 128,-1,23
 197 689 197 689 197 664 c 0,24,25
 197 640 197 640 179.5 622.5 c 128,-1,26
 162 605 162 605 137 605 c 0,27,28
 113 605 113 605 95.5 622.5 c 128,-1,29
 78 640 78 640 78 664 c 0,18,19
328 664 m 0,30,31
 328 689 328 689 345.5 706.5 c 128,-1,32
 363 724 363 724 387 724 c 0,33,34
 412 724 412 724 429.5 706.5 c 128,-1,35
 447 689 447 689 447 664 c 0,36,37
 447 640 447 640 429.5 622.5 c 128,-1,38
 412 605 412 605 387 605 c 0,39,40
 363 605 363 605 345.5 622.5 c 128,-1,41
 328 640 328 640 328 664 c 0,30,31
EndSplineSet
Validated: 1
EndChar

StartChar: Ccaron
Encoding: 268 268 190
Width: 578
GlyphClass: 2
Flags: W
LayerCount: 2
Fore
SplineSet
153 350 m 0,0,1
 153 236 153 236 222 160 c 128,-1,2
 291 84 291 84 393 84 c 0,3,4
 483 84 483 84 538 107 c 1,5,-1
 562 18 l 1,6,7
 492 -10 492 -10 393 -10 c 0,8,9
 243 -10 243 -10 142 93 c 128,-1,10
 41 196 41 196 41 350 c 128,-1,11
 41 504 41 504 142 607 c 128,-1,12
 243 710 243 710 393 710 c 0,13,14
 493 710 493 710 562 681 c 1,15,-1
 538 593 l 1,16,17
 477 616 477 616 393 616 c 0,18,19
 292 616 292 616 222.5 537.5 c 128,-1,20
 153 459 153 459 153 350 c 0,0,1
379 819 m 1,21,-1
 445 885 l 1,22,-1
 548 885 l 1,23,-1
 550 879 l 1,24,-1
 420 765 l 1,25,-1
 339 765 l 1,26,-1
 209 879 l 1,27,-1
 211 885 l 1,28,-1
 314 885 l 1,29,-1
 379 819 l 1,21,-1
EndSplineSet
Validated: 1
EndChar

StartChar: ccaron
Encoding: 269 269 191
Width: 445
GlyphClass: 2
Flags: W
LayerCount: 2
Fore
SplineSet
144 250 m 128,-1,1
 144 180 144 180 189 132 c 128,-1,2
 234 84 234 84 298 84 c 0,3,4
 365 84 365 84 403 107 c 1,5,-1
 427 18 l 1,6,7
 372 -10 372 -10 298 -10 c 0,8,9
 188 -10 188 -10 112 65.5 c 128,-1,10
 36 141 36 141 36 250 c 128,-1,11
 36 359 36 359 112 434.5 c 128,-1,12
 188 510 188 510 298 510 c 0,13,14
 374 510 374 510 427 483 c 1,15,-1
 403 395 l 1,16,17
 353 416 353 416 298 416 c 0,18,19
 234 416 234 416 189 368 c 128,-1,0
 144 320 144 320 144 250 c 128,-1,1
233 629 m 1,20,-1
 299 695 l 1,21,-1
 402 695 l 1,22,-1
 404 689 l 1,23,-1
 274 575 l 1,24,-1
 193 575 l 1,25,-1
 63 689 l 1,26,-1
 65 695 l 1,27,-1
 168 695 l 1,28,-1
 233 629 l 1,20,-1
EndSplineSet
Validated: 1
EndChar

StartChar: dcaron
Encoding: 271 271 193
Width: 836
GlyphClass: 2
Flags: W
LayerCount: 2
Fore
SplineSet
295 510 m 0,0,1
 380 510 380 510 438 469 c 1,2,-1
 438 730 l 1,3,-1
 550 730 l 1,4,-1
 550 0 l 1,5,-1
 438 0 l 1,6,-1
 438 43 l 1,7,-1
 432 45 l 1,8,9
 379 -10 379 -10 285 -10 c 0,10,11
 184 -10 184 -10 114 65.5 c 128,-1,12
 44 141 44 141 44 250 c 128,-1,13
 44 359 44 359 117 434.5 c 128,-1,14
 190 510 190 510 295 510 c 0,0,1
309 84 m 0,15,16
 397 84 397 84 438 146 c 1,17,-1
 438 385 l 1,18,19
 387 416 387 416 309 416 c 0,20,21
 246 416 246 416 201 368 c 128,-1,22
 156 320 156 320 156 250 c 0,23,24
 156 181 156 181 201 132.5 c 128,-1,25
 246 84 246 84 309 84 c 0,15,16
673 676 m 0,26,27
 673 704 673 704 688.5 722 c 128,-1,28
 704 740 704 740 730 740 c 0,29,30
 758 740 758 740 776 720.5 c 128,-1,31
 794 701 794 701 794 669 c 0,32,33
 794 576 794 576 701 489 c 1,34,-1
 652 520 l 1,35,36
 686 559 686 559 700 608 c 0,37,38
 698 613 698 613 691.5 623.5 c 128,-1,39
 685 634 685 634 682 640 c 128,-1,40
 679 646 679 646 676 656 c 128,-1,41
 673 666 673 666 673 676 c 0,26,27
EndSplineSet
Validated: 1
EndChar

StartChar: Dcroat
Encoding: 272 272 194
Width: 685
GlyphClass: 2
Flags: W
LayerCount: 2
Fore
SplineSet
78 0 m 1,0,-1
 78 311 l 1,1,-1
 13 311 l 1,2,-1
 13 405 l 1,3,-1
 78 405 l 1,4,-1
 78 700 l 1,5,-1
 279 700 l 2,6,7
 440 700 440 700 540.5 600.5 c 128,-1,8
 641 501 641 501 641 350 c 128,-1,9
 641 199 641 199 540.5 99.5 c 128,-1,10
 440 0 440 0 279 0 c 2,11,-1
 78 0 l 1,0,-1
317 311 m 1,12,-1
 190 311 l 1,13,-1
 190 94 l 1,14,-1
 279 94 l 2,15,16
 392 94 392 94 460.5 166 c 128,-1,17
 529 238 529 238 529 350 c 0,18,19
 529 457 529 457 460 531.5 c 128,-1,20
 391 606 391 606 279 606 c 2,21,-1
 190 606 l 1,22,-1
 190 405 l 1,23,-1
 317 405 l 1,24,-1
 317 311 l 1,12,-1
EndSplineSet
Validated: 1
EndChar

StartChar: dcroat
Encoding: 273 273 195
Width: 610
GlyphClass: 2
Flags: W
LayerCount: 2
Fore
SplineSet
295 510 m 0,0,1
 380 510 380 510 438 469 c 1,2,-1
 438 730 l 1,3,-1
 550 730 l 1,4,-1
 550 0 l 1,5,-1
 438 0 l 1,6,-1
 438 43 l 1,7,-1
 432 45 l 1,8,9
 379 -10 379 -10 285 -10 c 0,10,11
 184 -10 184 -10 114 65.5 c 128,-1,12
 44 141 44 141 44 250 c 128,-1,13
 44 359 44 359 117 434.5 c 128,-1,14
 190 510 190 510 295 510 c 0,0,1
309 84 m 0,15,16
 397 84 397 84 438 146 c 1,17,-1
 438 385 l 1,18,19
 387 416 387 416 309 416 c 0,20,21
 246 416 246 416 201 368 c 128,-1,22
 156 320 156 320 156 250 c 0,23,24
 156 181 156 181 201 132.5 c 128,-1,25
 246 84 246 84 309 84 c 0,15,16
253 582 m 1,26,-1
 253 667 l 1,27,-1
 607 667 l 1,28,-1
 607 582 l 1,29,-1
 253 582 l 1,26,-1
EndSplineSet
Validated: 5
EndChar

StartChar: Eogonek
Encoding: 280 280 196
Width: 548
GlyphClass: 2
Flags: W
LayerCount: 2
Fore
SplineSet
507 0 m 1,0,-1
 78 0 l 1,1,-1
 78 700 l 1,2,-1
 507 700 l 1,3,-1
 507 606 l 1,4,-1
 190 606 l 1,5,-1
 190 405 l 1,6,-1
 491 405 l 1,7,-1
 491 311 l 1,8,-1
 190 311 l 1,9,-1
 190 94 l 1,10,-1
 507 94 l 1,11,-1
 507 0 l 1,0,-1
469 0 m 1,12,-1
 469 -5 l 1,13,14
 395 -45 395 -45 395 -103 c 1,15,-1
 507 -103 l 1,16,-1
 507 -166 l 1,17,-1
 315 -166 l 1,18,-1
 315 -143 l 2,19,20
 315 -40 315 -40 394 0 c 1,21,-1
 469 0 l 1,12,-1
EndSplineSet
Validated: 5
EndChar

StartChar: eogonek
Encoding: 281 281 197
Width: 563
GlyphClass: 2
Flags: W
LayerCount: 2
Fore
SplineSet
289 510 m 0,0,1
 392 510 392 510 453.5 451.5 c 128,-1,2
 515 393 515 393 522 284 c 1,3,-1
 522 224 l 1,4,-1
 154 224 l 1,5,6
 160 154 160 154 201 119.5 c 128,-1,7
 242 85 242 85 323 84 c 0,8,9
 406 84 406 84 470 114 c 1,10,-1
 491 29 l 1,11,12
 413 -10 413 -10 323 -10 c 0,13,14
 196 -10 196 -10 118.5 59.5 c 128,-1,15
 41 129 41 129 41 249 c 0,16,17
 41 356 41 356 109.5 432.5 c 128,-1,18
 178 509 178 509 289 510 c 0,0,1
292 416 m 0,19,20
 239 416 239 416 205 386 c 128,-1,21
 171 356 171 356 159 306 c 1,22,-1
 409 306 l 1,23,24
 405 360 405 360 373 388 c 128,-1,25
 341 416 341 416 292 416 c 0,19,20
484 0 m 1,26,-1
 484 -5 l 1,27,28
 410 -45 410 -45 410 -103 c 1,29,-1
 522 -103 l 1,30,-1
 522 -166 l 1,31,-1
 330 -166 l 1,32,-1
 330 -143 l 2,33,34
 330 -40 330 -40 409 0 c 1,35,-1
 484 0 l 1,26,-1
EndSplineSet
Validated: 5
EndChar

StartChar: Ecaron
Encoding: 282 282 198
Width: 548
GlyphClass: 2
Flags: W
LayerCount: 2
Fore
SplineSet
507 0 m 1,0,-1
 78 0 l 1,1,-1
 78 700 l 1,2,-1
 507 700 l 1,3,-1
 507 606 l 1,4,-1
 190 606 l 1,5,-1
 190 405 l 1,6,-1
 491 405 l 1,7,-1
 491 311 l 1,8,-1
 190 311 l 1,9,-1
 190 94 l 1,10,-1
 507 94 l 1,11,-1
 507 0 l 1,0,-1
297 809 m 1,12,-1
 363 875 l 1,13,-1
 466 875 l 1,14,-1
 468 869 l 1,15,-1
 338 755 l 1,16,-1
 257 755 l 1,17,-1
 127 869 l 1,18,-1
 129 875 l 1,19,-1
 232 875 l 1,20,-1
 297 809 l 1,12,-1
EndSplineSet
Validated: 1
EndChar

StartChar: ecaron
Encoding: 283 283 199
Width: 563
GlyphClass: 2
Flags: W
LayerCount: 2
Fore
SplineSet
289 510 m 0,0,1
 392 510 392 510 453.5 451.5 c 128,-1,2
 515 393 515 393 522 284 c 1,3,-1
 522 224 l 1,4,-1
 154 224 l 1,5,6
 160 154 160 154 201 119.5 c 128,-1,7
 242 85 242 85 323 84 c 0,8,9
 406 84 406 84 470 114 c 1,10,-1
 491 29 l 1,11,12
 413 -10 413 -10 323 -10 c 0,13,14
 196 -10 196 -10 118.5 59.5 c 128,-1,15
 41 129 41 129 41 249 c 0,16,17
 41 356 41 356 109.5 432.5 c 128,-1,18
 178 509 178 509 289 510 c 0,0,1
292 416 m 0,19,20
 239 416 239 416 205 386 c 128,-1,21
 171 356 171 356 159 306 c 1,22,-1
 409 306 l 1,23,24
 405 360 405 360 373 388 c 128,-1,25
 341 416 341 416 292 416 c 0,19,20
279 629 m 1,26,-1
 345 695 l 1,27,-1
 448 695 l 1,28,-1
 450 689 l 1,29,-1
 320 575 l 1,30,-1
 239 575 l 1,31,-1
 109 689 l 1,32,-1
 111 695 l 1,33,-1
 214 695 l 1,34,-1
 279 629 l 1,26,-1
EndSplineSet
Validated: 1
EndChar

StartChar: dotlessi
Encoding: 305 305 200
Width: 286
GlyphClass: 2
Flags: W
LayerCount: 2
Fore
SplineSet
87 0 m 1,0,-1
 87 500 l 1,1,-1
 199 500 l 1,2,-1
 199 0 l 1,3,-1
 87 0 l 1,0,-1
EndSplineSet
Validated: 1
EndChar

StartChar: Lcaron
Encoding: 317 317 203
Width: 503
GlyphClass: 2
Flags: W
LayerCount: 2
Fore
SplineSet
78 0 m 1,0,-1
 78 700 l 1,1,-1
 190 700 l 1,2,-1
 190 94 l 1,3,-1
 485 94 l 1,4,-1
 485 0 l 1,5,-1
 78 0 l 1,0,-1
330 465 m 1,6,-1
 320 705 l 1,7,-1
 416 705 l 1,8,-1
 416 465 l 1,9,-1
 330 465 l 1,6,-1
EndSplineSet
Validated: 1
EndChar

StartChar: lcaron
Encoding: 318 318 204
Width: 298
GlyphClass: 2
Flags: W
LayerCount: 2
Fore
SplineSet
261 89 m 1,0,-1
 251 -9 l 1,1,2
 164 -9 164 -9 118.5 31.5 c 128,-1,3
 73 72 73 72 73 151 c 2,4,-1
 73 730 l 1,5,-1
 185 730 l 1,6,-1
 185 159 l 2,7,8
 185 94 185 94 261 89 c 1,0,-1
323 504 m 1,9,-1
 313 744 l 1,10,-1
 409 744 l 1,11,-1
 409 504 l 1,12,-1
 323 504 l 1,9,-1
EndSplineSet
Validated: 1
EndChar

StartChar: Lslash
Encoding: 321 321 205
Width: 535
GlyphClass: 2
Flags: W
LayerCount: 2
Fore
SplineSet
110 0 m 1,0,-1
 110 287 l 1,1,-1
 39 259 l 1,2,-1
 39 338 l 1,3,-1
 110 366 l 1,4,-1
 110 700 l 1,5,-1
 222 700 l 1,6,-1
 222 412 l 1,7,-1
 311 448 l 1,8,-1
 311 369 l 1,9,-1
 222 333 l 1,10,-1
 222 94 l 1,11,-1
 517 94 l 1,12,-1
 517 0 l 1,13,-1
 110 0 l 1,0,-1
EndSplineSet
Validated: 1
EndChar

StartChar: lslash
Encoding: 322 322 206
Width: 364
GlyphClass: 2
Flags: W
LayerCount: 2
Fore
SplineSet
306 89 m 1,0,-1
 296 -9 l 1,1,2
 209 -9 209 -9 163.5 31.5 c 128,-1,3
 118 72 118 72 118 151 c 2,4,-1
 118 329 l 1,5,-1
 42 299 l 1,6,-1
 42 378 l 1,7,-1
 118 408 l 1,8,-1
 118 730 l 1,9,-1
 230 730 l 1,10,-1
 230 454 l 1,11,-1
 314 488 l 1,12,-1
 314 409 l 1,13,-1
 230 375 l 1,14,-1
 230 159 l 2,15,16
 230 94 230 94 306 89 c 1,0,-1
EndSplineSet
Validated: 1
EndChar

StartChar: Nacute
Encoding: 323 323 207
Width: 753
GlyphClass: 2
Flags: W
LayerCount: 2
Fore
SplineSet
571 0 m 1,0,-1
 232 461 l 1,1,-1
 196 524 l 1,2,-1
 190 522 l 1,3,-1
 190 0 l 1,4,-1
 78 0 l 1,5,-1
 78 700 l 1,6,-1
 182 700 l 1,7,-1
 523 231 l 1,8,-1
 557 172 l 1,9,-1
 563 174 l 1,10,-1
 563 700 l 1,11,-1
 675 700 l 1,12,-1
 675 0 l 1,13,-1
 571 0 l 1,0,-1
316 755 m 1,14,-1
 404 899 l 1,15,-1
 521 899 l 1,16,-1
 410 755 l 1,17,-1
 316 755 l 1,14,-1
EndSplineSet
Validated: 1
EndChar

StartChar: nacute
Encoding: 324 324 208
Width: 611
GlyphClass: 2
Flags: W
LayerCount: 2
Fore
SplineSet
73 0 m 1,0,-1
 73 500 l 1,1,-1
 185 500 l 1,2,-1
 185 439 l 1,3,-1
 191 437 l 1,4,5
 252 510 252 510 366 510 c 0,6,7
 444 510 444 510 495.5 455 c 128,-1,8
 547 400 547 400 547 300 c 2,9,-1
 547 0 l 1,10,-1
 435 0 l 1,11,-1
 435 296 l 2,12,13
 435 356 435 356 404.5 386 c 128,-1,14
 374 416 374 416 326 416 c 0,15,16
 231 416 231 416 185 348 c 1,17,-1
 185 0 l 1,18,-1
 73 0 l 1,0,-1
250 575 m 1,19,-1
 338 719 l 1,20,-1
 455 719 l 1,21,-1
 344 575 l 1,22,-1
 250 575 l 1,19,-1
EndSplineSet
Validated: 1
EndChar

StartChar: Ncaron
Encoding: 327 327 209
Width: 753
GlyphClass: 2
Flags: W
LayerCount: 2
Fore
SplineSet
571 0 m 1,0,-1
 232 461 l 1,1,-1
 196 524 l 1,2,-1
 190 522 l 1,3,-1
 190 0 l 1,4,-1
 78 0 l 1,5,-1
 78 700 l 1,6,-1
 182 700 l 1,7,-1
 523 231 l 1,8,-1
 557 172 l 1,9,-1
 563 174 l 1,10,-1
 563 700 l 1,11,-1
 675 700 l 1,12,-1
 675 0 l 1,13,-1
 571 0 l 1,0,-1
375 809 m 1,14,-1
 441 875 l 1,15,-1
 544 875 l 1,16,-1
 546 869 l 1,17,-1
 416 755 l 1,18,-1
 335 755 l 1,19,-1
 205 869 l 1,20,-1
 207 875 l 1,21,-1
 310 875 l 1,22,-1
 375 809 l 1,14,-1
EndSplineSet
Validated: 1
EndChar

StartChar: ncaron
Encoding: 328 328 210
Width: 611
GlyphClass: 2
Flags: W
LayerCount: 2
Fore
SplineSet
73 0 m 1,0,-1
 73 500 l 1,1,-1
 185 500 l 1,2,-1
 185 439 l 1,3,-1
 191 437 l 1,4,5
 252 510 252 510 366 510 c 0,6,7
 444 510 444 510 495.5 455 c 128,-1,8
 547 400 547 400 547 300 c 2,9,-1
 547 0 l 1,10,-1
 435 0 l 1,11,-1
 435 296 l 2,12,13
 435 356 435 356 404.5 386 c 128,-1,14
 374 416 374 416 326 416 c 0,15,16
 231 416 231 416 185 348 c 1,17,-1
 185 0 l 1,18,-1
 73 0 l 1,0,-1
309 629 m 1,19,-1
 375 695 l 1,20,-1
 478 695 l 1,21,-1
 480 689 l 1,22,-1
 350 575 l 1,23,-1
 269 575 l 1,24,-1
 139 689 l 1,25,-1
 141 695 l 1,26,-1
 244 695 l 1,27,-1
 309 629 l 1,19,-1
EndSplineSet
Validated: 1
EndChar

StartChar: OE
Encoding: 338 338 213
Width: 946
GlyphClass: 2
Flags: W
LayerCount: 2
Fore
SplineSet
906 0 m 1,0,-1
 503 0 l 1,1,2
 453 -10 453 -10 393 -10 c 0,3,4
 243 -10 243 -10 142 93 c 128,-1,5
 41 196 41 196 41 350 c 128,-1,6
 41 504 41 504 142 607 c 128,-1,7
 243 710 243 710 393 710 c 0,8,9
 453 710 453 710 502 700 c 1,10,-1
 906 700 l 1,11,-1
 906 606 l 1,12,-1
 589 606 l 1,13,-1
 589 405 l 1,14,-1
 890 405 l 1,15,-1
 890 311 l 1,16,-1
 589 311 l 1,17,-1
 589 94 l 1,18,-1
 906 94 l 1,19,-1
 906 0 l 1,0,-1
153 350 m 0,20,21
 153 236 153 236 222 160 c 128,-1,22
 291 84 291 84 393 84 c 0,23,24
 446 84 446 84 477 90 c 1,25,-1
 477 609 l 1,26,27
 431 616 431 616 393 616 c 0,28,29
 292 616 292 616 222.5 537.5 c 128,-1,30
 153 459 153 459 153 350 c 0,20,21
EndSplineSet
Validated: 1
EndChar

StartChar: oe
Encoding: 339 339 214
Width: 998
GlyphClass: 2
Flags: W
LayerCount: 2
Fore
SplineSet
40 250 m 128,-1,1
 40 359 40 359 117 434.5 c 128,-1,2
 194 510 194 510 308 510 c 0,3,4
 375 510 375 510 431.5 482 c 128,-1,5
 488 454 488 454 525 405 c 1,6,7
 558 453 558 453 609.5 481 c 128,-1,8
 661 509 661 509 726 510 c 0,9,10
 829 510 829 510 890.5 451.5 c 128,-1,11
 952 393 952 393 959 284 c 1,12,-1
 959 224 l 1,13,-1
 591 224 l 1,14,15
 597 154 597 154 638 119.5 c 128,-1,16
 679 85 679 85 760 84 c 0,17,18
 842 84 842 84 907 114 c 1,19,-1
 928 29 l 1,20,21
 850 -10 850 -10 760 -10 c 0,22,23
 600 -10 600 -10 525 94 c 1,24,25
 488 45 488 45 431.5 17.5 c 128,-1,26
 375 -10 375 -10 308 -10 c 0,27,28
 194 -10 194 -10 117 65.5 c 128,-1,0
 40 141 40 141 40 250 c 128,-1,1
152 250 m 128,-1,30
 152 180 152 180 197 132 c 128,-1,31
 242 84 242 84 308 84 c 0,32,33
 375 84 375 84 420 131.5 c 128,-1,34
 465 179 465 179 465 250 c 0,35,36
 465 320 465 320 420 368 c 128,-1,37
 375 416 375 416 308 416 c 0,38,39
 242 416 242 416 197 368 c 128,-1,29
 152 320 152 320 152 250 c 128,-1,30
729 416 m 0,40,41
 676 416 676 416 642 386 c 128,-1,42
 608 356 608 356 596 306 c 1,43,-1
 846 306 l 1,44,45
 842 360 842 360 810 388 c 128,-1,46
 778 416 778 416 729 416 c 0,40,41
EndSplineSet
Validated: 1
EndChar

StartChar: Rcaron
Encoding: 344 344 217
Width: 613
GlyphClass: 2
Flags: W
LayerCount: 2
Fore
SplineSet
474 0 m 1,0,-1
 313 284 l 1,1,-1
 190 284 l 1,2,-1
 190 0 l 1,3,-1
 78 0 l 1,4,-1
 78 700 l 1,5,-1
 295 700 l 2,6,7
 417 700 417 700 487 640.5 c 128,-1,8
 557 581 557 581 557 492 c 0,9,10
 557 430 557 430 522 380.5 c 128,-1,11
 487 331 487 331 423 306 c 1,12,-1
 601 0 l 1,13,-1
 474 0 l 1,0,-1
295 606 m 2,14,-1
 190 606 l 1,15,-1
 190 378 l 1,16,-1
 295 378 l 2,17,18
 369 378 369 378 407 408.5 c 128,-1,19
 445 439 445 439 445 492 c 0,20,21
 445 544 445 544 407 575 c 128,-1,22
 369 606 369 606 295 606 c 2,14,-1
249 809 m 1,23,-1
 315 875 l 1,24,-1
 418 875 l 1,25,-1
 420 869 l 1,26,-1
 290 755 l 1,27,-1
 209 755 l 1,28,-1
 79 869 l 1,29,-1
 81 875 l 1,30,-1
 184 875 l 1,31,-1
 249 809 l 1,23,-1
EndSplineSet
Validated: 1
EndChar

StartChar: rcaron
Encoding: 345 345 218
Width: 368
GlyphClass: 2
Flags: W
LayerCount: 2
Fore
SplineSet
73 -1 m 1,0,-1
 73 500 l 1,1,-1
 185 500 l 1,2,-1
 185 443 l 1,3,-1
 191 441 l 1,4,5
 248 510 248 510 336 510 c 2,6,-1
 350 510 l 1,7,-1
 350 408 l 1,8,-1
 326 408 l 2,9,10
 242 408 242 408 185 349 c 1,11,-1
 185 -1 l 1,12,-1
 73 -1 l 1,0,-1
210 629 m 1,13,-1
 276 695 l 1,14,-1
 379 695 l 1,15,-1
 381 689 l 1,16,-1
 251 575 l 1,17,-1
 170 575 l 1,18,-1
 40 689 l 1,19,-1
 42 695 l 1,20,-1
 145 695 l 1,21,-1
 210 629 l 1,13,-1
EndSplineSet
Validated: 1
EndChar

StartChar: Sacute
Encoding: 346 346 219
Width: 548
GlyphClass: 2
Flags: W
LayerCount: 2
Fore
SplineSet
53 33 m 1,0,-1
 76 124 l 1,1,2
 175 88 175 88 255 88 c 0,3,4
 308 88 308 88 345 114.5 c 128,-1,5
 382 141 382 141 382 192 c 0,6,7
 382 234 382 234 351.5 260 c 128,-1,8
 321 286 321 286 246 310 c 0,9,10
 53 376 53 376 53 509 c 0,11,12
 53 606 53 606 120.5 658 c 128,-1,13
 188 710 188 710 286 710 c 0,14,15
 379 710 379 710 482 667 c 1,16,-1
 458 575 l 1,17,18
 364 612 364 612 286 612 c 0,19,20
 237 612 237 612 203 586 c 128,-1,21
 169 560 169 560 169 513 c 0,22,23
 169 476 169 476 200 449 c 128,-1,24
 231 422 231 422 303 397 c 0,25,26
 396 363 396 363 447 316.5 c 128,-1,27
 498 270 498 270 498 197 c 0,28,29
 498 96 498 96 427.5 43 c 128,-1,30
 357 -10 357 -10 255 -10 c 0,31,32
 159 -10 159 -10 53 33 c 1,0,-1
216 765 m 1,33,-1
 304 909 l 1,34,-1
 421 909 l 1,35,-1
 310 765 l 1,36,-1
 216 765 l 1,33,-1
EndSplineSet
Validated: 1
EndChar

StartChar: sacute
Encoding: 347 347 220
Width: 466
GlyphClass: 2
Flags: W
LayerCount: 2
Fore
SplineSet
51 24 m 1,0,-1
 73 116 l 1,1,2
 156 86 156 86 216 86 c 0,3,4
 255 86 255 86 281 101 c 128,-1,5
 307 116 307 116 307 146 c 0,6,7
 307 170 307 170 287 186 c 128,-1,8
 267 202 267 202 214 214 c 0,9,10
 54 251 54 251 54 359 c 0,11,12
 54 431 54 431 108.5 470.5 c 128,-1,13
 163 510 163 510 242 510 c 0,14,15
 318 510 318 510 402 474 c 1,16,-1
 381 385 l 1,17,18
 303 415 303 415 246 415 c 0,19,20
 212 415 212 415 189 400 c 128,-1,21
 166 385 166 385 166 359 c 0,22,23
 166 316 166 316 254 297 c 0,24,25
 418 262 418 262 418 148 c 0,26,27
 418 72 418 72 361 31.5 c 128,-1,28
 304 -9 304 -9 221 -9 c 128,-1,29
 138 -9 138 -9 51 24 c 1,0,-1
174 575 m 1,30,-1
 262 719 l 1,31,-1
 379 719 l 1,32,-1
 268 575 l 1,33,-1
 174 575 l 1,30,-1
EndSplineSet
Validated: 1
EndChar

StartChar: Scaron
Encoding: 352 352 223
Width: 548
GlyphClass: 2
Flags: W
LayerCount: 2
Fore
SplineSet
53 33 m 1,0,-1
 76 124 l 1,1,2
 175 88 175 88 255 88 c 0,3,4
 308 88 308 88 345 114.5 c 128,-1,5
 382 141 382 141 382 192 c 0,6,7
 382 234 382 234 351.5 260 c 128,-1,8
 321 286 321 286 246 310 c 0,9,10
 53 376 53 376 53 509 c 0,11,12
 53 606 53 606 120.5 658 c 128,-1,13
 188 710 188 710 286 710 c 0,14,15
 379 710 379 710 482 667 c 1,16,-1
 458 575 l 1,17,18
 364 612 364 612 286 612 c 0,19,20
 237 612 237 612 203 586 c 128,-1,21
 169 560 169 560 169 513 c 0,22,23
 169 476 169 476 200 449 c 128,-1,24
 231 422 231 422 303 397 c 0,25,26
 396 363 396 363 447 316.5 c 128,-1,27
 498 270 498 270 498 197 c 0,28,29
 498 96 498 96 427.5 43 c 128,-1,30
 357 -10 357 -10 255 -10 c 0,31,32
 159 -10 159 -10 53 33 c 1,0,-1
275 819 m 1,33,-1
 341 885 l 1,34,-1
 444 885 l 1,35,-1
 446 879 l 1,36,-1
 316 765 l 1,37,-1
 235 765 l 1,38,-1
 105 879 l 1,39,-1
 107 885 l 1,40,-1
 210 885 l 1,41,-1
 275 819 l 1,33,-1
EndSplineSet
Validated: 1
EndChar

StartChar: scaron
Encoding: 353 353 224
Width: 466
GlyphClass: 2
Flags: W
LayerCount: 2
Fore
SplineSet
51 24 m 1,0,-1
 73 116 l 1,1,2
 156 86 156 86 216 86 c 0,3,4
 255 86 255 86 281 101 c 128,-1,5
 307 116 307 116 307 146 c 0,6,7
 307 170 307 170 287 186 c 128,-1,8
 267 202 267 202 214 214 c 0,9,10
 54 251 54 251 54 359 c 0,11,12
 54 431 54 431 108.5 470.5 c 128,-1,13
 163 510 163 510 242 510 c 0,14,15
 318 510 318 510 402 474 c 1,16,-1
 381 385 l 1,17,18
 303 415 303 415 246 415 c 0,19,20
 212 415 212 415 189 400 c 128,-1,21
 166 385 166 385 166 359 c 0,22,23
 166 316 166 316 254 297 c 0,24,25
 418 262 418 262 418 148 c 0,26,27
 418 72 418 72 361 31.5 c 128,-1,28
 304 -9 304 -9 221 -9 c 128,-1,29
 138 -9 138 -9 51 24 c 1,0,-1
233 629 m 1,30,-1
 299 695 l 1,31,-1
 402 695 l 1,32,-1
 404 689 l 1,33,-1
 274 575 l 1,34,-1
 193 575 l 1,35,-1
 63 689 l 1,36,-1
 65 695 l 1,37,-1
 168 695 l 1,38,-1
 233 629 l 1,30,-1
EndSplineSet
Validated: 1
EndChar

StartChar: Tcommaaccent
Encoding: 354 354 225
Width: 540
GlyphClass: 2
Flags: W
LayerCount: 2
Fore
SplineSet
522 606 m 1,0,-1
 329 606 l 1,1,-1
 329 0 l 1,2,-1
 217 0 l 1,3,-1
 217 606 l 1,4,-1
 18 606 l 1,5,-1
 18 700 l 1,6,-1
 522 700 l 1,7,-1
 522 606 l 1,0,-1
201 -140 m 0,8,9
 201 -112 201 -112 216.5 -94 c 128,-1,10
 232 -76 232 -76 258 -76 c 0,11,12
 286 -76 286 -76 304 -95.5 c 128,-1,13
 322 -115 322 -115 322 -147 c 0,14,15
 322 -240 322 -240 229 -327 c 1,16,-1
 180 -296 l 1,17,18
 214 -257 214 -257 228 -208 c 0,19,20
 226 -203 226 -203 219.5 -192.5 c 128,-1,21
 213 -182 213 -182 210 -176 c 128,-1,22
 207 -170 207 -170 204 -160 c 128,-1,23
 201 -150 201 -150 201 -140 c 0,8,9
EndSplineSet
Validated: 1
EndChar

StartChar: tcommaaccent
Encoding: 355 355 226
Width: 389
GlyphClass: 2
Flags: W
LayerCount: 2
Fore
SplineSet
13 410 m 1,0,-1
 13 500 l 1,1,-1
 90 500 l 1,2,-1
 90 660 l 1,3,-1
 202 660 l 1,4,-1
 202 500 l 1,5,-1
 338 500 l 1,6,-1
 338 410 l 1,7,-1
 202 410 l 1,8,-1
 202 177 l 2,9,10
 202 135 202 135 223 114 c 128,-1,11
 244 93 244 93 280 93 c 0,12,13
 325 93 325 93 351 104 c 1,14,-1
 371 16 l 1,15,16
 329 -5 329 -5 268 -5 c 0,17,18
 190 -5 190 -5 140 42.5 c 128,-1,19
 90 90 90 90 90 173 c 2,20,-1
 90 410 l 1,21,-1
 13 410 l 1,0,-1
159 -139 m 0,22,23
 159 -111 159 -111 174.5 -93 c 128,-1,24
 190 -75 190 -75 216 -75 c 0,25,26
 244 -75 244 -75 262 -94.5 c 128,-1,27
 280 -114 280 -114 280 -146 c 0,28,29
 280 -239 280 -239 187 -326 c 1,30,-1
 138 -295 l 1,31,32
 172 -256 172 -256 186 -207 c 0,33,34
 184 -202 184 -202 177.5 -191.5 c 128,-1,35
 171 -181 171 -181 168 -175 c 128,-1,36
 165 -169 165 -169 162 -159 c 128,-1,37
 159 -149 159 -149 159 -139 c 0,22,23
EndSplineSet
Validated: 1
EndChar

StartChar: tcaron
Encoding: 357 357 228
Width: 615
GlyphClass: 2
Flags: W
LayerCount: 2
Fore
SplineSet
13 410 m 1,0,-1
 13 500 l 1,1,-1
 90 500 l 1,2,-1
 90 660 l 1,3,-1
 202 660 l 1,4,-1
 202 500 l 1,5,-1
 338 500 l 1,6,-1
 338 410 l 1,7,-1
 202 410 l 1,8,-1
 202 177 l 2,9,10
 202 135 202 135 223 114 c 128,-1,11
 244 93 244 93 280 93 c 0,12,13
 325 93 325 93 351 104 c 1,14,-1
 371 16 l 1,15,16
 329 -5 329 -5 268 -5 c 0,17,18
 190 -5 190 -5 140 42.5 c 128,-1,19
 90 90 90 90 90 173 c 2,20,-1
 90 410 l 1,21,-1
 13 410 l 1,0,-1
452 676 m 0,22,23
 452 704 452 704 467.5 722 c 128,-1,24
 483 740 483 740 509 740 c 0,25,26
 537 740 537 740 555 720.5 c 128,-1,27
 573 701 573 701 573 669 c 0,28,29
 573 576 573 576 480 489 c 1,30,-1
 431 520 l 1,31,32
 465 559 465 559 479 608 c 0,33,34
 477 613 477 613 470.5 623.5 c 128,-1,35
 464 634 464 634 461 640 c 128,-1,36
 458 646 458 646 455 656 c 128,-1,37
 452 666 452 666 452 676 c 0,22,23
EndSplineSet
Validated: 1
EndChar

StartChar: Uring
Encoding: 366 366 229
Width: 702
GlyphClass: 2
Flags: W
LayerCount: 2
Fore
SplineSet
634 250 m 2,0,-1
 634 700 l 1,1,-1
 522 700 l 1,2,-1
 522 250 l 2,3,4
 522 174 522 174 473 129 c 128,-1,5
 424 84 424 84 351 84 c 0,6,7
 277 84 277 84 229 128.5 c 128,-1,8
 181 173 181 173 181 250 c 2,9,-1
 181 700 l 1,10,-1
 69 700 l 1,11,-1
 69 250 l 2,12,13
 69 134 69 134 149.5 62 c 128,-1,14
 230 -10 230 -10 351 -10 c 128,-1,15
 472 -10 472 -10 553 62 c 128,-1,16
 634 134 634 134 634 250 c 2,0,-1
341 949 m 128,-1,18
 381 949 381 949 409.5 920.5 c 128,-1,19
 438 892 438 892 438 852 c 128,-1,20
 438 812 438 812 409.5 783.5 c 128,-1,21
 381 755 381 755 341 755 c 0,22,23
 300 755 300 755 272 783.5 c 128,-1,24
 244 812 244 812 244 852 c 128,-1,25
 244 892 244 892 272.5 920.5 c 128,-1,17
 301 949 301 949 341 949 c 128,-1,18
341 813 m 128,-1,27
 357 813 357 813 368.5 824.5 c 128,-1,28
 380 836 380 836 380 852 c 128,-1,29
 380 868 380 868 369 879.5 c 128,-1,30
 358 891 358 891 341 891 c 0,31,32
 325 891 325 891 313.5 879.5 c 128,-1,33
 302 868 302 868 302 852 c 128,-1,34
 302 836 302 836 313.5 824.5 c 128,-1,26
 325 813 325 813 341 813 c 128,-1,27
EndSplineSet
Validated: 9
EndChar

StartChar: uring
Encoding: 367 367 230
Width: 605
GlyphClass: 2
Flags: W
LayerCount: 2
Fore
SplineSet
543 224 m 2,0,-1
 543 500 l 1,1,-1
 431 500 l 1,2,-1
 431 224 l 2,3,4
 431 159 431 159 394.5 121.5 c 128,-1,5
 358 84 358 84 302 84 c 128,-1,6
 246 84 246 84 210 121 c 128,-1,7
 174 158 174 158 174 224 c 2,8,-1
 174 500 l 1,9,-1
 62 500 l 1,10,-1
 62 224 l 2,11,12
 62 120 62 120 131 55 c 128,-1,13
 200 -10 200 -10 302 -10 c 0,14,15
 405 -10 405 -10 474 55 c 128,-1,16
 543 120 543 120 543 224 c 2,0,-1
296 759 m 128,-1,18
 336 759 336 759 364.5 730.5 c 128,-1,19
 393 702 393 702 393 662 c 128,-1,20
 393 622 393 622 364.5 593.5 c 128,-1,21
 336 565 336 565 296 565 c 128,-1,22
 256 565 256 565 227.5 593.5 c 128,-1,23
 199 622 199 622 199 662 c 128,-1,24
 199 702 199 702 227.5 730.5 c 128,-1,17
 256 759 256 759 296 759 c 128,-1,18
296 623 m 128,-1,26
 312 623 312 623 323.5 634.5 c 128,-1,27
 335 646 335 646 335 662 c 128,-1,28
 335 678 335 678 323.5 689.5 c 128,-1,29
 312 701 312 701 296 701 c 128,-1,30
 280 701 280 701 268.5 689.5 c 128,-1,31
 257 678 257 678 257 662 c 128,-1,32
 257 646 257 646 268.5 634.5 c 128,-1,25
 280 623 280 623 296 623 c 128,-1,26
EndSplineSet
Validated: 9
EndChar

StartChar: Ydieresis
Encoding: 376 376 233
Width: 634
GlyphClass: 2
Flags: W
LayerCount: 2
Fore
SplineSet
137 700 m 1,0,-1
 305 376 l 1,1,-1
 313 348 l 1,2,-1
 319 348 l 1,3,-1
 328 376 l 1,4,-1
 496 700 l 1,5,-1
 620 700 l 1,6,-1
 372 247 l 1,7,-1
 372 0 l 1,8,-1
 260 0 l 1,9,-1
 260 249 l 1,10,-1
 13 700 l 1,11,-1
 137 700 l 1,0,-1
128 854 m 0,12,13
 128 879 128 879 145.5 896.5 c 128,-1,14
 163 914 163 914 187 914 c 0,15,16
 212 914 212 914 229.5 896.5 c 128,-1,17
 247 879 247 879 247 854 c 0,18,19
 247 830 247 830 229.5 812.5 c 128,-1,20
 212 795 212 795 187 795 c 0,21,22
 163 795 163 795 145.5 812.5 c 128,-1,23
 128 830 128 830 128 854 c 0,12,13
378 854 m 0,24,25
 378 879 378 879 395.5 896.5 c 128,-1,26
 413 914 413 914 437 914 c 0,27,28
 462 914 462 914 479.5 896.5 c 128,-1,29
 497 879 497 879 497 854 c 0,30,31
 497 830 497 830 479.5 812.5 c 128,-1,32
 462 795 462 795 437 795 c 0,33,34
 413 795 413 795 395.5 812.5 c 128,-1,35
 378 830 378 830 378 854 c 0,24,25
EndSplineSet
Validated: 1
EndChar

StartChar: Zacute
Encoding: 377 377 234
Width: 583
GlyphClass: 2
Flags: W
LayerCount: 2
Fore
SplineSet
42 606 m 1,0,-1
 42 700 l 1,1,-1
 541 700 l 1,2,-1
 541 634 l 1,3,-1
 173 94 l 1,4,-1
 551 94 l 1,5,-1
 551 0 l 1,6,-1
 32 0 l 1,7,-1
 32 66 l 1,8,-1
 398 606 l 1,9,-1
 42 606 l 1,0,-1
239 755 m 1,10,-1
 327 899 l 1,11,-1
 444 899 l 1,12,-1
 333 755 l 1,13,-1
 239 755 l 1,10,-1
EndSplineSet
Validated: 1
EndChar

StartChar: zacute
Encoding: 378 378 235
Width: 508
GlyphClass: 2
Flags: W
LayerCount: 2
Fore
SplineSet
43 406 m 1,0,-1
 43 500 l 1,1,-1
 454 500 l 1,2,-1
 454 438 l 1,3,-1
 183 99 l 1,4,-1
 186 94 l 1,5,-1
 464 94 l 1,6,-1
 464 0 l 1,7,-1
 33 0 l 1,8,-1
 33 62 l 1,9,-1
 302 401 l 1,10,-1
 299 406 l 1,11,-1
 43 406 l 1,0,-1
190 565 m 1,12,-1
 278 709 l 1,13,-1
 395 709 l 1,14,-1
 284 565 l 1,15,-1
 190 565 l 1,12,-1
EndSplineSet
Validated: 1
EndChar

StartChar: Zcaron
Encoding: 381 381 238
Width: 583
GlyphClass: 2
Flags: W
LayerCount: 2
Fore
SplineSet
42 606 m 1,0,-1
 42 700 l 1,1,-1
 541 700 l 1,2,-1
 541 634 l 1,3,-1
 173 94 l 1,4,-1
 551 94 l 1,5,-1
 551 0 l 1,6,-1
 32 0 l 1,7,-1
 32 66 l 1,8,-1
 398 606 l 1,9,-1
 42 606 l 1,0,-1
298 809 m 1,10,-1
 364 875 l 1,11,-1
 467 875 l 1,12,-1
 469 869 l 1,13,-1
 339 755 l 1,14,-1
 258 755 l 1,15,-1
 128 869 l 1,16,-1
 130 875 l 1,17,-1
 233 875 l 1,18,-1
 298 809 l 1,10,-1
EndSplineSet
Validated: 1
EndChar

StartChar: zcaron
Encoding: 382 382 239
Width: 508
GlyphClass: 2
Flags: W
LayerCount: 2
Fore
SplineSet
43 406 m 1,0,-1
 43 500 l 1,1,-1
 454 500 l 1,2,-1
 454 438 l 1,3,-1
 183 99 l 1,4,-1
 186 94 l 1,5,-1
 464 94 l 1,6,-1
 464 0 l 1,7,-1
 33 0 l 1,8,-1
 33 62 l 1,9,-1
 302 401 l 1,10,-1
 299 406 l 1,11,-1
 43 406 l 1,0,-1
249 619 m 1,12,-1
 315 685 l 1,13,-1
 418 685 l 1,14,-1
 420 679 l 1,15,-1
 290 565 l 1,16,-1
 209 565 l 1,17,-1
 79 679 l 1,18,-1
 81 685 l 1,19,-1
 184 685 l 1,20,-1
 249 619 l 1,12,-1
EndSplineSet
Validated: 1
EndChar

StartChar: florin
Encoding: 402 402 240
Width: 328
GlyphClass: 2
Flags: W
LayerCount: 2
Fore
SplineSet
14 430 m 1,0,-1
 14 500 l 1,1,-1
 95 500 l 1,2,-1
 95 560 l 2,3,4
 95 642 95 642 141.5 691 c 128,-1,5
 188 740 188 740 265 740 c 0,6,7
 328 740 328 740 374 719 c 1,8,-1
 354 657 l 1,9,10
 320 670 320 670 265 670 c 0,11,12
 222 670 222 670 198.5 641 c 128,-1,13
 175 612 175 612 175 560 c 2,14,-1
 175 500 l 1,15,-1
 313 500 l 1,16,-1
 313 430 l 1,17,-1
 175 430 l 1,18,-1
 175 0 l 2,19,20
 175 -77 175 -77 131.5 -123.5 c 128,-1,21
 88 -170 88 -170 15 -170 c 0,22,23
 -19 -170 -19 -170 -44 -159 c 1,24,-1
 -34 -97 l 1,25,26
 -13 -100 -13 -100 15 -100 c 0,27,28
 54 -100 54 -100 74.5 -73.5 c 128,-1,29
 95 -47 95 -47 95 0 c 2,30,-1
 95 430 l 1,31,-1
 14 430 l 1,0,-1
EndSplineSet
Validated: 1
EndChar

StartChar: circumflex
Encoding: 710 710 241
Width: 399
GlyphClass: 2
Flags: W
LayerCount: 2
Fore
SplineSet
208 634 m 1,0,-1
 143 574 l 1,1,-1
 40 574 l 1,2,-1
 38 580 l 1,3,-1
 168 694 l 1,4,-1
 249 694 l 1,5,-1
 379 580 l 1,6,-1
 377 574 l 1,7,-1
 274 574 l 1,8,-1
 208 634 l 1,0,-1
EndSplineSet
Validated: 1
EndChar

StartChar: caron
Encoding: 711 711 242
Width: 399
GlyphClass: 2
Flags: W
LayerCount: 2
Fore
SplineSet
208 628 m 1,0,-1
 274 694 l 1,1,-1
 377 694 l 1,2,-1
 379 688 l 1,3,-1
 249 574 l 1,4,-1
 168 574 l 1,5,-1
 38 688 l 1,6,-1
 40 694 l 1,7,-1
 143 694 l 1,8,-1
 208 628 l 1,0,-1
EndSplineSet
Validated: 1
EndChar

StartChar: dotaccent
Encoding: 729 729 243
Width: 230
GlyphClass: 2
Flags: W
LayerCount: 2
Fore
SplineSet
50 677 m 128,-1,1
 50 705 50 705 68.5 723.5 c 128,-1,2
 87 742 87 742 115 742 c 0,3,4
 142 742 142 742 161 723 c 128,-1,5
 180 704 180 704 180 677 c 0,6,7
 180 649 180 649 161.5 630.5 c 128,-1,8
 143 612 143 612 115 612 c 128,-1,9
 87 612 87 612 68.5 630.5 c 128,-1,0
 50 649 50 649 50 677 c 128,-1,1
EndSplineSet
Validated: 1
EndChar

StartChar: ring
Encoding: 730 730 244
Width: 285
GlyphClass: 2
Flags: W
LayerCount: 2
Fore
SplineSet
143 808 m 128,-1,1
 183 808 183 808 211.5 779.5 c 128,-1,2
 240 751 240 751 240 711 c 128,-1,3
 240 671 240 671 211.5 642.5 c 128,-1,4
 183 614 183 614 143 614 c 0,5,6
 102 614 102 614 74 642 c 128,-1,7
 46 670 46 670 46 711 c 0,8,9
 46 751 46 751 74.5 779.5 c 128,-1,0
 103 808 103 808 143 808 c 128,-1,1
143 672 m 128,-1,11
 159 672 159 672 170.5 683.5 c 128,-1,12
 182 695 182 695 182 711 c 0,13,14
 182 728 182 728 171 739 c 128,-1,15
 160 750 160 750 143 750 c 0,16,17
 127 750 127 750 115.5 738.5 c 128,-1,18
 104 727 104 727 104 711 c 128,-1,19
 104 695 104 695 115.5 683.5 c 128,-1,10
 127 672 127 672 143 672 c 128,-1,11
EndSplineSet
Validated: 1
EndChar

StartChar: ogonek
Encoding: 731 731 245
Width: 310
GlyphClass: 2
Flags: W
LayerCount: 2
Fore
SplineSet
208 0 m 1,0,-1
 208 -5 l 1,1,2
 134 -45 134 -45 134 -103 c 1,3,-1
 246 -103 l 1,4,-1
 246 -166 l 1,5,-1
 54 -166 l 1,6,-1
 54 -143 l 2,7,8
 54 -40 54 -40 133 0 c 1,9,-1
 208 0 l 1,0,-1
EndSplineSet
Validated: 1
EndChar

StartChar: tilde
Encoding: 732 732 246
Width: 434
GlyphClass: 2
Flags: W
LayerCount: 2
Fore
SplineSet
289 636 m 0,0,1
 297 636 297 636 303.5 638.5 c 128,-1,2
 310 641 310 641 316.5 647 c 128,-1,3
 323 653 323 653 326 656 c 128,-1,4
 329 659 329 659 335.5 669 c 128,-1,5
 342 679 342 679 343 680 c 2,6,-1
 389 644 l 1,7,8
 359 575 359 575 299 564 c 0,9,10
 258 558 258 558 213 590 c 0,11,12
 210 592 210 592 204 596.5 c 128,-1,13
 198 601 198 601 195 603.5 c 128,-1,14
 192 606 192 606 187 609.5 c 128,-1,15
 182 613 182 613 178 615 c 128,-1,16
 174 617 174 617 169.5 619 c 128,-1,17
 165 621 165 621 160 622 c 128,-1,18
 155 623 155 623 150 623 c 0,19,20
 138 623 138 623 127 616 c 128,-1,21
 116 609 116 609 111 603 c 128,-1,22
 106 597 106 597 96 582 c 0,23,24
 94 579 94 579 93 578 c 2,25,-1
 46 612 l 1,26,27
 89 694 89 694 155 694 c 0,28,29
 187 694 187 694 238 657 c 0,30,31
 267 636 267 636 289 636 c 0,0,1
EndSplineSet
Validated: 33
EndChar

StartChar: hungarumlaut
Encoding: 733 733 247
Width: 491
GlyphClass: 2
Flags: W
LayerCount: 2
Fore
SplineSet
83 576 m 1,0,-1
 191 720 l 1,1,-1
 293 720 l 1,2,-1
 296 714 l 1,3,-1
 160 576 l 1,4,-1
 83 576 l 1,0,-1
230 582 m 1,5,-1
 363 720 l 1,6,-1
 472 720 l 1,7,-1
 474 714 l 1,8,-1
 310 576 l 1,9,-1
 233 576 l 1,10,-1
 230 582 l 1,5,-1
EndSplineSet
Validated: 1
EndChar

StartChar: endash
Encoding: 8211 8211 248
Width: 501
GlyphClass: 2
Flags: W
LayerCount: 2
Fore
SplineSet
456 271 m 1,0,-1
 46 271 l 1,1,-1
 46 357 l 1,2,-1
 456 357 l 1,3,-1
 456 271 l 1,0,-1
EndSplineSet
Validated: 1
EndChar

StartChar: emdash
Encoding: 8212 8212 249
Width: 591
GlyphClass: 2
Flags: W
LayerCount: 2
Fore
SplineSet
546 271 m 1,0,-1
 46 271 l 1,1,-1
 46 357 l 1,2,-1
 546 357 l 1,3,-1
 546 271 l 1,0,-1
EndSplineSet
Validated: 1
EndChar

StartChar: quoteleft
Encoding: 8216 8216 250
Width: 226
GlyphClass: 2
Flags: W
LayerCount: 2
Fore
SplineSet
162 553 m 0,0,1
 162 525 162 525 146.5 507 c 128,-1,2
 131 489 131 489 105 489 c 0,3,4
 77 489 77 489 59 508.5 c 128,-1,5
 41 528 41 528 41 560 c 0,6,7
 41 653 41 653 134 740 c 1,8,-1
 183 709 l 1,9,10
 149 670 149 670 135 621 c 0,11,12
 137 616 137 616 143.5 605.5 c 128,-1,13
 150 595 150 595 153 589 c 128,-1,14
 156 583 156 583 159 573 c 128,-1,15
 162 563 162 563 162 553 c 0,0,1
EndSplineSet
Validated: 1
EndChar

StartChar: quoteright
Encoding: 8217 8217 251
Width: 226
GlyphClass: 2
Flags: W
LayerCount: 2
Fore
SplineSet
63 676 m 0,0,1
 63 704 63 704 78.5 722 c 128,-1,2
 94 740 94 740 120 740 c 0,3,4
 148 740 148 740 166 720.5 c 128,-1,5
 184 701 184 701 184 669 c 0,6,7
 184 576 184 576 91 489 c 1,8,-1
 42 520 l 1,9,10
 76 559 76 559 90 608 c 0,11,12
 88 613 88 613 81.5 623.5 c 128,-1,13
 75 634 75 634 72 640 c 128,-1,14
 69 646 69 646 66 656 c 128,-1,15
 63 666 63 666 63 676 c 0,0,1
EndSplineSet
Validated: 1
EndChar

StartChar: quotesinglbase
Encoding: 8218 8218 252
Width: 211
GlyphClass: 2
Flags: W
LayerCount: 2
Fore
SplineSet
48 64 m 0,0,1
 48 92 48 92 63.5 110 c 128,-1,2
 79 128 79 128 105 128 c 0,3,4
 133 128 133 128 151 108.5 c 128,-1,5
 169 89 169 89 169 57 c 0,6,7
 169 -36 169 -36 76 -123 c 1,8,-1
 27 -92 l 1,9,10
 61 -53 61 -53 75 -4 c 0,11,12
 73 1 73 1 66.5 11.5 c 128,-1,13
 60 22 60 22 57 28 c 128,-1,14
 54 34 54 34 51 44 c 128,-1,15
 48 54 48 54 48 64 c 0,0,1
EndSplineSet
Validated: 1
EndChar

StartChar: quotedblleft
Encoding: 8220 8220 253
Width: 385
GlyphClass: 2
Flags: W
LayerCount: 2
Fore
SplineSet
162 555 m 0,0,1
 162 527 162 527 146.5 509 c 128,-1,2
 131 491 131 491 105 491 c 0,3,4
 77 491 77 491 59 510.5 c 128,-1,5
 41 530 41 530 41 562 c 0,6,7
 41 655 41 655 134 742 c 1,8,-1
 183 711 l 1,9,10
 149 672 149 672 135 623 c 0,11,12
 137 618 137 618 143.5 607.5 c 128,-1,13
 150 597 150 597 153 591 c 128,-1,14
 156 585 156 585 159 575 c 128,-1,15
 162 565 162 565 162 555 c 0,0,1
321 555 m 0,16,17
 321 527 321 527 305.5 509 c 128,-1,18
 290 491 290 491 264 491 c 0,19,20
 236 491 236 491 218 510.5 c 128,-1,21
 200 530 200 530 200 562 c 0,22,23
 200 655 200 655 293 742 c 1,24,-1
 342 711 l 1,25,26
 308 672 308 672 294 623 c 0,27,28
 296 618 296 618 302.5 607.5 c 128,-1,29
 309 597 309 597 312 591 c 128,-1,30
 315 585 315 585 318 575 c 128,-1,31
 321 565 321 565 321 555 c 0,16,17
EndSplineSet
Validated: 1
EndChar

StartChar: quotedblright
Encoding: 8221 8221 254
Width: 385
GlyphClass: 2
Flags: W
LayerCount: 2
Fore
SplineSet
63 672 m 0,0,1
 63 700 63 700 78.5 718 c 128,-1,2
 94 736 94 736 120 736 c 0,3,4
 148 736 148 736 166 716.5 c 128,-1,5
 184 697 184 697 184 665 c 0,6,7
 184 572 184 572 91 485 c 1,8,-1
 42 516 l 1,9,10
 76 555 76 555 90 604 c 0,11,12
 88 609 88 609 81.5 619.5 c 128,-1,13
 75 630 75 630 72 636 c 128,-1,14
 69 642 69 642 66 652 c 128,-1,15
 63 662 63 662 63 672 c 0,0,1
222 672 m 0,16,17
 222 700 222 700 237.5 718 c 128,-1,18
 253 736 253 736 279 736 c 0,19,20
 307 736 307 736 325 716.5 c 128,-1,21
 343 697 343 697 343 665 c 0,22,23
 343 572 343 572 250 485 c 1,24,-1
 201 516 l 1,25,26
 235 555 235 555 249 604 c 0,27,28
 247 609 247 609 240.5 619.5 c 128,-1,29
 234 630 234 630 231 636 c 128,-1,30
 228 642 228 642 225 652 c 128,-1,31
 222 662 222 662 222 672 c 0,16,17
EndSplineSet
Validated: 1
EndChar

StartChar: quotedblbase
Encoding: 8222 8222 255
Width: 358
GlyphClass: 2
Flags: W
LayerCount: 2
Fore
SplineSet
44 57 m 0,0,1
 44 85 44 85 59.5 103 c 128,-1,2
 75 121 75 121 101 121 c 0,3,4
 129 121 129 121 147 101.5 c 128,-1,5
 165 82 165 82 165 50 c 0,6,7
 165 -43 165 -43 72 -130 c 1,8,-1
 23 -99 l 1,9,10
 57 -60 57 -60 71 -11 c 0,11,12
 69 -6 69 -6 62.5 4.5 c 128,-1,13
 56 15 56 15 53 21 c 128,-1,14
 50 27 50 27 47 37 c 128,-1,15
 44 47 44 47 44 57 c 0,0,1
200 57 m 0,16,17
 200 85 200 85 215.5 103 c 128,-1,18
 231 121 231 121 257 121 c 0,19,20
 285 121 285 121 303 101.5 c 128,-1,21
 321 82 321 82 321 50 c 0,22,23
 321 -43 321 -43 228 -130 c 1,24,-1
 179 -99 l 1,25,26
 213 -60 213 -60 227 -11 c 0,27,28
 225 -6 225 -6 218.5 4.5 c 128,-1,29
 212 15 212 15 209 21 c 128,-1,30
 206 27 206 27 203 37 c 128,-1,31
 200 47 200 47 200 57 c 0,16,17
EndSplineSet
Validated: 1
EndChar

StartChar: dagger
Encoding: 8224 8224 256
Width: 352
GlyphClass: 2
Flags: W
LayerCount: 2
Fore
SplineSet
334 414 m 1,0,-1
 228 414 l 1,1,-1
 228 -170 l 1,2,-1
 124 -170 l 1,3,-1
 124 414 l 1,4,-1
 18 414 l 1,5,-1
 18 500 l 1,6,-1
 124 500 l 1,7,-1
 124 730 l 1,8,-1
 228 730 l 1,9,-1
 228 500 l 1,10,-1
 334 500 l 1,11,-1
 334 414 l 1,0,-1
EndSplineSet
Validated: 1
EndChar

StartChar: daggerdbl
Encoding: 8225 8225 257
Width: 352
GlyphClass: 2
Flags: W
LayerCount: 2
Fore
SplineSet
334 0 m 1,0,-1
 228 0 l 1,1,-1
 228 -170 l 1,2,-1
 124 -170 l 1,3,-1
 124 0 l 1,4,-1
 18 0 l 1,5,-1
 18 86 l 1,6,-1
 124 86 l 1,7,-1
 124 414 l 1,8,-1
 18 414 l 1,9,-1
 18 500 l 1,10,-1
 124 500 l 1,11,-1
 124 730 l 1,12,-1
 228 730 l 1,13,-1
 228 500 l 1,14,-1
 334 500 l 1,15,-1
 334 414 l 1,16,-1
 228 414 l 1,17,-1
 228 86 l 1,18,-1
 334 86 l 1,19,-1
 334 0 l 1,0,-1
EndSplineSet
Validated: 1
EndChar

StartChar: bullet
Encoding: 8226 8226 258
Width: 313
GlyphClass: 2
Flags: W
LayerCount: 2
Fore
SplineSet
36 298 m 128,-1,1
 36 345 36 345 69.5 377.5 c 128,-1,2
 103 410 103 410 152 410 c 128,-1,3
 201 410 201 410 234.5 377.5 c 128,-1,4
 268 345 268 345 268 298 c 128,-1,5
 268 251 268 251 234.5 218.5 c 128,-1,6
 201 186 201 186 152 186 c 128,-1,7
 103 186 103 186 69.5 218.5 c 128,-1,0
 36 251 36 251 36 298 c 128,-1,1
EndSplineSet
Validated: 1
EndChar

StartChar: ellipsis
Encoding: 8230 8230 259
Width: 742
GlyphClass: 2
Flags: W
LayerCount: 2
Fore
SplineSet
16 58 m 0,0,1
 16 86 16 86 36 106 c 128,-1,2
 56 126 56 126 83 126 c 0,3,4
 111 126 111 126 131 106 c 128,-1,5
 151 86 151 86 151 58 c 0,6,7
 151 31 151 31 131 11 c 128,-1,8
 111 -9 111 -9 83 -9 c 0,9,10
 56 -9 56 -9 36 11 c 128,-1,11
 16 31 16 31 16 58 c 0,0,1
286 58 m 0,12,13
 286 86 286 86 306 106 c 128,-1,14
 326 126 326 126 353 126 c 0,15,16
 381 126 381 126 401 106 c 128,-1,17
 421 86 421 86 421 58 c 0,18,19
 421 31 421 31 401 11 c 128,-1,20
 381 -9 381 -9 353 -9 c 0,21,22
 326 -9 326 -9 306 11 c 128,-1,23
 286 31 286 31 286 58 c 0,12,13
556 58 m 0,24,25
 556 86 556 86 576 106 c 128,-1,26
 596 126 596 126 623 126 c 0,27,28
 651 126 651 126 671 106 c 128,-1,29
 691 86 691 86 691 58 c 0,30,31
 691 31 691 31 671 11 c 128,-1,32
 651 -9 651 -9 623 -9 c 0,33,34
 596 -9 596 -9 576 11 c 128,-1,35
 556 31 556 31 556 58 c 0,24,25
EndSplineSet
Validated: 1
EndChar

StartChar: perthousand
Encoding: 8240 8240 260
Width: 1006
GlyphClass: 2
Flags: W
LayerCount: 2
Fore
SplineSet
660 139 m 128,-1,1
 660 202 660 202 703 244.5 c 128,-1,2
 746 287 746 287 813 287 c 0,3,4
 879 287 879 287 922.5 244 c 128,-1,5
 966 201 966 201 966 139 c 128,-1,6
 966 77 966 77 922.5 33.5 c 128,-1,7
 879 -10 879 -10 813 -10 c 0,8,9
 746 -10 746 -10 703 33 c 128,-1,0
 660 76 660 76 660 139 c 128,-1,1
739 139 m 0,10,11
 739 105 739 105 759 82.5 c 128,-1,12
 779 60 779 60 813 60 c 0,13,14
 846 60 846 60 866.5 82.5 c 128,-1,15
 887 105 887 105 887 139 c 0,16,17
 887 172 887 172 866.5 194.5 c 128,-1,18
 846 217 846 217 813 217 c 0,19,20
 779 217 779 217 759 194.5 c 128,-1,21
 739 172 739 172 739 139 c 0,10,11
89 164 m 1,22,-1
 549 614 l 1,23,-1
 607 556 l 1,24,-1
 147 106 l 1,25,-1
 89 164 l 1,22,-1
55 563 m 0,26,27
 55 625 55 625 98 668 c 128,-1,28
 141 711 141 711 208 711 c 0,29,30
 274 711 274 711 317.5 668 c 128,-1,31
 361 625 361 625 361 563 c 128,-1,32
 361 501 361 501 317.5 457.5 c 128,-1,33
 274 414 274 414 208 414 c 0,34,35
 141 414 141 414 98 457 c 128,-1,36
 55 500 55 500 55 563 c 0,26,27
134 563 m 0,37,38
 134 529 134 529 154 506.5 c 128,-1,39
 174 484 174 484 208 484 c 0,40,41
 241 484 241 484 261.5 506.5 c 128,-1,42
 282 529 282 529 282 563 c 0,43,44
 282 596 282 596 261.5 618.5 c 128,-1,45
 241 641 241 641 208 641 c 0,46,47
 174 641 174 641 154 618.5 c 128,-1,48
 134 596 134 596 134 563 c 0,37,38
316 139 m 128,-1,50
 316 202 316 202 359 244.5 c 128,-1,51
 402 287 402 287 469 287 c 0,52,53
 535 287 535 287 578.5 244 c 128,-1,54
 622 201 622 201 622 139 c 128,-1,55
 622 77 622 77 578.5 33.5 c 128,-1,56
 535 -10 535 -10 469 -10 c 0,57,58
 402 -10 402 -10 359 33 c 128,-1,49
 316 76 316 76 316 139 c 128,-1,50
395 139 m 0,59,60
 395 105 395 105 415 82.5 c 128,-1,61
 435 60 435 60 469 60 c 0,62,63
 502 60 502 60 522.5 82.5 c 128,-1,64
 543 105 543 105 543 139 c 0,65,66
 543 172 543 172 522.5 194.5 c 128,-1,67
 502 217 502 217 469 217 c 0,68,69
 435 217 435 217 415 194.5 c 128,-1,70
 395 172 395 172 395 139 c 0,59,60
EndSplineSet
Validated: 1
EndChar

StartChar: guilsinglleft
Encoding: 8249 8249 261
Width: 306
GlyphClass: 2
Flags: W
LayerCount: 2
Fore
SplineSet
137 236 m 1,0,-1
 270 80 l 1,1,-1
 204 21 l 1,2,-1
 44 200 l 1,3,-1
 44 270 l 1,4,-1
 204 459 l 1,5,-1
 272 401 l 1,6,-1
 137 236 l 1,0,-1
EndSplineSet
Validated: 1
EndChar

StartChar: guilsinglright
Encoding: 8250 8250 262
Width: 306
GlyphClass: 2
Flags: W
LayerCount: 2
Fore
SplineSet
179 244 m 1,0,-1
 69 281 l 1,1,-1
 70 287 l 1,2,-1
 112 284 l 1,3,-1
 272 243 l 1,4,-1
 272 239 l 1,5,-1
 112 196 l 1,6,-1
 66 193 l 1,7,-1
 65 199 l 1,8,-1
 179 238 l 1,9,-1
 179 244 l 1,0,-1
EndSplineSet
Validated: 1
EndChar

StartChar: fraction
Encoding: 8260 8260 263
Width: 677
GlyphClass: 2
Flags: W
LayerCount: 2
Fore
SplineSet
89 164 m 1,0,-1
 549 614 l 1,1,-1
 607 556 l 1,2,-1
 147 106 l 1,3,-1
 89 164 l 1,0,-1
EndSplineSet
Validated: 1
EndChar

StartChar: foursuperior
Encoding: 8308 8308 264
Width: 403
GlyphClass: 2
Flags: W
LayerCount: 2
Fore
SplineSet
233 364 m 1,0,-1
 233 428 l 1,1,-1
 50 428 l 1,2,-1
 50 474 l 1,3,-1
 156 700 l 1,4,-1
 239 700 l 1,5,-1
 144 496 l 1,6,-1
 233 496 l 1,7,-1
 233 596 l 1,8,-1
 313 596 l 1,9,-1
 313 496 l 1,10,-1
 361 496 l 1,11,-1
 361 428 l 1,12,-1
 313 428 l 1,13,-1
 313 364 l 1,14,-1
 233 364 l 1,0,-1
EndSplineSet
Validated: 1
EndChar

StartChar: Euro
Encoding: 8364 8364 265
Width: 659
GlyphClass: 2
Flags: W
LayerCount: 2
Fore
SplineSet
226 350 m 0,0,1
 226 324 226 324 228 312 c 1,2,-1
 507 312 l 1,3,-1
 507 238 l 1,4,-1
 246 238 l 1,5,6
 274 168 274 168 333 126 c 128,-1,7
 392 84 392 84 466 84 c 0,8,9
 556 84 556 84 611 107 c 1,10,-1
 635 18 l 1,11,12
 565 -10 565 -10 466 -10 c 0,13,14
 346 -10 346 -10 254.5 58.5 c 128,-1,15
 163 127 163 127 130 238 c 1,16,-1
 27 238 l 1,17,-1
 27 312 l 1,18,-1
 116 312 l 1,19,20
 114 336 114 336 114 350 c 128,-1,21
 114 364 114 364 116 394 c 1,22,-1
 27 394 l 1,23,-1
 27 468 l 1,24,-1
 132 468 l 1,25,26
 167 577 167 577 257.5 643.5 c 128,-1,27
 348 710 348 710 466 710 c 0,28,29
 566 710 566 710 635 681 c 1,30,-1
 611 593 l 1,31,32
 550 616 550 616 466 616 c 0,33,34
 395 616 395 616 337.5 575.5 c 128,-1,35
 280 535 280 535 250 468 c 1,36,-1
 507 468 l 1,37,-1
 507 394 l 1,38,-1
 229 394 l 1,39,40
 226 372 226 372 226 350 c 0,0,1
EndSplineSet
Validated: 1
EndChar

StartChar: trademark
Encoding: 8482 8482 266
Width: 587
GlyphClass: 2
Flags: W
LayerCount: 2
Fore
SplineSet
513 422 m 1,0,-1
 513 603 l 1,1,-1
 507 604 l 1,2,-1
 425 422 l 1,3,-1
 392 422 l 1,4,-1
 309 607 l 1,5,-1
 303 606 l 1,6,-1
 303 422 l 1,7,-1
 254 422 l 1,8,-1
 254 700 l 1,9,-1
 318 700 l 1,10,-1
 405 496 l 1,11,-1
 411 496 l 1,12,-1
 499 700 l 1,13,-1
 563 700 l 1,14,-1
 563 422 l 1,15,-1
 513 422 l 1,0,-1
221 658 m 1,16,-1
 146 658 l 1,17,-1
 146 422 l 1,18,-1
 97 422 l 1,19,-1
 97 658 l 1,20,-1
 20 658 l 1,21,-1
 20 700 l 1,22,-1
 221 700 l 1,23,-1
 221 658 l 1,16,-1
EndSplineSet
Validated: 1
EndChar

StartChar: minus
Encoding: 8722 8722 267
Width: 491
GlyphClass: 2
Flags: W
LayerCount: 2
Fore
SplineSet
440 271 m 1,0,-1
 50 271 l 1,1,-1
 50 365 l 1,2,-1
 440 365 l 1,3,-1
 440 271 l 1,0,-1
EndSplineSet
Validated: 1
EndChar

StartChar: fi
Encoding: 64257 64257 268
Width: 589
GlyphClass: 3
Flags: W
LayerCount: 2
Fore
SplineSet
9 410 m 1,0,-1
 9 500 l 1,1,-1
 78 500 l 1,2,-1
 78 520 l 2,3,4
 78 620 78 620 138.5 680 c 128,-1,5
 199 740 199 740 300 740 c 0,6,7
 380 740 380 740 439 719 c 1,8,-1
 417 630 l 1,9,10
 358 646 358 646 300 646 c 0,11,12
 248 646 248 646 219 613 c 128,-1,13
 190 580 190 580 190 520 c 2,14,-1
 190 500 l 1,15,-1
 328 500 l 1,16,-1
 328 410 l 1,17,-1
 190 410 l 1,18,-1
 190 0 l 1,19,-1
 78 0 l 1,20,-1
 78 410 l 1,21,-1
 9 410 l 1,0,-1
393 0 m 1,22,-1
 393 500 l 1,23,-1
 505 500 l 1,24,-1
 505 0 l 1,25,-1
 393 0 l 1,22,-1
EndSplineSet
Validated: 1
Ligature2: "'liga' Standard Ligatures in Latin lookup 2 subtable" f i
EndChar

StartChar: fl
Encoding: 64258 64258 269
Width: 632
GlyphClass: 2
Flags: W
LayerCount: 2
Fore
SplineSet
599 89 m 1,0,-1
 589 -9 l 1,1,2
 502 -9 502 -9 456.5 31.5 c 128,-1,3
 411 72 411 72 411 151 c 2,4,-1
 411 634 l 1,5,6
 358 646 358 646 306 646 c 0,7,8
 251 646 251 646 220.5 613 c 128,-1,9
 190 580 190 580 190 520 c 2,10,-1
 190 500 l 1,11,-1
 322 500 l 1,12,-1
 322 410 l 1,13,-1
 190 410 l 1,14,-1
 190 0 l 1,15,-1
 78 0 l 1,16,-1
 78 410 l 1,17,-1
 9 410 l 1,18,-1
 9 500 l 1,19,-1
 78 500 l 1,20,-1
 78 520 l 2,21,22
 78 620 78 620 140.5 680 c 128,-1,23
 203 740 203 740 306 740 c 0,24,25
 364 740 364 740 411 730 c 1,26,-1
 523 730 l 1,27,-1
 523 159 l 2,28,29
 523 94 523 94 599 89 c 1,0,-1
EndSplineSet
Validated: 1
EndChar

StartChar: a.alt
Encoding: 65539 -1 270
Width: 573
GlyphClass: 2
Flags: W
LayerCount: 2
Fore
SplineSet
388 0 m 1,0,-1
 388 32 l 1,1,-1
 383 35 l 1,2,3
 326 -10 326 -10 227 -10 c 0,4,5
 150 -10 150 -10 98 33.5 c 128,-1,6
 46 77 46 77 46 150 c 128,-1,7
 46 223 46 223 100.5 265 c 128,-1,8
 155 307 155 307 237 307 c 128,-1,9
 319 307 319 307 388 280 c 1,10,-1
 388 306 l 2,11,12
 388 359 388 359 352.5 387.5 c 128,-1,13
 317 416 317 416 264 416 c 0,14,15
 189 416 189 416 115 394 c 1,16,-1
 99 480 l 1,17,18
 189 510 189 510 282 510 c 128,-1,19
 375 510 375 510 437.5 456 c 128,-1,20
 500 402 500 402 500 310 c 2,21,-1
 500 0 l 1,22,-1
 388 0 l 1,0,-1
255 76 m 0,23,24
 348 76 348 76 388 119 c 1,25,-1
 388 211 l 1,26,27
 336 229 336 229 265 229 c 0,28,29
 219 229 219 229 188.5 208.5 c 128,-1,30
 158 188 158 188 158 152 c 128,-1,31
 158 116 158 116 185.5 96 c 128,-1,32
 213 76 213 76 255 76 c 0,23,24
EndSplineSet
Validated: 1
EndChar

StartChar: one.onum
Encoding: 65540 -1 271
Width: 351
GlyphClass: 2
Flags: W
LayerCount: 2
Fore
SplineSet
154 0 m 1,0,-1
 154 486 l 1,1,-1
 32 486 l 1,2,-1
 32 580 l 1,3,-1
 266 580 l 1,4,-1
 266 0 l 1,5,-1
 154 0 l 1,0,-1
EndSplineSet
Validated: 1
EndChar

StartChar: two.onum
Encoding: 65541 -1 272
Width: 543
GlyphClass: 2
Flags: W
LayerCount: 2
Fore
SplineSet
509 0 m 1,0,-1
 68 0 l 1,1,-1
 68 66 l 1,2,-1
 262 248 l 2,3,4
 331 314 331 314 352.5 343 c 128,-1,5
 374 372 374 372 374 405 c 0,6,7
 374 446 374 446 346.5 467 c 128,-1,8
 319 488 319 488 274 488 c 0,9,10
 190 488 190 488 102 431 c 1,11,-1
 62 515 l 1,12,13
 174 590 174 590 290 590 c 0,14,15
 374 590 374 590 431 544 c 128,-1,16
 488 498 488 498 488 419 c 0,17,18
 488 367 488 367 455 322.5 c 128,-1,19
 422 278 422 278 333 191 c 2,20,-1
 238 100 l 1,21,-1
 240 94 l 1,22,-1
 509 94 l 1,23,-1
 509 0 l 1,0,-1
EndSplineSet
Validated: 1
EndChar

StartChar: three.onum
Encoding: 65542 -1 273
Width: 501
GlyphClass: 2
Flags: W
LayerCount: 2
Fore
SplineSet
122 210 m 1,0,-1
 122 300 l 1,1,-1
 186 300 l 2,2,3
 249 300 249 300 290.5 327 c 128,-1,4
 332 354 332 354 332 401 c 128,-1,5
 332 448 332 448 297 474 c 128,-1,6
 262 500 262 500 208 500 c 0,7,8
 112 500 112 500 57 477 c 1,9,-1
 43 561 l 1,10,11
 109 590 109 590 208 590 c 0,12,13
 309 590 309 590 374.5 540 c 128,-1,14
 440 490 440 490 440 405 c 0,15,16
 440 358 440 358 412.5 320 c 128,-1,17
 385 282 385 282 339 261 c 1,18,-1
 339 255 l 1,19,20
 394 233 394 233 427 187 c 128,-1,21
 460 141 460 141 460 80 c 0,22,23
 460 -10 460 -10 391.5 -65 c 128,-1,24
 323 -120 323 -120 218 -120 c 0,25,26
 110 -120 110 -120 41 -91 c 1,27,-1
 57 -7 l 1,28,29
 116 -30 116 -30 218 -30 c 0,30,31
 277 -30 277 -30 314.5 -0.5 c 128,-1,32
 352 29 352 29 352 84 c 0,33,34
 352 146 352 146 311.5 178 c 128,-1,35
 271 210 271 210 206 210 c 2,36,-1
 122 210 l 1,0,-1
EndSplineSet
Validated: 1
EndChar

StartChar: four.onum
Encoding: 65543 -1 274
Width: 606
GlyphClass: 2
Flags: W
LayerCount: 2
Fore
SplineSet
381 -160 m 1,0,-1
 381 0 l 1,1,-1
 35 0 l 1,2,-1
 35 64 l 1,3,-1
 266 580 l 1,4,-1
 377 580 l 1,5,-1
 162 94 l 1,6,-1
 381 94 l 1,7,-1
 381 262 l 1,8,-1
 493 262 l 1,9,-1
 493 94 l 1,10,-1
 584 94 l 1,11,-1
 584 0 l 1,12,-1
 493 0 l 1,13,-1
 493 -160 l 1,14,-1
 381 -160 l 1,0,-1
EndSplineSet
Validated: 1
EndChar

StartChar: five.onum
Encoding: 65544 -1 275
Width: 499
GlyphClass: 2
Flags: W
LayerCount: 2
Fore
SplineSet
49 236 m 1,0,-1
 49 580 l 1,1,-1
 425 580 l 1,2,-1
 425 486 l 1,3,-1
 161 486 l 1,4,-1
 161 330 l 1,5,-1
 214 330 l 2,6,7
 324 330 324 330 393 270.5 c 128,-1,8
 462 211 462 211 462 110 c 0,9,10
 462 7 462 7 387 -56.5 c 128,-1,11
 312 -120 312 -120 196 -120 c 0,12,13
 103 -120 103 -120 41 -101 c 1,14,-1
 58 -10 l 1,15,16
 122 -26 122 -26 196 -26 c 0,17,18
 265 -26 265 -26 307.5 8 c 128,-1,19
 350 42 350 42 350 110 c 0,20,21
 350 173 350 173 313.5 204.5 c 128,-1,22
 277 236 277 236 214 236 c 2,23,-1
 49 236 l 1,0,-1
EndSplineSet
Validated: 1
EndChar

StartChar: six.onum
Encoding: 65545 -1 276
Width: 594
GlyphClass: 2
Flags: W
LayerCount: 2
Fore
SplineSet
422 710 m 1,0,-1
 442 618 l 1,1,2
 273 596 273 596 202 473 c 0,3,4
 173 421 173 421 164 352 c 1,5,-1
 170 350 l 1,6,7
 197 382 197 382 243 401.5 c 128,-1,8
 289 421 289 421 341 421 c 0,9,10
 430 421 430 421 492 362.5 c 128,-1,11
 554 304 554 304 554 211 c 0,12,13
 554 112 554 112 480.5 51 c 128,-1,14
 407 -10 407 -10 304 -10 c 0,15,16
 189 -9 189 -9 119.5 71 c 128,-1,17
 50 151 50 151 50 266 c 0,18,19
 50 388 50 388 98 491.5 c 128,-1,20
 146 595 146 595 247 653 c 0,21,22
 317 694 317 694 422 710 c 1,0,-1
184 156 m 0,23,24
 225 84 225 84 307 84 c 0,25,26
 366 84 366 84 406 116.5 c 128,-1,27
 446 149 446 149 446 205 c 0,28,29
 446 264 446 264 409 295.5 c 128,-1,30
 372 327 372 327 312 327 c 0,31,32
 263 326 263 326 222 302.5 c 128,-1,33
 181 279 181 279 159 239 c 1,34,35
 164 186 164 186 184 156 c 0,23,24
EndSplineSet
Validated: 1
EndChar

StartChar: seven.onum
Encoding: 65546 -1 277
Width: 460
GlyphClass: 2
Flags: W
LayerCount: 2
Fore
SplineSet
445 514 m 1,0,-1
 226 -120 l 1,1,-1
 114 -120 l 1,2,-1
 333 486 l 1,3,-1
 13 486 l 1,4,-1
 13 580 l 1,5,-1
 445 580 l 1,6,-1
 445 514 l 1,0,-1
EndSplineSet
Validated: 1
EndChar

StartChar: eight.onum
Encoding: 65547 -1 278
Width: 611
GlyphClass: 2
Flags: W
LayerCount: 2
Fore
SplineSet
89 520 m 0,0,1
 89 598 89 598 153 654 c 128,-1,2
 217 710 217 710 307 710 c 128,-1,3
 397 710 397 710 461.5 654 c 128,-1,4
 526 598 526 598 526 520 c 0,5,6
 526 473 526 473 497.5 432.5 c 128,-1,7
 469 392 469 392 425 370 c 1,8,-1
 425 364 l 1,9,10
 482 341 482 341 519 294.5 c 128,-1,11
 556 248 556 248 556 195 c 0,12,13
 556 108 556 108 483.5 49 c 128,-1,14
 411 -10 411 -10 307 -10 c 0,15,16
 204 -10 204 -10 131.5 49 c 128,-1,17
 59 108 59 108 59 195 c 0,18,19
 59 248 59 248 95.5 294.5 c 128,-1,20
 132 341 132 341 189 364 c 1,21,-1
 189 370 l 1,22,23
 145 392 145 392 117 432.5 c 128,-1,24
 89 473 89 473 89 520 c 0,0,1
167 202 m 0,25,26
 167 150 167 150 207.5 117 c 128,-1,27
 248 84 248 84 307 84 c 0,28,29
 367 84 367 84 407.5 117 c 128,-1,30
 448 150 448 150 448 202 c 0,31,32
 448 251 448 251 407 284.5 c 128,-1,33
 366 318 366 318 307 318 c 0,34,35
 249 318 249 318 208 284.5 c 128,-1,36
 167 251 167 251 167 202 c 0,25,26
197 514 m 0,37,38
 197 471 197 471 229.5 441.5 c 128,-1,39
 262 412 262 412 307 412 c 0,40,41
 354 412 354 412 386 441.5 c 128,-1,42
 418 471 418 471 418 514 c 0,43,44
 418 558 418 558 386 587 c 128,-1,45
 354 616 354 616 307 616 c 0,46,47
 261 616 261 616 229 587 c 128,-1,48
 197 558 197 558 197 514 c 0,37,38
EndSplineSet
Validated: 1
EndChar

StartChar: nine.onum
Encoding: 65548 -1 279
Width: 594
GlyphClass: 2
Flags: W
LayerCount: 2
Fore
SplineSet
182 -130 m 1,0,-1
 162 -38 l 1,1,2
 333 -16 333 -16 402 99 c 0,3,4
 431 150 431 150 440 218 c 1,5,-1
 434 220 l 1,6,7
 407 189 407 189 361 169 c 128,-1,8
 315 149 315 149 264 149 c 0,9,10
 175 149 175 149 112.5 209 c 128,-1,11
 50 269 50 269 50 365 c 0,12,13
 50 466 50 466 123.5 528 c 128,-1,14
 197 590 197 590 300 590 c 0,15,16
 415 589 415 589 484.5 506.5 c 128,-1,17
 554 424 554 424 554 306 c 0,18,19
 554 187 554 187 506 86 c 128,-1,20
 458 -15 458 -15 357 -72 c 0,21,22
 285 -114 285 -114 182 -130 c 1,0,-1
420 424 m 0,23,24
 381 496 381 496 297 496 c 0,25,26
 239 496 239 496 198.5 462.5 c 128,-1,27
 158 429 158 429 158 371 c 0,28,29
 158 307 158 307 195 273 c 128,-1,30
 232 239 232 239 292 239 c 0,31,32
 341 240 341 240 382 263 c 128,-1,33
 423 286 423 286 445 326 c 1,34,35
 442 388 442 388 420 424 c 0,23,24
EndSplineSet
Validated: 1
EndChar

StartChar: zero.onum
Encoding: 65549 -1 280
Width: 615
GlyphClass: 2
Flags: W
LayerCount: 2
Fore
SplineSet
41 290 m 128,-1,1
 41 419 41 419 109 504.5 c 128,-1,2
 177 590 177 590 307 590 c 128,-1,3
 437 590 437 590 505.5 504.5 c 128,-1,4
 574 419 574 419 574 290 c 128,-1,5
 574 161 574 161 505.5 75.5 c 128,-1,6
 437 -10 437 -10 307 -10 c 128,-1,7
 177 -10 177 -10 109 75.5 c 128,-1,0
 41 161 41 161 41 290 c 128,-1,1
153 290 m 0,8,9
 153 200 153 200 190 142 c 128,-1,10
 227 84 227 84 307 84 c 0,11,12
 388 84 388 84 425 142 c 128,-1,13
 462 200 462 200 462 290 c 0,14,15
 462 343 462 343 448 387.5 c 128,-1,16
 434 432 434 432 398 464 c 128,-1,17
 362 496 362 496 307 496 c 0,18,19
 253 496 253 496 216.5 464 c 128,-1,20
 180 432 180 432 166.5 388 c 128,-1,21
 153 344 153 344 153 290 c 0,8,9
EndSplineSet
Validated: 1
EndChar

StartChar: one.smcp
Encoding: 65550 -1 281
Width: 353
GlyphClass: 2
Flags: W
LayerCount: 2
Fore
SplineSet
154 0 m 1,0,-1
 154 486 l 1,1,-1
 32 486 l 1,2,-1
 32 580 l 1,3,-1
 266 580 l 1,4,-1
 266 0 l 1,5,-1
 154 0 l 1,0,-1
EndSplineSet
Validated: 1
EndChar

StartChar: two.smcp
Encoding: 65551 -1 282
Width: 521
GlyphClass: 2
Flags: W
LayerCount: 2
Fore
SplineSet
509 0 m 1,0,-1
 68 0 l 1,1,-1
 68 66 l 1,2,-1
 262 248 l 2,3,4
 331 314 331 314 352.5 343 c 128,-1,5
 374 372 374 372 374 405 c 0,6,7
 374 446 374 446 346.5 467 c 128,-1,8
 319 488 319 488 274 488 c 0,9,10
 190 488 190 488 102 431 c 1,11,-1
 62 515 l 1,12,13
 174 590 174 590 290 590 c 0,14,15
 374 590 374 590 431 544 c 128,-1,16
 488 498 488 498 488 419 c 0,17,18
 488 367 488 367 455 322.5 c 128,-1,19
 422 278 422 278 333 191 c 2,20,-1
 238 100 l 1,21,-1
 240 94 l 1,22,-1
 509 94 l 1,23,-1
 509 0 l 1,0,-1
EndSplineSet
Validated: 1
EndChar

StartChar: three.smcp
Encoding: 65552 -1 283
Width: 489
GlyphClass: 2
Flags: W
LayerCount: 2
Fore
SplineSet
122 262 m 1,0,-1
 122 348 l 1,1,-1
 182 348 l 2,2,3
 241 348 241 348 278.5 367 c 128,-1,4
 316 386 316 386 316 422 c 0,5,6
 316 459 316 459 286.5 477.5 c 128,-1,7
 257 496 257 496 208 496 c 0,8,9
 109 496 109 496 53 473 c 1,10,-1
 43 561 l 1,11,12
 109 590 109 590 208 590 c 0,13,14
 305 590 305 590 366.5 547.5 c 128,-1,15
 428 505 428 505 428 430 c 0,16,17
 428 352 428 352 345 308 c 1,18,19
 393 285 393 285 420.5 247.5 c 128,-1,20
 448 210 448 210 448 165 c 0,21,22
 448 93 448 93 382.5 46.5 c 128,-1,23
 317 0 317 0 218 0 c 0,24,25
 110 0 110 0 41 29 c 1,26,-1
 53 117 l 1,27,28
 117 94 117 94 218 94 c 0,29,30
 270 94 270 94 303 115 c 128,-1,31
 336 136 336 136 336 173 c 0,32,33
 336 214 336 214 298 238 c 128,-1,34
 260 262 260 262 202 262 c 2,35,-1
 122 262 l 1,0,-1
EndSplineSet
Validated: 1
EndChar

StartChar: four.smcp
Encoding: 65553 -1 284
Width: 546
GlyphClass: 2
Flags: W
LayerCount: 2
Fore
SplineSet
325 0 m 1,0,-1
 325 115 l 1,1,-1
 35 115 l 1,2,-1
 35 187 l 1,3,-1
 206 580 l 1,4,-1
 322 580 l 1,5,-1
 161 209 l 1,6,-1
 325 209 l 1,7,-1
 325 368 l 1,8,-1
 437 368 l 1,9,-1
 437 209 l 1,10,-1
 524 209 l 1,11,-1
 524 115 l 1,12,-1
 437 115 l 1,13,-1
 437 0 l 1,14,-1
 325 0 l 1,0,-1
EndSplineSet
Validated: 1
EndChar

StartChar: five.smcp
Encoding: 65554 -1 285
Width: 487
GlyphClass: 2
Flags: W
LayerCount: 2
Fore
SplineSet
53 296 m 1,0,-1
 53 600 l 1,1,-1
 413 600 l 1,2,-1
 413 506 l 1,3,-1
 157 506 l 1,4,-1
 157 390 l 1,5,-1
 218 390 l 2,6,7
 318 390 318 390 382 335 c 128,-1,8
 446 280 446 280 446 190 c 0,9,10
 446 105 446 105 377.5 52.5 c 128,-1,11
 309 0 309 0 204 0 c 0,12,13
 106 0 106 0 41 19 c 1,14,-1
 54 110 l 1,15,16
 130 94 130 94 204 94 c 0,17,18
 262 94 262 94 298 118.5 c 128,-1,19
 334 143 334 143 334 190 c 0,20,21
 334 242 334 242 302.5 269 c 128,-1,22
 271 296 271 296 218 296 c 2,23,-1
 53 296 l 1,0,-1
EndSplineSet
Validated: 1
EndChar

StartChar: six.smcp
Encoding: 65555 -1 286
Width: 570
GlyphClass: 2
Flags: W
LayerCount: 2
Fore
SplineSet
426 590 m 1,0,-1
 444 500 l 1,1,2
 312 497 312 497 245 442 c 1,3,4
 178 394 178 394 163 312 c 1,5,-1
 168 309 l 1,6,7
 195 335 195 335 239.5 352 c 128,-1,8
 284 369 284 369 330 369 c 0,9,10
 412 369 412 369 466 316 c 128,-1,11
 520 263 520 263 520 183 c 0,12,13
 520 96 520 96 448.5 43 c 128,-1,14
 377 -10 377 -10 280 -10 c 0,15,16
 174 -9 174 -9 112 56.5 c 128,-1,17
 50 122 50 122 50 217 c 0,18,19
 50 344 50 344 108 433.5 c 128,-1,20
 166 523 166 523 275 561 c 0,21,22
 339 587 339 587 426 590 c 1,0,-1
168 154 m 0,23,24
 203 84 203 84 285 84 c 0,25,26
 337 84 337 84 372.5 112.5 c 128,-1,27
 408 141 408 141 408 191 c 0,28,29
 408 238 408 238 377.5 264.5 c 128,-1,30
 347 291 347 291 295 291 c 0,31,32
 254 290 254 290 214.5 271 c 128,-1,33
 175 252 175 252 154 222 c 1,34,35
 154 181 154 181 168 154 c 0,23,24
EndSplineSet
Validated: 1
EndChar

StartChar: seven.smcp
Encoding: 65556 -1 287
Width: 443
GlyphClass: 2
Flags: W
LayerCount: 2
Fore
SplineSet
421 514 m 1,0,-1
 230 0 l 1,1,-1
 118 0 l 1,2,-1
 309 486 l 1,3,-1
 13 486 l 1,4,-1
 13 580 l 1,5,-1
 421 580 l 1,6,-1
 421 514 l 1,0,-1
EndSplineSet
Validated: 1
EndChar

StartChar: eight.smcp
Encoding: 65557 -1 288
Width: 612
GlyphClass: 2
Flags: W
LayerCount: 2
Fore
SplineSet
89 425 m 0,0,1
 89 496 89 496 149 543 c 128,-1,2
 209 590 209 590 305 590 c 0,3,4
 400 590 400 590 461 542.5 c 128,-1,5
 522 495 522 495 522 424 c 0,6,7
 522 385 522 385 500 352 c 128,-1,8
 478 319 478 319 441 301 c 1,9,-1
 441 295 l 1,10,11
 491 277 491 277 521.5 241 c 128,-1,12
 552 205 552 205 552 159 c 0,13,14
 552 87 552 87 483 38.5 c 128,-1,15
 414 -10 414 -10 305 -10 c 0,16,17
 197 -10 197 -10 128 39 c 128,-1,18
 59 88 59 88 59 160 c 0,19,20
 59 205 59 205 89 241.5 c 128,-1,21
 119 278 119 278 169 295 c 1,22,-1
 169 301 l 1,23,24
 89 343 89 343 89 425 c 0,0,1
171 168 m 0,25,26
 171 133 171 133 209.5 108.5 c 128,-1,27
 248 84 248 84 305 84 c 0,28,29
 364 84 364 84 402 108 c 128,-1,30
 440 132 440 132 440 167 c 0,31,32
 440 205 440 205 402.5 228.5 c 128,-1,33
 365 252 365 252 305 252 c 0,34,35
 247 252 247 252 209 228.5 c 128,-1,36
 171 205 171 205 171 168 c 0,25,26
201 417 m 0,37,38
 201 382 201 382 230 360 c 128,-1,39
 259 338 259 338 305 338 c 128,-1,40
 351 338 351 338 380.5 359.5 c 128,-1,41
 410 381 410 381 410 416 c 128,-1,42
 410 451 410 451 380.5 473.5 c 128,-1,43
 351 496 351 496 305 496 c 0,44,45
 260 496 260 496 230.5 473.5 c 128,-1,46
 201 451 201 451 201 417 c 0,37,38
EndSplineSet
Validated: 1
EndChar

StartChar: nine.smcp
Encoding: 65558 -1 289
Width: 570
GlyphClass: 2
Flags: W
LayerCount: 2
Fore
SplineSet
144 -10 m 1,0,-1
 126 80 l 1,1,2
 260 83 260 83 325 138 c 1,3,4
 386 181 386 181 405 258 c 1,5,-1
 400 261 l 1,6,7
 372 236 372 236 328 219.5 c 128,-1,8
 284 203 284 203 239 203 c 0,9,10
 157 203 157 203 103.5 257.5 c 128,-1,11
 50 312 50 312 50 393 c 0,12,13
 50 483 50 483 121 536.5 c 128,-1,14
 192 590 192 590 290 590 c 0,15,16
 396 589 396 589 458 523.5 c 128,-1,17
 520 458 520 458 520 363 c 0,18,19
 520 237 520 237 462.5 147 c 128,-1,20
 405 57 405 57 296 19 c 0,21,22
 231 -7 231 -7 144 -10 c 1,0,-1
416 349 m 1,23,-1
 416 357 l 2,24,25
 416 399 416 399 402 426 c 0,26,27
 367 496 367 496 285 496 c 0,28,29
 232 496 232 496 197 467 c 128,-1,30
 162 438 162 438 162 385 c 0,31,32
 162 337 162 337 192 309 c 128,-1,33
 222 281 222 281 274 281 c 0,34,35
 316 282 316 282 355 300.5 c 128,-1,36
 394 319 394 319 416 349 c 1,23,-1
EndSplineSet
Validated: 1
EndChar

StartChar: zero.smcp
Encoding: 65559 -1 290
Width: 615
GlyphClass: 2
Flags: W
LayerCount: 2
Fore
SplineSet
41 290 m 128,-1,1
 41 419 41 419 109 504.5 c 128,-1,2
 177 590 177 590 307 590 c 128,-1,3
 437 590 437 590 505.5 504.5 c 128,-1,4
 574 419 574 419 574 290 c 128,-1,5
 574 161 574 161 505.5 75.5 c 128,-1,6
 437 -10 437 -10 307 -10 c 128,-1,7
 177 -10 177 -10 109 75.5 c 128,-1,0
 41 161 41 161 41 290 c 128,-1,1
153 290 m 0,8,9
 153 200 153 200 190 142 c 128,-1,10
 227 84 227 84 307 84 c 0,11,12
 388 84 388 84 425 142 c 128,-1,13
 462 200 462 200 462 290 c 0,14,15
 462 343 462 343 448 387.5 c 128,-1,16
 434 432 434 432 398 464 c 128,-1,17
 362 496 362 496 307 496 c 0,18,19
 253 496 253 496 216.5 464 c 128,-1,20
 180 432 180 432 166.5 388 c 128,-1,21
 153 344 153 344 153 290 c 0,8,9
EndSplineSet
Validated: 1
EndChar

StartChar: A.smcp
Encoding: 65560 -1 291
Width: 622
GlyphClass: 2
Flags: W
LayerCount: 2
Fore
SplineSet
486 0 m 1,0,-1
 432 139 l 1,1,-1
 189 139 l 1,2,-1
 135 0 l 1,3,-1
 13 0 l 1,4,-1
 257 580 l 1,5,-1
 364 580 l 1,6,-1
 608 0 l 1,7,-1
 486 0 l 1,0,-1
307 442 m 1,8,-1
 222 223 l 1,9,-1
 399 223 l 1,10,-1
 313 442 l 1,11,-1
 307 442 l 1,8,-1
EndSplineSet
Validated: 1
EndChar

StartChar: B.smcp
Encoding: 65561 -1 292
Width: 584
GlyphClass: 2
Flags: W
LayerCount: 2
Fore
SplineSet
78 0 m 1,0,-1
 78 580 l 1,1,-1
 261 580 l 2,2,3
 374 580 374 580 438.5 534 c 128,-1,4
 503 488 503 488 503 420 c 0,5,6
 503 380 503 380 481.5 349 c 128,-1,7
 460 318 460 318 422 304 c 1,8,-1
 422 298 l 1,9,10
 478 283 478 283 510.5 245 c 128,-1,11
 543 207 543 207 543 160 c 0,12,13
 543 88 543 88 479.5 44 c 128,-1,14
 416 0 416 0 301 0 c 2,15,-1
 78 0 l 1,0,-1
315 250 m 2,16,-1
 190 250 l 1,17,-1
 190 94 l 1,18,-1
 305 94 l 2,19,20
 366 94 366 94 398.5 114 c 128,-1,21
 431 134 431 134 431 168 c 0,22,23
 431 203 431 203 401 226.5 c 128,-1,24
 371 250 371 250 315 250 c 2,16,-1
265 486 m 2,25,-1
 190 486 l 1,26,-1
 190 340 l 1,27,-1
 275 340 l 2,28,29
 391 340 391 340 391 413 c 0,30,31
 391 444 391 444 358.5 465 c 128,-1,32
 326 486 326 486 265 486 c 2,25,-1
EndSplineSet
Validated: 1
EndChar

StartChar: C.smcp
Encoding: 65562 -1 293
Width: 538
GlyphClass: 2
Flags: W
LayerCount: 2
Fore
SplineSet
153 290 m 0,0,1
 153 201 153 201 216 142.5 c 128,-1,2
 279 84 279 84 373 84 c 0,3,4
 451 84 451 84 498 107 c 1,5,-1
 522 18 l 1,6,7
 461 -10 461 -10 373 -10 c 0,8,9
 231 -10 231 -10 136 75.5 c 128,-1,10
 41 161 41 161 41 290 c 128,-1,11
 41 419 41 419 136 504.5 c 128,-1,12
 231 590 231 590 373 590 c 0,13,14
 461 590 461 590 522 561 c 1,15,-1
 498 473 l 1,16,17
 446 496 446 496 373 496 c 0,18,19
 280 496 280 496 216.5 435 c 128,-1,20
 153 374 153 374 153 290 c 0,0,1
EndSplineSet
Validated: 1
EndChar

StartChar: D.smcp
Encoding: 65563 -1 294
Width: 642
GlyphClass: 2
Flags: W
LayerCount: 2
Fore
SplineSet
78 0 m 1,0,-1
 78 580 l 1,1,-1
 279 580 l 2,2,3
 423 580 423 580 512 498 c 128,-1,4
 601 416 601 416 601 290 c 128,-1,5
 601 164 601 164 512 82 c 128,-1,6
 423 0 423 0 279 0 c 2,7,-1
 78 0 l 1,0,-1
279 486 m 2,8,-1
 190 486 l 1,9,-1
 190 94 l 1,10,-1
 279 94 l 2,11,12
 376 94 376 94 432.5 149 c 128,-1,13
 489 204 489 204 489 290 c 0,14,15
 489 372 489 372 431.5 429 c 128,-1,16
 374 486 374 486 279 486 c 2,8,-1
EndSplineSet
Validated: 1
EndChar

StartChar: E.smcp
Encoding: 65564 -1 295
Width: 508
GlyphClass: 2
Flags: W
LayerCount: 2
Fore
SplineSet
467 0 m 1,0,-1
 78 0 l 1,1,-1
 78 580 l 1,2,-1
 467 580 l 1,3,-1
 467 486 l 1,4,-1
 190 486 l 1,5,-1
 190 345 l 1,6,-1
 451 345 l 1,7,-1
 451 251 l 1,8,-1
 190 251 l 1,9,-1
 190 94 l 1,10,-1
 467 94 l 1,11,-1
 467 0 l 1,0,-1
EndSplineSet
Validated: 1
EndChar

StartChar: F.smcp
Encoding: 65565 -1 296
Width: 499
GlyphClass: 2
Flags: W
LayerCount: 2
Fore
SplineSet
451 243 m 1,0,-1
 190 243 l 1,1,-1
 190 0 l 1,2,-1
 78 0 l 1,3,-1
 78 580 l 1,4,-1
 467 580 l 1,5,-1
 467 486 l 1,6,-1
 190 486 l 1,7,-1
 190 337 l 1,8,-1
 451 337 l 1,9,-1
 451 243 l 1,0,-1
EndSplineSet
Validated: 1
EndChar

StartChar: G.smcp
Encoding: 65566 -1 297
Width: 640
GlyphClass: 2
Flags: W
LayerCount: 2
Fore
SplineSet
153 290 m 0,0,1
 153 201 153 201 216 142.5 c 128,-1,2
 279 84 279 84 373 84 c 0,3,4
 427 84 427 84 462 89 c 1,5,-1
 462 280 l 1,6,-1
 574 280 l 1,7,-1
 574 28 l 1,8,9
 492 -10 492 -10 373 -10 c 0,10,11
 231 -10 231 -10 136 75.5 c 128,-1,12
 41 161 41 161 41 290 c 128,-1,13
 41 419 41 419 136 504.5 c 128,-1,14
 231 590 231 590 373 590 c 0,15,16
 477 590 477 590 542 558 c 1,17,-1
 518 471 l 1,18,19
 453 496 453 496 373 496 c 0,20,21
 280 496 280 496 216.5 435 c 128,-1,22
 153 374 153 374 153 290 c 0,0,1
EndSplineSet
Validated: 1
EndChar

StartChar: H.smcp
Encoding: 65567 -1 298
Width: 673
GlyphClass: 2
Flags: W
LayerCount: 2
Fore
SplineSet
483 0 m 1,0,-1
 483 251 l 1,1,-1
 190 251 l 1,2,-1
 190 0 l 1,3,-1
 78 0 l 1,4,-1
 78 580 l 1,5,-1
 190 580 l 1,6,-1
 190 345 l 1,7,-1
 483 345 l 1,8,-1
 483 580 l 1,9,-1
 595 580 l 1,10,-1
 595 0 l 1,11,-1
 483 0 l 1,0,-1
EndSplineSet
Validated: 1
EndChar

StartChar: I.smcp
Encoding: 65568 -1 299
Width: 277
GlyphClass: 2
Flags: W
LayerCount: 2
Fore
SplineSet
82 0 m 1,0,-1
 82 580 l 1,1,-1
 194 580 l 1,2,-1
 194 0 l 1,3,-1
 82 0 l 1,0,-1
EndSplineSet
Validated: 1
EndChar

StartChar: J.smcp
Encoding: 65569 -1 300
Width: 411
GlyphClass: 2
Flags: W
LayerCount: 2
Fore
SplineSet
222 182 m 2,0,-1
 222 572 l 1,1,-1
 334 572 l 1,2,-1
 334 182 l 2,3,4
 334 95 334 95 280.5 42.5 c 128,-1,5
 227 -10 227 -10 138 -10 c 0,6,7
 74 -10 74 -10 23 12 c 1,8,-1
 41 100 l 1,9,10
 83 84 83 84 130 84 c 0,11,12
 173 84 173 84 197.5 110 c 128,-1,13
 222 136 222 136 222 182 c 2,0,-1
EndSplineSet
Validated: 1
EndChar

StartChar: K.smcp
Encoding: 65570 -1 301
Width: 621
GlyphClass: 2
Flags: W
LayerCount: 2
Fore
SplineSet
462 0 m 1,0,-1
 255 242 l 1,1,-1
 190 170 l 1,2,-1
 190 0 l 1,3,-1
 78 0 l 1,4,-1
 78 580 l 1,5,-1
 190 580 l 1,6,-1
 190 316 l 1,7,-1
 196 314 l 1,8,-1
 421 580 l 1,9,-1
 557 580 l 1,10,-1
 559 575 l 1,11,-1
 330 324 l 1,12,-1
 603 5 l 1,13,-1
 601 0 l 1,14,-1
 462 0 l 1,0,-1
EndSplineSet
Validated: 1
EndChar

StartChar: L.smcp
Encoding: 65571 -1 302
Width: 487
GlyphClass: 2
Flags: W
LayerCount: 2
Fore
SplineSet
78 0 m 1,0,-1
 78 580 l 1,1,-1
 190 580 l 1,2,-1
 190 94 l 1,3,-1
 469 94 l 1,4,-1
 469 0 l 1,5,-1
 78 0 l 1,0,-1
EndSplineSet
Validated: 1
EndChar

StartChar: M.smcp
Encoding: 65572 -1 303
Width: 829
GlyphClass: 2
Flags: W
LayerCount: 2
Fore
SplineSet
639 0 m 1,0,-1
 639 401 l 1,1,-1
 633 403 l 1,2,-1
 456 0 l 1,3,-1
 375 0 l 1,4,-1
 196 408 l 1,5,-1
 190 406 l 1,6,-1
 190 0 l 1,7,-1
 78 0 l 1,8,-1
 78 580 l 1,9,-1
 226 580 l 1,10,-1
 412 141 l 1,11,-1
 418 141 l 1,12,-1
 605 580 l 1,13,-1
 751 580 l 1,14,-1
 751 0 l 1,15,-1
 639 0 l 1,0,-1
EndSplineSet
Validated: 1
EndChar

StartChar: N.smcp
Encoding: 65573 -1 304
Width: 713
GlyphClass: 2
Flags: W
LayerCount: 2
Fore
SplineSet
531 0 m 1,0,-1
 196 409 l 1,1,-1
 190 407 l 1,2,-1
 190 0 l 1,3,-1
 78 0 l 1,4,-1
 78 580 l 1,5,-1
 182 580 l 1,6,-1
 517 166 l 1,7,-1
 523 168 l 1,8,-1
 523 580 l 1,9,-1
 635 580 l 1,10,-1
 635 0 l 1,11,-1
 531 0 l 1,0,-1
EndSplineSet
Validated: 1
EndChar

StartChar: O.smcp
Encoding: 65574 -1 305
Width: 711
GlyphClass: 2
Flags: W
LayerCount: 2
Fore
SplineSet
41 290 m 128,-1,1
 41 418 41 418 131.5 504 c 128,-1,2
 222 590 222 590 355 590 c 0,3,4
 484 590 484 590 577 503.5 c 128,-1,5
 670 417 670 417 670 290 c 0,6,7
 670 162 670 162 579 76 c 128,-1,8
 488 -10 488 -10 355 -10 c 128,-1,9
 222 -10 222 -10 131.5 76 c 128,-1,0
 41 162 41 162 41 290 c 128,-1,1
153 290 m 0,10,11
 153 201 153 201 210 142.5 c 128,-1,12
 267 84 267 84 355 84 c 0,13,14
 441 84 441 84 499.5 142.5 c 128,-1,15
 558 201 558 201 558 290 c 0,16,17
 558 374 558 374 500 435 c 128,-1,18
 442 496 442 496 355 496 c 0,19,20
 269 496 269 496 211 435.5 c 128,-1,21
 153 375 153 375 153 290 c 0,10,11
EndSplineSet
Validated: 1
EndChar

StartChar: P.smcp
Encoding: 65575 -1 306
Width: 578
GlyphClass: 2
Flags: W
LayerCount: 2
Fore
SplineSet
78 0 m 1,0,-1
 78 556 l 1,1,-1
 315 556 l 2,2,3
 424 556 424 556 484.5 501.5 c 128,-1,4
 545 447 545 447 545 368 c 0,5,6
 545 287 545 287 485 233.5 c 128,-1,7
 425 180 425 180 315 180 c 2,8,-1
 190 180 l 1,9,-1
 190 0 l 1,10,-1
 78 0 l 1,0,-1
315 462 m 2,11,-1
 190 462 l 1,12,-1
 190 274 l 1,13,-1
 315 274 l 2,14,15
 375 274 375 274 404 300.5 c 128,-1,16
 433 327 433 327 433 368 c 128,-1,17
 433 409 433 409 403.5 435.5 c 128,-1,18
 374 462 374 462 315 462 c 2,11,-1
EndSplineSet
Validated: 1
EndChar

StartChar: Q.smcp
Encoding: 65576 -1 307
Width: 749
GlyphClass: 2
Flags: W
LayerCount: 2
Fore
SplineSet
49 290 m 128,-1,1
 49 418 49 418 139.5 504 c 128,-1,2
 230 590 230 590 363 590 c 0,3,4
 492 590 492 590 585 503.5 c 128,-1,5
 678 417 678 417 678 290 c 0,6,7
 678 178 678 178 608 97 c 1,8,-1
 715 -11 l 1,9,-1
 640 -79 l 1,10,-1
 529 32 l 1,11,12
 454 -10 454 -10 363 -10 c 0,13,14
 230 -10 230 -10 139.5 76 c 128,-1,0
 49 162 49 162 49 290 c 128,-1,1
161 290 m 0,15,16
 161 201 161 201 218 142.5 c 128,-1,17
 275 84 275 84 363 84 c 0,18,19
 449 84 449 84 507.5 142.5 c 128,-1,20
 566 201 566 201 566 290 c 0,21,22
 566 374 566 374 508 435 c 128,-1,23
 450 496 450 496 363 496 c 0,24,25
 277 496 277 496 219 435.5 c 128,-1,26
 161 375 161 375 161 290 c 0,15,16
EndSplineSet
Validated: 1
EndChar

StartChar: R.smcp
Encoding: 65577 -1 308
Width: 593
GlyphClass: 2
Flags: W
LayerCount: 2
Fore
SplineSet
448 0 m 1,0,-1
 316 204 l 1,1,-1
 190 204 l 1,2,-1
 190 0 l 1,3,-1
 78 0 l 1,4,-1
 78 580 l 1,5,-1
 295 580 l 2,6,7
 398 580 398 580 457.5 526 c 128,-1,8
 517 472 517 472 517 392 c 0,9,10
 517 283 517 283 422 232 c 1,11,-1
 575 0 l 1,12,-1
 448 0 l 1,0,-1
295 486 m 2,13,-1
 190 486 l 1,14,-1
 190 298 l 1,15,-1
 295 298 l 2,16,17
 349 298 349 298 377 323.5 c 128,-1,18
 405 349 405 349 405 392 c 128,-1,19
 405 435 405 435 377 460.5 c 128,-1,20
 349 486 349 486 295 486 c 2,13,-1
EndSplineSet
Validated: 1
EndChar

StartChar: S.smcp
Encoding: 65578 -1 309
Width: 505
GlyphClass: 2
Flags: W
LayerCount: 2
Fore
SplineSet
53 24 m 1,0,-1
 70 116 l 1,1,2
 164 86 164 86 233 86 c 0,3,4
 280 86 280 86 312 106 c 128,-1,5
 344 126 344 126 344 166 c 0,6,7
 344 197 344 197 319 216.5 c 128,-1,8
 294 236 294 236 229 253 c 0,9,10
 51 295 51 295 51 419 c 0,11,12
 51 500 51 500 111.5 545 c 128,-1,13
 172 590 172 590 259 590 c 0,14,15
 340 590 340 590 434 554 c 1,16,-1
 417 465 l 1,17,18
 327 495 327 495 263 495 c 0,19,20
 220 495 220 495 191 475 c 128,-1,21
 162 455 162 455 162 419 c 0,22,23
 162 391 162 391 186.5 372 c 128,-1,24
 211 353 211 353 273 338 c 0,25,26
 455 300 455 300 455 168 c 0,27,28
 455 82 455 82 391.5 36.5 c 128,-1,29
 328 -9 328 -9 237 -9 c 0,30,31
 149 -9 149 -9 53 24 c 1,0,-1
EndSplineSet
Validated: 1
EndChar

StartChar: T.smcp
Encoding: 65579 -1 310
Width: 500
GlyphClass: 2
Flags: W
LayerCount: 2
Fore
SplineSet
482 486 m 1,0,-1
 309 486 l 1,1,-1
 309 0 l 1,2,-1
 197 0 l 1,3,-1
 197 486 l 1,4,-1
 18 486 l 1,5,-1
 18 580 l 1,6,-1
 482 580 l 1,7,-1
 482 486 l 1,0,-1
EndSplineSet
Validated: 1
EndChar

StartChar: U.smcp
Encoding: 65580 -1 311
Width: 662
GlyphClass: 2
Flags: W
LayerCount: 2
Fore
SplineSet
594 580 m 1,0,-1
 594 218 l 2,1,2
 594 116 594 116 519 53 c 128,-1,3
 444 -10 444 -10 331 -10 c 128,-1,4
 218 -10 218 -10 143.5 53 c 128,-1,5
 69 116 69 116 69 218 c 2,6,-1
 69 580 l 1,7,-1
 181 580 l 1,8,-1
 181 218 l 2,9,10
 181 156 181 156 223.5 120 c 128,-1,11
 266 84 266 84 331 84 c 0,12,13
 395 84 395 84 438.5 120 c 128,-1,14
 482 156 482 156 482 218 c 2,15,-1
 482 580 l 1,16,-1
 594 580 l 1,0,-1
EndSplineSet
Validated: 1
EndChar

StartChar: V.smcp
Encoding: 65581 -1 312
Width: 630
GlyphClass: 2
Flags: W
LayerCount: 2
Fore
SplineSet
137 580 m 1,0,-1
 315 124 l 1,1,-1
 321 124 l 1,2,-1
 492 580 l 1,3,-1
 616 580 l 1,4,-1
 377 0 l 1,5,-1
 260 0 l 1,6,-1
 13 580 l 1,7,-1
 137 580 l 1,0,-1
EndSplineSet
Validated: 1
EndChar

StartChar: W.smcp
Encoding: 65582 -1 313
Width: 827
GlyphClass: 2
Flags: W
LayerCount: 2
Fore
SplineSet
458 580 m 1,0,-1
 592 155 l 1,1,-1
 598 155 l 1,2,-1
 694 580 l 1,3,-1
 813 580 l 1,4,-1
 659 0 l 1,5,-1
 546 0 l 1,6,-1
 416 396 l 1,7,-1
 410 396 l 1,8,-1
 280 0 l 1,9,-1
 167 0 l 1,10,-1
 13 580 l 1,11,-1
 132 580 l 1,12,-1
 228 155 l 1,13,-1
 234 155 l 1,14,-1
 368 580 l 1,15,-1
 458 580 l 1,0,-1
EndSplineSet
Validated: 1
EndChar

StartChar: X.smcp
Encoding: 65583 -1 314
Width: 629
GlyphClass: 2
Flags: W
LayerCount: 2
Fore
SplineSet
481 0 m 1,0,-1
 316 214 l 1,1,-1
 152 0 l 1,2,-1
 26 0 l 1,3,-1
 253 297 l 1,4,-1
 36 580 l 1,5,-1
 164 580 l 1,6,-1
 316 380 l 1,7,-1
 469 580 l 1,8,-1
 597 580 l 1,9,-1
 380 297 l 1,10,-1
 607 0 l 1,11,-1
 481 0 l 1,0,-1
EndSplineSet
Validated: 1
EndChar

StartChar: Y.smcp
Encoding: 65584 -1 315
Width: 594
GlyphClass: 2
Flags: W
LayerCount: 2
Fore
SplineSet
137 580 m 1,0,-1
 296 290 l 1,1,-1
 456 580 l 1,2,-1
 580 580 l 1,3,-1
 352 179 l 1,4,-1
 352 0 l 1,5,-1
 240 0 l 1,6,-1
 240 181 l 1,7,-1
 13 580 l 1,8,-1
 137 580 l 1,0,-1
EndSplineSet
Validated: 1
EndChar

StartChar: Z.smcp
Encoding: 65585 -1 316
Width: 543
GlyphClass: 2
Flags: W
LayerCount: 2
Fore
SplineSet
42 486 m 1,0,-1
 42 580 l 1,1,-1
 501 580 l 1,2,-1
 501 514 l 1,3,-1
 169 99 l 1,4,-1
 172 94 l 1,5,-1
 511 94 l 1,6,-1
 511 0 l 1,7,-1
 32 0 l 1,8,-1
 32 66 l 1,9,-1
 362 481 l 1,10,-1
 359 486 l 1,11,-1
 42 486 l 1,0,-1
EndSplineSet
Validated: 1
EndChar

StartChar: mu
Encoding: 181 181 317
Width: 605
Flags: W
LayerCount: 2
Fore
SplineSet
62 224 m 1,0,-1
 170 224 l 1,1,-1
 170 -143 l 1,2,-1
 62 -143 l 1,3,-1
 62 224 l 1,0,-1
543 500 m 1,4,-1
 543 224 l 2,5,6
 543 120 543 120 474 55 c 128,-1,7
 405 -10 405 -10 302 -10 c 0,8,9
 200 -10 200 -10 131 55 c 128,-1,10
 62 120 62 120 62 224 c 6,11,-1
 62 500 l 5,12,-1
 174 500 l 1,13,-1
 174 224 l 2,14,15
 174 158 174 158 210 121 c 128,-1,16
 246 84 246 84 302 84 c 128,-1,17
 358 84 358 84 394.5 121.5 c 128,-1,18
 431 159 431 159 431 224 c 2,19,-1
 431 500 l 1,20,-1
 543 500 l 1,4,-1
EndSplineSet
Validated: 5
EndChar
